<svg width="356" height="372" viewBox="0 0 356 372" fill="none" xmlns="http://www.w3.org/2000/svg">
<path d="M168.635 59.6142H143.48L131.213 41.6252H156.368L168.635 59.6142Z" fill="#2E175A"/>
<path d="M151.56 48.9113C152.944 50.9403 152.812 52.5853 151.265 52.5853C149.718 52.5853 147.342 50.9403 145.959 48.9113C144.575 46.8823 144.707 45.2373 146.254 45.2373C147.8 45.2373 150.176 46.8823 151.56 48.9113Z" fill="white"/>
<path d="M182.522 59.6142H165.895V56.6322H179.54C181.187 56.6332 182.522 57.9672 182.522 59.6142Z" fill="#2E175A"/>
<path d="M168.02 59.1003C168.038 59.1003 168.058 59.0953 168.075 59.0853C168.123 59.0553 168.138 58.9913 168.108 58.9433L167.006 57.1723C166.975 57.1243 166.912 57.1093 166.864 57.1393C166.816 57.1693 166.801 57.2333 166.831 57.2813L167.933 59.0523C167.953 59.0843 167.985 59.1003 168.02 59.1003Z" fill="#9566DA"/>
<path d="M307.344 172.498C302.73 170.958 306.217 164.351 310.996 163.021C315.775 161.691 321.855 163.695 324.069 166.071C327.225 166.442 327.296 171.417 325.406 175.003C323.517 178.589 323.706 183.695 318.887 185.772L307.344 172.498Z" fill="#2E175A"/>
<path d="M307.344 172.498C306.155 179.709 304.4 186.878 312.203 184.513L312.305 188.97L312.508 192.985L321.285 189.604C321.285 189.604 319.323 184.607 319.255 179.969C319.255 179.969 323.677 178.351 321.449 175.284C319.564 172.702 316.282 175.943 316.282 175.943C316.282 175.943 315.761 172.756 316.273 171.151C313.282 172.312 309.481 173.144 307.344 172.498Z" fill="#FFBFC6"/>
<path d="M307.437 176.029L305.813 176.981C305.35 177.252 305.124 177.797 305.26 178.316C305.395 178.835 305.859 179.201 306.394 179.211L307.331 179.23L307.437 176.029Z" fill="#FFBFC6"/>
<path d="M317.35 176.923C317.403 176.943 317.463 176.944 317.518 176.922L319.975 175.923C320.093 175.875 320.149 175.741 320.102 175.624C320.054 175.505 319.92 175.449 319.803 175.497L317.346 176.495C317.229 176.543 317.172 176.677 317.219 176.794C317.245 176.857 317.293 176.901 317.35 176.923Z" fill="#F22D5C"/>
<path d="M312.203 184.513L312.305 188.97C314.763 186.719 315.342 182.419 315.38 182.045C315.215 182.475 313.752 183.961 312.203 184.513Z" fill="#2E175A"/>
<path d="M308.726 176.079C309.255 177.046 310.27 177.659 311.378 177.705C311.39 177.715 311.4 177.703 311.412 177.712C312.528 177.723 313.58 177.162 314.154 176.197C313.686 175.178 312.711 174.516 311.6 174.449C311.554 174.432 311.519 174.424 311.475 174.429C310.326 174.41 309.248 175.052 308.726 176.079Z" fill="white"/>
<path d="M308.726 176.079C309.255 177.046 310.27 177.659 311.378 177.705C311.43 177.666 311.469 177.617 311.508 177.568C312.253 176.639 312.257 175.357 311.6 174.449C311.554 174.432 311.519 174.424 311.475 174.429C310.326 174.41 309.248 175.052 308.726 176.079Z" fill="#2E175A"/>
<path d="M312.673 178.978C311.622 179.548 310.422 179.784 309.233 179.654C309.469 180.551 310.361 181.111 311.271 180.932C312.181 180.753 312.795 179.897 312.673 178.978Z" fill="white"/>
<path d="M312.842 173.472C311.676 172.741 310.037 172.704 308.756 173.489L308.733 173.503C308.469 173.665 308.386 174.01 308.548 174.274C308.71 174.538 309.055 174.621 309.32 174.459C309.348 174.442 309.376 174.421 309.4 174.4C310.215 173.674 311.508 173.423 312.635 173.881C312.753 173.929 312.887 173.872 312.935 173.755C312.978 173.65 312.935 173.53 312.842 173.472Z" fill="#2E175A"/>
<path d="M308.707 165.034C308.719 165.039 308.733 165.043 308.748 165.046C311.028 165.467 313.344 164.845 315.103 163.338C315.199 163.255 315.211 163.111 315.129 163.015C315.046 162.917 314.9 162.908 314.806 162.989C313.151 164.406 310.975 164.99 308.832 164.594C308.707 164.571 308.587 164.653 308.564 164.778C308.543 164.889 308.606 164.995 308.707 165.034Z" fill="#4A3797"/>
<path d="M307.613 167.935C311.903 169.588 314.914 168.198 316.353 166.219C317.49 164.656 319.29 164.424 320.222 164.648C320.346 164.677 320.469 164.602 320.5 164.479C320.529 164.356 320.455 164.231 320.331 164.202C319.278 163.948 317.252 164.204 315.983 165.949C314.534 167.94 311.338 169.272 306.734 167.053C306.616 166.991 306.482 167.045 306.428 167.16C306.373 167.274 306.42 167.412 306.535 167.466C306.902 167.644 307.262 167.8 307.613 167.935Z" fill="#4A3797"/>
<path d="M324.659 175.299C324.687 175.31 324.717 175.316 324.748 175.314C324.874 175.311 324.974 175.205 324.971 175.078C324.946 174.179 324.73 173.551 324.312 173.16C323.724 172.607 322.874 172.643 322.051 172.675C320.727 172.726 319.909 172.686 319.757 171.246C319.565 169.438 320.611 169.079 321.823 168.664C322.802 168.328 323.911 167.949 324.093 166.63C324.11 166.505 324.021 166.389 323.898 166.371C323.772 166.353 323.656 166.441 323.639 166.566C323.495 167.606 322.652 167.895 321.674 168.23C320.453 168.648 319.07 169.122 319.3 171.294C319.505 173.232 320.925 173.178 322.069 173.133C322.831 173.103 323.55 173.072 323.998 173.495C324.321 173.798 324.49 174.32 324.512 175.091C324.515 175.187 324.575 175.267 324.659 175.299Z" fill="#4A3797"/>
<path d="M305.909 179.347C306.06 179.405 306.222 179.439 306.389 179.442L307.326 179.461C307.453 179.464 307.558 179.363 307.561 179.236C307.564 179.11 307.462 179.005 307.336 179.001L306.399 178.982C305.964 178.976 305.59 178.675 305.482 178.259C305.373 177.842 305.556 177.398 305.928 177.18L307.553 176.228C307.662 176.163 307.699 176.023 307.636 175.914C307.569 175.804 307.431 175.768 307.322 175.831L305.697 176.783C305.148 177.105 304.877 177.759 305.037 178.374C305.156 178.828 305.488 179.185 305.909 179.347Z" fill="#2E175A"/>
<path d="M309.241 250.05H274.631V265.623H309.241V250.05Z" fill="#C465C4"/>
<path d="M250.837 265.622H274.709V250.049H250.837V265.622Z" fill="#FFDEFF"/>
<path d="M303.999 260.638H283.714C283.571 260.638 283.455 260.523 283.455 260.379V255.292C283.455 255.149 283.57 255.034 283.714 255.034H303.999C304.142 255.034 304.258 255.149 304.258 255.292V260.379C304.257 260.523 304.142 260.638 303.999 260.638ZM283.972 260.121H303.74V255.551H283.972V260.121Z" fill="white"/>
<path d="M295.703 257.836C295.703 258.367 295.273 258.797 294.742 258.797C294.211 258.797 293.781 258.366 293.781 257.836C293.781 257.305 294.211 256.875 294.742 256.875C295.273 256.875 295.703 257.305 295.703 257.836Z" fill="white"/>
<path d="M274.709 326.151C274.566 326.151 274.451 326.036 274.451 325.892V250.049C274.451 249.905 274.566 249.791 274.709 249.791C274.853 249.791 274.967 249.906 274.967 250.049V325.892C274.968 326.036 274.853 326.151 274.709 326.151Z" fill="#C465C4"/>
<path d="M309.241 326.151C309.098 326.151 308.983 326.036 308.983 325.892V250.307H251.026V325.892C251.026 326.035 250.911 326.151 250.768 326.151C250.624 326.151 250.509 326.036 250.509 325.892V250.049C250.509 249.905 250.624 249.791 250.768 249.791H309.242C309.385 249.791 309.501 249.906 309.501 250.049V325.892C309.5 326.036 309.385 326.151 309.241 326.151Z" fill="#C465C4"/>
<path d="M313.345 280.695L316.626 315.222H326.635L329.256 277.43L331.647 274.066L337.566 265.756L331.927 246.118L329.256 236.819L315.34 268.378C313.625 272.253 312.949 276.49 313.345 280.695Z" fill="#F22D5C"/>
<path d="M331.373 252.731L331.647 274.066L337.566 265.756L331.927 246.118L331.373 252.731Z" fill="#2E175A"/>
<path d="M353.092 226.309L329.257 236.812C329.257 236.812 325.249 225.231 315.365 216.605C311.563 213.286 311.302 206.562 311.572 202.338C311.739 199.723 311.223 197.115 310.017 194.789C309.481 193.755 309.874 192.483 310.9 191.932L319.942 187.075C320.966 186.525 322.241 186.897 322.808 187.911L323.531 189.201C324.221 190.433 325.386 191.302 326.739 191.706C328.29 192.17 330.506 193.231 332.521 195.662C336.099 199.977 350.097 220.5 350.097 220.5L353.853 222.46L353.092 226.309Z" fill="#2E175A"/>
<path d="M312.34 198.372L306.341 215.264H291.343V225.289H307.29C311.467 225.289 315.255 222.836 316.963 219.024L322.68 206.266L312.34 198.372Z" fill="#2E175A"/>
<path d="M312.949 197.13C313.039 197.13 313.126 197.076 313.161 196.988C314.092 194.707 316.371 193.251 318.83 193.394C318.97 193.405 319.065 193.303 319.072 193.177C319.078 193.05 318.982 192.942 318.855 192.935C316.178 192.792 313.742 194.353 312.737 196.814C312.689 196.931 312.745 197.066 312.863 197.113C312.891 197.125 312.921 197.13 312.949 197.13Z" fill="#9566DA"/>
<path d="M320.391 217.79L304.841 243.601L298.684 239.891L310.84 206.502L320.391 217.79Z" fill="#2E175A"/>
<path d="M311.62 210.889C315.844 210.89 318.309 206.795 319.047 205.343C319.165 205.113 319.288 204.859 319.42 204.586C320.489 202.389 322.105 199.067 325.423 197.974C327.836 197.18 330.837 197.697 334.335 199.522C334.443 199.581 334.585 199.537 334.644 199.424C334.703 199.312 334.659 199.173 334.546 199.115C330.934 197.232 327.82 196.699 325.278 197.538C321.776 198.693 320.11 202.119 319.007 204.385C318.876 204.655 318.753 204.906 318.638 205.134C317.802 206.777 314.649 211.975 309.182 209.969C309.065 209.923 308.932 209.986 308.888 210.105C308.844 210.223 308.905 210.356 309.024 210.399C309.952 210.742 310.818 210.889 311.62 210.889Z" fill="#4A3797"/>
<path d="M325.253 227.24C325.276 227.24 325.301 227.236 325.325 227.228C328.24 226.274 329.989 223.554 330.771 222.018C330.888 221.788 331.012 221.533 331.145 221.261C332.213 219.064 333.829 215.742 337.147 214.648C339.562 213.853 342.56 214.372 346.059 216.197C346.167 216.255 346.309 216.211 346.368 216.099C346.426 215.987 346.383 215.848 346.27 215.79C342.658 213.906 339.541 213.377 337.003 214.212C333.501 215.367 331.834 218.793 330.731 221.06C330.6 221.33 330.477 221.581 330.361 221.809C329.084 224.316 327.196 226.132 325.18 226.791C325.06 226.831 324.994 226.96 325.034 227.081C325.067 227.179 325.157 227.24 325.253 227.24Z" fill="#4A3797"/>
<path d="M329.258 236.813L339.677 315.221H350.517L353.043 243.602C353.043 243.602 358.614 234.224 353.092 226.31L329.258 236.813Z" fill="#F22D5C"/>
<path d="M346.165 243.83C346.254 243.83 346.339 243.778 346.376 243.691C346.426 243.575 346.372 243.439 346.256 243.39L335.8 238.917C335.684 238.868 335.549 238.921 335.499 239.037C335.449 239.153 335.503 239.289 335.619 239.338L346.075 243.811C346.104 243.824 346.134 243.83 346.165 243.83Z" fill="white"/>
<path d="M301.737 326.054H325.893L326.041 323.795L326.47 317.645L326.635 315.221H318.424C317.929 316.243 317.567 317.035 317.187 317.645C316.181 319.31 314.961 319.789 310.048 320.646C306.668 321.223 304.59 322.592 303.354 323.796C302.133 325.015 301.737 326.054 301.737 326.054Z" fill="#FFBFC6"/>
<path d="M301.737 326.054H325.893L326.041 323.795L326.47 317.645H317.187C316.181 319.31 314.961 319.789 310.048 320.646C306.668 321.223 304.59 322.592 303.354 323.796C302.133 325.015 301.737 326.054 301.737 326.054Z" fill="#2E175A"/>
<path d="M301.737 326.054H325.893L326.041 323.795H303.353C302.133 325.015 301.737 326.054 301.737 326.054Z" fill="#F22D5C"/>
<path d="M326.634 326.054H349.863L349.89 323.795L349.986 317.645L350.02 315.221H342.123C341.7 316.243 341.392 317.035 341.058 317.645C340.176 319.31 339.028 319.789 334.347 320.646C331.126 321.223 329.198 322.592 328.071 323.796C326.962 325.015 326.634 326.054 326.634 326.054Z" fill="#FFBFC6"/>
<path d="M326.634 326.054H349.863L349.89 323.795L349.986 317.645H341.059C340.177 319.31 339.029 319.789 334.348 320.646C331.127 321.223 329.199 322.592 328.072 323.796C326.962 325.015 326.634 326.054 326.634 326.054Z" fill="#2E175A"/>
<path d="M326.634 326.054H349.863L349.89 323.795H328.072C326.962 325.015 326.634 326.054 326.634 326.054Z" fill="#F22D5C"/>
<path d="M340.937 312.082H348.938C349.064 312.082 349.168 311.979 349.168 311.853C349.168 311.727 349.065 311.624 348.938 311.624H340.937C340.811 311.624 340.708 311.727 340.708 311.853C340.708 311.979 340.811 312.082 340.937 312.082Z" fill="#2E175A"/>
<path d="M317.401 312.082H325.402C325.529 312.082 325.632 311.979 325.632 311.853C325.632 311.727 325.529 311.624 325.402 311.624H317.401C317.275 311.624 317.172 311.727 317.172 311.853C317.172 311.979 317.275 312.082 317.401 312.082Z" fill="#2E175A"/>
<path d="M317.401 289.98C317.407 289.98 317.412 289.98 317.418 289.979C317.544 289.97 317.639 289.86 317.63 289.733L316.806 278.57C316.601 275.782 317.105 272.963 318.265 270.418L325.46 255.328C325.515 255.214 325.466 255.077 325.352 255.022C325.238 254.969 325.1 255.016 325.046 255.131L317.849 270.224C316.656 272.842 316.137 275.738 316.348 278.603L317.172 289.766C317.182 289.888 317.282 289.98 317.401 289.98Z" fill="#2E175A"/>
<path d="M338.94 288.586C338.948 288.586 338.956 288.586 338.965 288.585C339.091 288.571 339.182 288.458 339.168 288.331L335.064 250.601C335.051 250.475 334.95 250.385 334.811 250.398C334.685 250.412 334.594 250.525 334.608 250.652L338.712 288.382C338.725 288.499 338.824 288.586 338.94 288.586Z" fill="#2E175A"/>
<path d="M291.343 215.685C291.343 215.685 288.475 216.159 287.633 214.685C286.791 213.211 285.739 212.343 281.924 212.317C278.109 212.291 277.743 210.802 276.767 212.001C275.846 213.133 280.608 214.711 282.713 214.29C282.713 214.29 282.318 216.079 279.424 216.079C276.53 216.079 274.583 215.5 273.846 214.29C273.109 213.08 272.636 213.053 272.241 213.185C271.846 213.317 271.846 213.817 271.978 214.185C271.978 214.185 271.268 214.659 271.741 215.737C272.214 216.816 273.609 219.262 277.634 219.499C281.66 219.736 288.606 220.025 291.342 220.999V215.685H291.343Z" fill="#FFBFC6"/>
<path d="M278.187 217.861C278.306 217.861 278.408 217.769 278.416 217.648C278.425 217.522 278.33 217.412 278.204 217.403C273.927 217.1 272.842 215.24 272.612 214.677C272.564 214.56 272.433 214.501 272.313 214.552C272.196 214.6 272.14 214.734 272.188 214.851C272.443 215.476 273.631 217.54 278.173 217.86C278.177 217.861 278.182 217.861 278.187 217.861Z" fill="#F22D5C"/>
<path d="M304.841 243.601L301 249.837H289.528C289.528 249.837 290.002 246.89 295.685 246.719L299.291 240.257L304.841 243.601Z" fill="#FFBFC6"/>
<path d="M304.712 225.518H307.289C311.55 225.518 315.429 223.005 317.172 219.117L322.889 206.359C322.94 206.243 322.889 206.107 322.773 206.055C322.657 206.004 322.522 206.055 322.469 206.171L316.752 218.929C315.083 222.653 311.369 225.059 307.289 225.059H304.712C304.586 225.059 304.483 225.162 304.483 225.288C304.483 225.415 304.586 225.518 304.712 225.518Z" fill="#9566DA"/>
<path d="M332.428 264.605C332.434 264.605 332.441 264.605 332.449 264.604C332.575 264.592 332.669 264.481 332.657 264.355L330.811 243.788C330.8 243.662 330.705 243.549 330.562 243.58C330.436 243.592 330.343 243.703 330.354 243.829L332.2 264.396C332.21 264.515 332.31 264.605 332.428 264.605Z" fill="#2E175A"/>
<path d="M328.678 231.909C328.704 231.909 328.731 231.904 328.757 231.895L352.019 223.398C352.138 223.355 352.199 223.223 352.155 223.104C352.112 222.986 351.979 222.922 351.861 222.968L331.923 230.25L349.058 221.335C349.171 221.277 349.214 221.138 349.156 221.026C349.097 220.913 348.956 220.869 348.847 220.928L328.573 231.476C328.465 231.532 328.42 231.662 328.469 231.772C328.506 231.858 328.589 231.909 328.678 231.909Z" fill="#9566DA"/>
<path d="M234.122 91.0202H207.599L205.016 83.5222H207.251L234.122 91.0202Z" fill="#2E175A"/>
<path d="M186.536 119.24L199.25 120.915L199.885 113.932L200.573 106.349L201.931 91.4132L190.31 74.3252C187.136 77.6052 186.536 119.24 186.536 119.24Z" fill="#9566DA"/>
<path d="M192.661 91.7832L199.664 116.371L200.573 106.349L192.661 91.7832Z" fill="#2E175A"/>
<path d="M228.361 69.8622C215.347 67.3792 196.969 66.9812 191.903 71.5512C186.837 76.1212 189.42 82.4792 191.208 88.3402C192.996 94.2012 203.328 120.03 203.328 120.03L217.931 113.473L206.01 84.0692C206.01 84.0692 247.137 103.043 251.607 78.3072L228.361 69.8622Z" fill="#9566DA"/>
<path d="M205.414 83.3953C205.477 83.3953 205.54 83.3673 205.583 83.3163C205.661 83.2233 205.649 83.0843 205.555 83.0063L201.879 79.9253C201.786 79.8473 201.647 79.8593 201.569 79.9533C201.491 80.0463 201.503 80.1853 201.597 80.2633L205.273 83.3443C205.314 83.3783 205.364 83.3953 205.414 83.3953Z" fill="#2E175A"/>
<path d="M217.93 113.472L219.42 117.446L203.923 123.854L202.619 120.321L203.327 120.029L217.93 113.472Z" fill="#2E175A"/>
<path d="M199.254 120.923L184.775 119L184.328 122.463L198.969 124.4L199.254 120.923Z" fill="#2E175A"/>
<path d="M170.844 140.092H196.399L197.784 126.863L198.033 124.404L189.847 123.19C189.676 124.326 189.489 125.587 189.162 126.863C188.306 130.194 186.47 133.54 181.567 134.458C174.797 135.719 170.844 140.092 170.844 140.092Z" fill="#FFBFC6"/>
<path d="M170.844 140.092H196.399L197.457 129.991L197.784 126.863H189.162C188.882 127.937 188.508 128.995 187.964 129.991C186.812 132.092 184.898 133.835 181.567 134.458C174.797 135.719 170.844 140.092 170.844 140.092Z" fill="#D0D0FF"/>
<path d="M170.844 140.092H196.399L196.648 137.664L197.457 129.991H187.964C186.812 132.092 184.898 133.835 181.567 134.458C178.252 135.081 175.606 136.435 173.785 137.664C171.871 138.956 170.844 140.092 170.844 140.092Z" fill="#F22D5C"/>
<path d="M170.844 140.092H196.399L196.648 137.664H173.785C171.871 138.956 170.844 140.092 170.844 140.092Z" fill="#2E175A"/>
<path d="M201.737 140.092H213.472C215.885 140.092 218.157 138.909 219.542 136.917L224.343 129.972L223.137 127.486L219.495 119.86L218.53 117.821L210.468 121.152C210.81 121.759 211.106 122.459 211.355 123.206C212.911 127.937 212.367 134.661 208.196 134.987C203.371 135.361 201.737 140.092 201.737 140.092Z" fill="#FFBFC6"/>
<path d="M201.737 140.092H213.472C215.885 140.092 218.157 138.909 219.542 136.917L224.343 129.972L223.137 127.486L220.476 121.93L219.496 119.86L211.356 123.206C211.574 123.875 211.745 124.576 211.87 125.307C212.695 129.711 211.776 134.707 208.197 134.987C203.371 135.361 201.737 140.092 201.737 140.092Z" fill="#D0D0FF"/>
<path d="M201.737 140.092H213.472C215.885 140.092 218.157 138.909 219.542 136.917L224.335 129.976L223.137 127.486L223.044 127.284L220.476 121.93L211.869 125.307C212.694 129.711 211.775 134.707 208.196 134.987C205.8 135.174 204.181 136.435 203.169 137.664C202.142 138.894 201.737 140.092 201.737 140.092Z" fill="#F22D5C"/>
<path d="M201.737 140.092H213.472C215.885 140.092 218.157 138.909 219.542 136.917L224.335 129.976L223.137 127.486L223.044 127.284L217.332 135.112C216.165 136.715 214.297 137.664 212.305 137.664H203.169C202.142 138.894 201.737 140.092 201.737 140.092Z" fill="#2E175A"/>
<path d="M205.661 81.4802C205.67 81.4802 205.681 81.4802 205.691 81.4782C205.811 81.4612 205.896 81.3502 205.879 81.2302L205.626 79.3723C205.609 79.2513 205.497 79.1602 205.377 79.1822C205.257 79.1992 205.172 79.3092 205.189 79.4302L205.442 81.2882C205.458 81.3992 205.552 81.4802 205.661 81.4802Z" fill="#2E175A"/>
<path d="M236.417 79.9882C236.48 79.9882 236.543 79.9612 236.586 79.9092C236.664 79.8162 236.652 79.6762 236.558 79.5992L230.395 74.4502C230.304 74.3722 230.165 74.3832 230.085 74.4772C230.007 74.5702 230.019 74.7092 230.113 74.7872L236.275 79.9362C236.317 79.9712 236.367 79.9882 236.417 79.9882Z" fill="#2E175A"/>
<path d="M217.717 8.8582C218.221 8.6582 218.736 8.56821 219.25 8.52921C219.686 6.31221 221.191 4.35221 223.447 3.45721C226.304 2.32321 229.444 3.2622 231.288 5.5242C236.118 4.04821 241.351 6.4982 243.248 11.2752C245.245 16.3052 242.787 22.0032 237.756 24.0002C232.726 25.9972 227.029 23.5392 225.031 18.5082C224.775 17.8632 224.594 17.2062 224.481 16.5492C224.344 16.5182 224.216 16.4592 224.081 16.4202C223.512 17.3532 222.663 18.1262 221.569 18.5602C218.89 19.6242 215.856 18.3142 214.792 15.6352C213.729 12.9562 215.039 9.9222 217.717 8.8582Z" fill="#2E175A"/>
<path d="M230.111 28.1502C230.111 28.1502 230.765 29.1632 231.529 30.8352C232.15 32.1462 232.854 33.8762 233.363 35.8342L244.505 37.2062L232.977 16.9812C232.977 16.9812 229.981 18.8412 227.58 16.2102C225.185 13.5942 222.112 16.3552 222.112 16.3552C222.112 16.3552 222.162 31.2392 230.111 28.1502Z" fill="#FFBFC6"/>
<path d="M230.111 28.1502C230.111 28.1502 230.765 29.1632 231.529 30.8352C232.588 29.0752 232.352 26.5402 232.352 26.5402C232.352 26.5402 231.764 27.2922 230.111 28.1502Z" fill="#2E175A"/>
<path d="M223.691 19.8741C222.566 20.6531 222.013 21.7331 221.745 22.5251C221.65 22.8061 221.701 23.1161 221.882 23.3511C222.063 23.5861 222.349 23.7161 222.645 23.6961C223.075 23.6671 223.617 23.5651 224.255 23.3111L223.691 19.8741Z" fill="#FFBFC6"/>
<path d="M224.289 18.1503C224.332 18.1333 224.37 18.1032 224.396 18.0592C224.785 17.4212 225.397 16.9652 226.12 16.7802C226.257 16.7492 226.309 16.6292 226.278 16.5112C226.248 16.3932 226.127 16.3233 226.01 16.3533C225.175 16.5703 224.468 17.0933 224.02 17.8313C223.956 17.9343 223.989 18.0713 224.094 18.1333C224.155 18.1703 224.228 18.1743 224.289 18.1503Z" fill="#2E175A"/>
<path d="M228.135 24.2492C228.783 23.9922 229.314 23.4882 229.604 22.8252C229.653 22.7132 229.601 22.5832 229.491 22.5352C229.381 22.4882 229.249 22.5352 229.201 22.6492C228.862 23.4272 228.128 23.9442 227.284 23.9942C227.163 24.0032 227.071 24.1062 227.078 24.2282C227.086 24.3512 227.19 24.4432 227.312 24.4352C227.6 24.4152 227.877 24.3522 228.135 24.2492Z" fill="#F22D5C"/>
<path d="M224.681 20.0412C225.486 20.4252 226.446 20.3952 227.236 19.9812C227.389 19.9032 227.531 19.7972 227.659 19.6962C228.235 19.2502 228.612 18.5972 228.716 17.8862C228.104 17.6942 227.448 17.6872 226.843 17.8932C226.623 17.9302 226.441 18.0192 226.244 18.1142C225.489 18.5312 224.926 19.2242 224.681 20.0412Z" fill="white"/>
<path d="M224.681 20.0412C225.486 20.4252 226.446 20.3952 227.236 19.9812C227.389 19.9032 227.531 19.7972 227.659 19.6962C227.657 19.3952 227.605 19.0982 227.491 18.8082C227.347 18.4462 227.123 18.1342 226.843 17.8932C226.623 17.9302 226.441 18.0192 226.244 18.1142C225.489 18.5312 224.926 19.2242 224.681 20.0412Z" fill="#2E175A"/>
<path d="M231.5 24.6082C232.922 24.0432 234.168 23.0672 235.052 21.8132C235.122 21.7152 235.099 21.5762 234.999 21.5062C234.897 21.4352 234.761 21.4622 234.692 21.5592C233.754 22.8882 232.378 23.8992 230.834 24.3752C230.712 24.4072 230.653 24.5362 230.69 24.6532C230.726 24.7692 230.85 24.8342 230.966 24.7972C231.147 24.7412 231.325 24.6782 231.5 24.6082Z" fill="#2E175A"/>
<path d="M229.458 25.1102C229.572 25.3972 229.897 25.5372 230.184 25.4232C230.471 25.3092 230.611 24.9842 230.497 24.6972C230.383 24.4102 230.058 24.2702 229.772 24.3842C229.484 24.4992 229.344 24.8242 229.458 25.1102Z" fill="#2E175A"/>
<path d="M220.28 11.4672C219.96 11.4252 219.21 11.1052 219.167 9.0412C219.166 8.9652 219.204 8.8932 219.268 8.8512C219.337 8.8162 219.414 8.8062 219.482 8.8382C219.687 8.9362 221.474 9.8242 221.194 10.7892C221.106 11.0932 220.901 11.3222 220.652 11.4212C220.535 11.4672 220.409 11.4842 220.28 11.4672ZM220.338 11.0312C220.523 11.0522 220.704 10.9002 220.773 10.6682C220.886 10.2752 220.183 9.7392 219.627 9.4152C219.708 10.4722 220.03 10.9902 220.338 11.0312Z" fill="#4A3797"/>
<path d="M221.222 14.4982C221.492 14.3912 221.763 14.2632 222.034 14.1132C225.445 12.2292 225.428 9.60017 225.033 7.52117C224.877 6.69417 225.036 5.96517 225.509 5.35717C226.148 4.52917 227.161 4.18817 227.834 4.14617C227.956 4.13817 228.048 4.03317 228.04 3.91317C228.032 3.79017 227.928 3.69817 227.806 3.70617C226.8 3.77017 225.763 4.31317 225.16 5.08617C224.614 5.78817 224.421 6.66017 224.601 7.60417C224.991 9.65817 224.966 11.9892 221.822 13.7272C220.33 14.5622 218.869 14.6772 217.809 14.0752C216.818 13.5112 216.244 12.3582 216.193 10.8252C216.189 10.7042 216.087 10.6082 215.966 10.6132C215.842 10.6122 215.748 10.7162 215.752 10.8402C215.807 12.5302 216.46 13.8152 217.591 14.4572C218.588 15.0242 219.88 15.0312 221.222 14.4982Z" fill="#4A3797"/>
<path d="M243.304 14.1532C243.41 14.1112 243.467 13.9932 243.433 13.8832C243.397 13.7662 243.273 13.7022 243.157 13.7372C241.4 14.2862 239.519 13.6342 238.477 12.1182C237.435 10.5992 237.503 8.61024 238.645 7.16724C238.721 7.07224 238.704 6.93224 238.609 6.85724C238.513 6.78024 238.372 6.79524 238.299 6.89324C237.036 8.49024 236.96 10.6892 238.112 12.3672C239.266 14.0472 241.346 14.7672 243.289 14.1602C243.293 14.1572 243.299 14.1552 243.304 14.1532Z" fill="#4A3797"/>
<path d="M236.401 20.7282L238.328 19.9632C238.57 19.8672 238.688 19.5932 238.592 19.3522L237.047 15.4622C236.951 15.2202 236.678 15.1022 236.436 15.1982L234.509 15.9632C234.267 16.0592 234.149 16.3332 234.245 16.5742L235.79 20.4642C235.885 20.7062 236.159 20.8242 236.401 20.7282Z" fill="white"/>
<path d="M235.243 15.0032C235.356 14.9582 235.412 14.8302 235.367 14.7172L232.151 6.6182C232.106 6.5052 231.978 6.4502 231.865 6.4952C231.752 6.5402 231.697 6.66819 231.742 6.78119L234.958 14.8802C235.002 14.9932 235.13 15.0482 235.243 15.0032Z" fill="white"/>
<path d="M230.926 4.1322C231.039 4.0872 231.095 3.9592 231.05 3.8462L230.594 2.6972C230.14 1.5532 229.093 0.714198 227.861 0.508198C226.724 0.320198 225.658 0.694199 224.938 1.5342C224.71 1.7992 224.549 2.0872 224.462 2.3902C224.428 2.5052 224.495 2.6292 224.612 2.6622C224.728 2.6942 224.852 2.6302 224.885 2.5112C224.955 2.2702 225.086 2.0362 225.273 1.8202C225.891 1.1002 226.809 0.778199 227.79 0.943199C228.871 1.1242 229.788 1.8582 230.186 2.8602L230.642 4.0092C230.685 4.1222 230.813 4.1772 230.926 4.1322Z" fill="#F22D5C"/>
<path d="M243.401 22.4712C243.489 22.4362 243.571 22.3812 243.64 22.3072C244.664 21.2072 245.439 19.8682 245.88 18.4332C245.987 18.0852 245.791 17.7142 245.442 17.6062C245.096 17.5032 244.724 17.6952 244.616 18.0452C244.234 19.2902 243.562 20.4522 242.673 21.4052C242.424 21.6722 242.439 22.0912 242.706 22.3392C242.898 22.5212 243.171 22.5632 243.401 22.4712Z" fill="#2E175A"/>
<path d="M254.453 27.2903C254.528 27.2603 254.599 27.2172 254.661 27.1572C255.566 26.3112 256.151 25.1683 256.31 23.9403C256.357 23.5793 256.102 23.2462 255.74 23.1992C255.378 23.1502 255.045 23.4062 255 23.7712C254.88 24.6952 254.439 25.5563 253.758 26.1933C253.491 26.4423 253.477 26.8602 253.727 27.1262C253.917 27.3322 254.208 27.3873 254.453 27.2903Z" fill="#2E175A"/>
<path d="M245.283 24.6401C246.213 26.9831 248.866 28.1281 251.209 27.1971C253.552 26.2671 254.697 23.6141 253.766 21.2711C252.836 18.9291 250.183 17.7841 247.84 18.7141C245.498 19.6441 244.353 22.2971 245.283 24.6401Z" fill="#2E175A"/>
<path d="M256.134 28.2951C256.593 29.4521 257.904 30.0171 259.06 29.5581C260.217 29.0991 260.783 27.7881 260.323 26.6321C259.863 25.4751 258.553 24.9101 257.396 25.3691C256.24 25.8281 255.675 27.1381 256.134 28.2951Z" fill="#2E175A"/>
<path d="M224.32 23.5222C224.417 23.4862 224.505 23.3472 224.459 23.2302C224.414 23.1162 224.286 23.0622 224.173 23.1072C224.175 23.1042 224.164 23.1112 224.158 23.1132C223.628 23.3232 223.114 23.4462 222.63 23.4772C222.407 23.4912 222.192 23.3952 222.056 23.2172C221.92 23.0402 221.882 22.8082 221.953 22.5962C222.205 21.8512 222.733 20.8062 223.816 20.0552C223.916 19.9862 223.941 19.8482 223.871 19.7482C223.802 19.6492 223.666 19.6292 223.564 19.6922C222.382 20.5112 221.808 21.6472 221.535 22.4542C221.416 22.8052 221.48 23.1912 221.706 23.4852C221.931 23.7792 222.288 23.9412 222.658 23.9172C223.189 23.8822 223.748 23.7492 224.32 23.5222Z" fill="#2E175A"/>
<path d="M251.606 78.3062C252.897 75.3262 252.301 72.1472 252.301 72.1472L245.546 40.1602C245.546 40.1602 243.957 31.5172 235.712 31.5172C227.467 31.5172 219.718 49.5972 219.718 49.5972H226.175C226.175 49.5972 230.844 61.6172 228.361 69.8622C228.361 69.8622 236.507 79.7962 251.606 78.3062Z" fill="#2E175A"/>
<path d="M226.796 39.8332H244.305C244.427 39.8332 244.525 39.7352 244.525 39.6132C244.525 39.4912 244.426 39.3922 244.305 39.3922H226.796C226.675 39.3922 226.576 39.4902 226.576 39.6132C226.576 39.7352 226.675 39.8332 226.796 39.8332Z" fill="#4A3797"/>
<path d="M222.251 47.0412H245.943C246.065 47.0412 246.163 46.9432 246.163 46.8212C246.163 46.6992 246.064 46.6012 245.943 46.6012H222.251C222.13 46.6012 222.031 46.6992 222.031 46.8212C222.031 46.9432 222.13 47.0412 222.251 47.0412Z" fill="#4A3797"/>
<path d="M233.502 54.2502H246.913C247.035 54.2502 247.133 54.1522 247.133 54.0302C247.133 53.9082 247.034 53.8092 246.913 53.8092H233.502C233.381 53.8092 233.282 53.9072 233.282 54.0302C233.281 54.1522 233.38 54.2502 233.502 54.2502Z" fill="#4A3797"/>
<path d="M230.224 61.4592H248.85C248.971 61.4592 249.07 61.3612 249.07 61.2392C249.07 61.1162 248.971 61.0182 248.85 61.0182H230.224C230.103 61.0182 230.004 61.1162 230.004 61.2392C230.003 61.3612 230.102 61.4592 230.224 61.4592Z" fill="#4A3797"/>
<path d="M230.149 68.6672H250.34C250.461 68.6672 250.561 68.5692 250.561 68.4472C250.561 68.3252 250.462 68.2272 250.34 68.2272H230.149C230.028 68.2272 229.929 68.3252 229.929 68.4472C229.928 68.5692 230.027 68.6672 230.149 68.6672Z" fill="#4A3797"/>
<path d="M235.248 49.1422C235.324 49.1422 235.399 49.1022 235.439 49.0322L238.592 43.5492C238.652 43.4442 238.616 43.3082 238.511 43.2482C238.406 43.1862 238.271 43.2222 238.21 43.3292L235.057 48.8122C234.997 48.9172 235.033 49.0532 235.138 49.1132C235.173 49.1342 235.21 49.1422 235.248 49.1422Z" fill="#9566DA"/>
<path d="M198.033 108.269C198.056 108.269 198.079 108.265 198.101 108.258C198.217 108.22 198.28 108.096 198.242 107.979L190.506 84.2302C190.468 84.1152 190.343 84.0542 190.229 84.0892C190.113 84.1272 190.05 84.2512 190.088 84.3682L197.824 108.117C197.854 108.21 197.94 108.269 198.033 108.269Z" fill="#2E175A"/>
<path d="M193.252 118.876C193.361 118.876 193.456 118.795 193.471 118.683C193.486 118.563 193.401 118.452 193.281 118.437L188.047 117.762C187.936 117.733 187.816 117.831 187.8 117.953C187.784 118.073 187.87 118.184 187.99 118.199L193.223 118.874C193.232 118.876 193.242 118.876 193.252 118.876Z" fill="#2E175A"/>
<path d="M204.479 118.455C204.51 118.455 204.542 118.448 204.571 118.434L210.227 115.818C210.338 115.768 210.386 115.636 210.335 115.525C210.284 115.416 210.151 115.367 210.043 115.418L204.387 118.034C204.276 118.084 204.228 118.216 204.28 118.327C204.317 118.406 204.396 118.455 204.479 118.455Z" fill="#2E175A"/>
<path d="M122.134 340.975H253.073C256.596 340.975 259.453 338.227 259.453 334.837V65.6802C259.453 62.2902 256.597 59.5422 253.073 59.5422H122.134C118.61 59.5422 115.754 62.2902 115.754 65.6802V334.837C115.754 338.227 118.61 340.975 122.134 340.975Z" fill="#DE68DE"/>
<path d="M239.235 74.3152H130.526V305.749H239.235V74.3152Z" fill="#E895E8"/>
<path d="M162.722 327.339H207.039C210.685 327.339 213.668 324.356 213.668 320.711C213.668 317.065 210.685 314.082 207.039 314.082H162.722C159.076 314.082 156.094 317.065 156.094 320.711C156.094 324.356 159.077 327.339 162.722 327.339Z" fill="white"/>
<path d="M214.221 328.704C214.289 328.704 214.358 328.687 214.419 328.646C217.145 326.911 218.774 323.961 218.774 320.753C218.774 317.32 216.885 314.167 213.845 312.521C213.664 312.428 213.439 312.492 213.342 312.672C213.245 312.852 213.311 313.078 213.491 313.176C216.291 314.688 218.031 317.595 218.031 320.753C218.031 323.706 216.531 326.424 214.021 328.02C213.847 328.13 213.796 328.359 213.906 328.533C213.979 328.643 214.099 328.704 214.221 328.704Z" fill="white"/>
<path d="M159.109 84.3522C159.109 83.4142 159.876 82.6472 160.814 82.6472H201.722C202.659 82.6472 203.426 83.4142 203.426 84.3522C203.426 85.2892 202.659 86.0562 201.722 86.0562H160.814C159.876 86.0572 159.109 85.2902 159.109 84.3522ZM207.244 84.3522C207.244 85.2932 208.007 86.0562 208.948 86.0562C209.889 86.0562 210.653 85.2932 210.653 84.3522C210.653 83.4112 209.89 82.6472 208.948 82.6472C208.007 82.6482 207.244 83.4112 207.244 84.3522Z" fill="white"/>
<path d="M246.362 338.982C250.025 338.982 253.005 336.108 253.005 332.576V67.9402C253.005 64.4082 250.025 61.5332 246.362 61.5332C246.158 61.5332 245.991 61.6982 245.991 61.9042C245.991 62.1102 246.158 62.2752 246.362 62.2752C249.616 62.2752 252.263 64.8162 252.263 67.9402V332.575C252.263 335.699 249.616 338.239 246.362 338.239C246.158 338.239 245.991 338.404 245.991 338.61C245.991 338.816 246.158 338.982 246.362 338.982Z" fill="white"/>
<path d="M213.195 240.021C216.47 240.021 219.126 237.366 219.126 234.09C219.126 230.815 216.47 228.159 213.195 228.159C209.919 228.159 207.264 230.815 207.264 234.09C207.264 237.366 209.919 240.021 213.195 240.021Z" fill="white"/>
<path d="M183.075 234.09C183.075 237.365 180.419 240.021 177.144 240.021C173.868 240.021 171.213 237.365 171.213 234.09C171.213 230.814 173.868 228.159 177.144 228.159C180.419 228.159 183.075 230.814 183.075 234.09Z" fill="white"/>
<path d="M172.483 163.716C172.483 166.428 170.285 168.626 167.573 168.626C164.861 168.626 162.663 166.428 162.663 163.716C162.663 161.004 164.861 158.806 167.573 158.806C170.284 158.806 172.483 161.004 172.483 163.716Z" fill="white"/>
<path d="M221.507 234.393H170.547C168.698 234.393 167.2 232.894 167.2 231.046V158.653C167.2 156.804 168.699 155.306 170.547 155.306H221.507C223.355 155.306 224.854 156.805 224.854 158.653V231.046C224.854 232.895 223.356 234.393 221.507 234.393Z" fill="#A55EA5"/>
<path d="M216.421 233.342C213.177 233.342 210.536 230.519 210.536 227.049V162.649C210.536 159.179 213.177 156.358 216.421 156.358C216.572 156.358 216.693 156.479 216.693 156.63C216.693 156.781 216.572 156.902 216.421 156.902C213.477 156.902 211.081 159.481 211.081 162.649V227.049C211.081 230.219 213.477 232.798 216.421 232.798C216.572 232.798 216.693 232.919 216.693 233.07C216.694 233.221 216.572 233.342 216.421 233.342Z" fill="white"/>
<path d="M204.766 221.016H171.931C171.534 221.016 171.212 220.694 171.212 220.297V167.067C171.212 166.67 171.534 166.348 171.931 166.348H204.766C205.163 166.348 205.485 166.67 205.485 167.067V220.296C205.485 220.694 205.163 221.016 204.766 221.016Z" fill="white"/>
<path d="M211.751 139.451L175.483 145.947C174.214 146.174 173.001 145.33 172.774 144.061L168.512 120.265C168.285 118.996 169.129 117.783 170.398 117.556L206.666 111.06C207.935 110.833 209.148 111.677 209.375 112.946L213.637 136.741C213.864 138.011 213.019 139.224 211.751 139.451Z" fill="#A55EA5"/>
<path d="M207.964 139.503C205.622 139.923 203.377 138.359 202.957 136.017L199.611 117.334C199.192 114.992 200.755 112.747 203.097 112.327C203.245 112.3 203.386 112.398 203.413 112.547C203.44 112.696 203.342 112.836 203.193 112.863C201.146 113.23 199.781 115.191 200.147 117.238L203.493 135.921C203.86 137.968 205.821 139.334 207.868 138.967C208.016 138.94 208.157 139.038 208.184 139.187C208.211 139.336 208.112 139.476 207.964 139.503Z" fill="white"/>
<path d="M197.043 128.416L174.339 132.483C173.9 132.562 173.481 132.27 173.403 131.831L172.113 124.629C172.034 124.19 172.326 123.771 172.765 123.693L195.469 119.626C195.908 119.548 196.327 119.839 196.405 120.278L197.695 127.48C197.773 127.918 197.481 128.337 197.043 128.416Z" fill="white"/>
<path d="M206.903 126.649C205.963 126.817 205.065 126.192 204.897 125.252L203.932 119.864C203.764 118.924 204.389 118.026 205.328 117.858C206.267 117.69 207.166 118.315 207.334 119.255L208.299 124.643C208.468 125.583 207.843 126.481 206.903 126.649Z" fill="#2E175A"/>
<path d="M169.617 133.328L168.221 133.578C167.782 133.657 167.363 133.365 167.285 132.926L165.995 125.724C165.917 125.285 166.208 124.866 166.647 124.788L168.043 124.538L169.617 133.328Z" fill="#2E175A"/>
<path d="M178.823 129.411C178.121 129.537 177.443 129.065 177.317 128.363L176.977 126.462C176.851 125.76 177.323 125.082 178.025 124.957C178.727 124.831 179.405 125.303 179.531 126.005L179.871 127.906C179.997 128.607 179.526 129.285 178.823 129.411Z" fill="#2E175A"/>
<path d="M185.535 128.209C184.833 128.335 184.155 127.863 184.029 127.161L183.689 125.26C183.563 124.558 184.035 123.88 184.737 123.755C185.439 123.629 186.117 124.101 186.243 124.803L186.583 126.704C186.709 127.405 186.237 128.083 185.535 128.209Z" fill="#2E175A"/>
<path d="M205.148 116.85C204.999 116.877 204.859 116.779 204.832 116.63L201.609 98.6341C201.583 98.4861 201.68 98.3451 201.829 98.3181C201.978 98.2911 202.118 98.3911 202.145 98.5381L205.368 116.534C205.395 116.682 205.297 116.823 205.148 116.85Z" fill="#2E175A"/>
<path d="M202.759 97.3182C202.865 97.9122 202.47 98.4802 201.876 98.5862C201.282 98.6922 200.714 98.2972 200.608 97.7032C200.502 97.1092 200.897 96.5412 201.491 96.4352C202.085 96.3282 202.653 96.7242 202.759 97.3182Z" fill="#2E175A"/>
<path d="M167.863 123.528C167.714 123.555 167.574 123.457 167.547 123.308L164.324 105.312C164.298 105.165 164.395 105.023 164.544 104.996C164.692 104.969 164.833 105.068 164.86 105.216L168.083 123.212C168.109 123.361 168.012 123.501 167.863 123.528Z" fill="#2E175A"/>
<path d="M165.474 103.996C165.58 104.59 165.185 105.158 164.591 105.264C163.997 105.37 163.429 104.975 163.323 104.381C163.217 103.787 163.612 103.219 164.206 103.113C164.8 103.007 165.367 103.402 165.474 103.996Z" fill="#2E175A"/>
<path d="M197.166 145.404L191.108 146.489C190.96 146.516 190.819 146.417 190.792 146.269C190.766 146.12 190.864 145.98 191.012 145.953L197.07 144.868C197.219 144.841 197.359 144.939 197.386 145.088C197.412 145.237 197.314 145.378 197.166 145.404Z" fill="white"/>
<path d="M197.717 148.485L191.659 149.57C191.511 149.597 191.37 149.499 191.343 149.35C191.316 149.201 191.414 149.061 191.563 149.034L197.621 147.949C197.77 147.922 197.91 148.02 197.937 148.169C197.964 148.317 197.866 148.458 197.717 148.485Z" fill="white"/>
<path d="M198.269 151.567L192.211 152.652C192.063 152.679 191.922 152.581 191.895 152.432C191.868 152.283 191.966 152.143 192.115 152.116L198.173 151.031C198.322 151.004 198.462 151.102 198.489 151.251C198.516 151.4 198.418 151.541 198.269 151.567Z" fill="white"/>
<path d="M223.044 163.716C223.044 166.428 220.846 168.626 218.134 168.626C215.422 168.626 213.224 166.428 213.224 163.716C213.224 161.004 215.422 158.806 218.134 158.806C220.846 158.806 223.044 161.004 223.044 163.716Z" fill="white"/>
<path d="M195.408 197.541C193.998 197.541 192.681 196.72 192.083 195.36C192.021 195.224 192.085 195.062 192.223 195.003C192.357 194.939 192.521 195.005 192.58 195.143C193.226 196.612 194.863 197.344 196.394 196.835C197.921 196.331 198.801 194.769 198.443 193.2C198.084 191.635 196.632 190.608 195.018 190.815C194.873 190.84 194.733 190.728 194.714 190.579C194.695 190.43 194.799 190.294 194.95 190.275C196.821 190.026 198.554 191.24 198.975 193.081C199.394 194.922 198.358 196.759 196.564 197.354C196.182 197.479 195.791 197.541 195.408 197.541Z" fill="#2E175A"/>
<path d="M157.645 206.096C157.056 206.096 156.461 205.949 155.921 205.641C154.394 204.772 153.746 202.892 154.414 201.27C155.077 199.65 156.857 198.763 158.551 199.21C158.696 199.248 158.783 199.397 158.745 199.543C158.709 199.688 158.56 199.779 158.411 199.737C156.982 199.357 155.477 200.107 154.916 201.476C154.355 202.847 154.901 204.433 156.189 205.169C157.475 205.9 159.119 205.56 160.014 204.38C160.105 204.261 160.278 204.233 160.395 204.327C160.516 204.416 160.54 204.589 160.448 204.708C159.766 205.609 158.714 206.096 157.645 206.096Z" fill="#2E175A"/>
<path d="M225.443 167.136C227.847 169.117 230.114 171.321 231.92 173.949C233.688 176.593 234.99 179.59 235.59 182.733C236.739 189.039 235.487 195.622 231.464 200.823C229.304 203.393 226.445 204.994 223.464 205.988C220.469 206.97 217.264 207.26 214.163 206.82C211.058 206.389 208.096 205.209 205.503 203.537C202.917 201.827 200.792 199.601 198.897 197.249C198.52 196.781 198.594 196.097 199.062 195.72C199.519 195.351 200.184 195.414 200.565 195.854L200.61 195.905C202.451 198.035 204.467 200.007 206.825 201.456C209.191 202.869 211.809 203.803 214.504 204.088C217.194 204.38 219.944 204.035 222.468 203.114C224.975 202.2 227.347 200.709 228.882 198.72C230.443 196.763 231.383 194.06 231.914 191.467C232.391 188.822 232.357 186.105 231.766 183.528C231.181 180.947 230.034 178.523 228.487 176.357C226.9 174.205 224.884 172.373 222.732 170.704L222.645 170.636C221.667 169.878 221.488 168.469 222.247 167.491C223.006 166.512 224.414 166.334 225.393 167.093C225.405 167.106 225.428 167.124 225.443 167.136Z" fill="#2E175A"/>
<path d="M162.871 170.333C157.4 175.537 152.246 181.217 148.396 187.607C146.567 190.765 144.883 194.314 145.066 197.574C145.219 199.148 145.96 200.442 147.411 201.176C148.828 201.938 150.654 202.221 152.479 202.256C153.08 202.264 153.561 202.758 153.553 203.359C153.545 203.944 153.068 204.416 152.489 204.433C150.479 204.478 148.357 204.325 146.3 203.367C145.296 202.879 144.286 202.168 143.605 201.158C142.907 200.171 142.517 199.017 142.347 197.89C142.093 195.637 142.504 193.516 143.127 191.569C143.754 189.612 144.588 187.773 145.515 186.002C149.309 178.968 154.352 172.872 159.764 167.19C160.606 166.306 162.006 166.272 162.89 167.114C163.774 167.956 163.808 169.356 162.966 170.24C162.942 170.264 162.919 170.288 162.894 170.311L162.871 170.333Z" fill="#2E175A"/>
<path d="M197.882 305.853H217.251V302.778C217.251 299.204 213.387 296.965 210.287 298.743L197.882 305.853Z" fill="white"/>
<path d="M159.506 305.853H178.875V302.778C178.875 299.204 175.011 296.965 171.911 298.743L159.506 305.853Z" fill="white"/>
<path d="M211.282 296.887C207.716 293.467 204.653 289.467 202.363 284.995C200.077 280.531 198.58 275.558 198.304 270.401C197.737 260.202 201.281 249.737 208.14 241.833L208.165 241.804C209.303 240.492 211.29 240.351 212.602 241.49C213.914 242.628 214.054 244.615 212.916 245.927C212.869 245.982 212.814 246.04 212.764 246.09C206.501 252.35 202.704 261.208 202.571 270.309C202.42 279.348 206.591 288.386 212.894 295.314C213.314 295.773 213.282 296.486 212.823 296.906C212.383 297.307 211.707 297.291 211.282 296.887Z" fill="#2E175A"/>
<path d="M175.199 296.887C171.633 293.467 168.57 289.467 166.28 284.995C163.994 280.531 162.497 275.558 162.221 270.401C161.654 260.202 165.198 249.737 172.057 241.833L172.082 241.804C173.22 240.492 175.207 240.351 176.519 241.49C177.831 242.628 177.972 244.615 176.833 245.927C176.786 245.982 176.731 246.04 176.681 246.09C170.418 252.35 166.621 261.208 166.489 270.309C166.338 279.348 170.509 288.386 176.811 295.314C177.231 295.773 177.199 296.486 176.74 296.906C176.3 297.307 175.624 297.291 175.199 296.887Z" fill="#2E175A"/>
<path d="M177.844 206.385H199.11C200.625 206.385 201.865 207.625 201.865 209.14V211.53C201.865 213.045 200.625 214.285 199.11 214.285H177.623L175.09 217.062V214.285V213.409V209.141C175.089 207.625 176.329 206.385 177.844 206.385Z" fill="#2E175A"/>
<path d="M198.285 209.495H178.669C178.518 209.495 178.397 209.374 178.397 209.223C178.397 209.072 178.518 208.951 178.669 208.951H198.285C198.436 208.951 198.557 209.072 198.557 209.223C198.557 209.374 198.436 209.495 198.285 209.495Z" fill="white"/>
<path d="M198.285 211.817H178.669C178.518 211.817 178.397 211.696 178.397 211.545C178.397 211.394 178.518 211.273 178.669 211.273H198.285C198.436 211.273 198.557 211.394 198.557 211.545C198.557 211.696 198.436 211.817 198.285 211.817Z" fill="white"/>
<path d="M161.335 195.624L187.535 184.373C189.402 183.571 191.585 184.443 192.387 186.31L193.651 189.254C194.452 191.121 193.581 193.304 191.714 194.106L165.24 205.475L163.588 210.237L162.119 206.815L161.655 205.736L159.397 200.478C158.597 198.609 159.468 196.426 161.335 195.624Z" fill="#2E175A"/>
<path d="M163.853 198.957C163.747 198.957 163.647 198.895 163.602 198.793C163.543 198.655 163.609 198.493 163.745 198.434L187.913 188.055C188.06 187.998 188.213 188.061 188.272 188.197C188.332 188.335 188.265 188.497 188.129 188.556L163.961 198.935C163.925 198.951 163.889 198.957 163.853 198.957Z" fill="white"/>
<path d="M165.079 201.816C164.973 201.816 164.873 201.754 164.828 201.652C164.769 201.514 164.834 201.352 164.97 201.293L189.14 190.914C189.285 190.859 189.44 190.92 189.499 191.056C189.559 191.194 189.493 191.356 189.357 191.415L165.187 201.794C165.152 201.81 165.115 201.816 165.079 201.816Z" fill="white"/>
<path d="M199.11 170.423H177.844C176.329 170.423 175.089 171.663 175.089 173.178V175.567C175.089 177.082 176.329 178.322 177.844 178.322H199.332L201.865 181.099V178.322V177.446V173.178C201.865 171.663 200.625 170.423 199.11 170.423Z" fill="#2E175A"/>
<path d="M198.285 173.534H178.669C178.518 173.534 178.397 173.413 178.397 173.262C178.397 173.111 178.518 172.99 178.669 172.99H198.285C198.436 172.99 198.557 173.111 198.557 173.262C198.557 173.413 198.436 173.534 198.285 173.534Z" fill="white"/>
<path d="M198.285 175.854H178.669C178.518 175.854 178.397 175.733 178.397 175.582C178.397 175.431 178.518 175.31 178.669 175.31H198.285C198.436 175.31 198.557 175.431 198.557 175.582C198.557 175.733 198.436 175.854 198.285 175.854Z" fill="white"/>
<path d="M146.023 350.932C146.023 353.221 144.154 355.11 141.865 355.11H103.123C105.412 355.11 107.301 353.22 107.301 350.932C107.301 348.643 105.411 346.753 103.123 346.753H141.865C144.154 346.754 146.023 348.643 146.023 350.932Z" fill="#C465C4"/>
<path d="M132.647 350.932C132.647 353.221 130.779 355.11 128.469 355.11H103.124C105.413 355.11 107.302 353.22 107.302 350.932C107.302 348.643 105.412 346.753 103.124 346.753H128.469C130.779 346.754 132.647 348.643 132.647 350.932Z" fill="#943C94"/>
<path d="M140.557 342.575C140.557 344.864 138.688 346.754 136.399 346.754H97.6566C99.9456 346.754 101.836 344.864 101.836 342.575C101.836 340.286 99.9456 338.396 97.6566 338.396H136.399C138.688 338.396 140.557 340.286 140.557 342.575Z" fill="#2E175A"/>
<path d="M127.18 342.575C127.18 344.864 125.312 346.754 123.002 346.754H97.6566C99.9456 346.754 101.836 344.864 101.836 342.575C101.836 340.286 99.9456 338.396 97.6566 338.396H123.002C125.312 338.396 127.18 340.286 127.18 342.575Z" fill="#F22D5C"/>
<path d="M144.376 334.218C144.376 336.507 142.507 338.397 140.218 338.397H101.476C103.765 338.397 105.655 336.507 105.655 334.218C105.655 331.929 103.765 330.039 101.476 330.039H140.218C142.508 330.039 144.376 331.929 144.376 334.218Z" fill="white"/>
<path d="M131.001 334.218C131.001 336.507 129.132 338.397 126.822 338.397H101.477C103.766 338.397 105.656 336.507 105.656 334.218C105.656 331.929 103.766 330.039 101.477 330.039H126.822C129.132 330.039 131.001 331.929 131.001 334.218Z" fill="#C465C4"/>
<path d="M127.112 332.426H107.825C107.66 332.426 107.527 332.292 107.527 332.129C107.527 331.965 107.659 331.832 107.825 331.832H127.112C127.277 331.832 127.409 331.965 127.409 332.129C127.409 332.293 127.277 332.426 127.112 332.426Z" fill="white"/>
<path d="M128.478 334.324H109.191C109.026 334.324 108.894 334.19 108.894 334.027C108.894 333.863 109.027 333.73 109.191 333.73H128.478C128.643 333.73 128.775 333.864 128.775 334.027C128.776 334.191 128.643 334.324 128.478 334.324Z" fill="white"/>
<path d="M127.417 335.995H108.129C107.964 335.995 107.832 335.861 107.832 335.698C107.832 335.534 107.965 335.4 108.129 335.4H127.416C127.581 335.4 127.713 335.534 127.713 335.698C127.714 335.861 127.581 335.995 127.417 335.995Z" fill="white"/>
<path d="M122.709 341.007H103.422C103.257 341.007 103.125 340.874 103.125 340.71C103.125 340.546 103.258 340.413 103.422 340.413H122.709C122.874 340.413 123.006 340.547 123.006 340.71C123.006 340.873 122.874 341.007 122.709 341.007Z" fill="white"/>
<path d="M124.075 342.905H104.788C104.623 342.905 104.49 342.771 104.49 342.608C104.49 342.444 104.623 342.31 104.788 342.31H124.075C124.24 342.31 124.373 342.444 124.373 342.608C124.373 342.771 124.24 342.905 124.075 342.905Z" fill="white"/>
<path d="M123.011 344.576H103.724C103.559 344.576 103.427 344.443 103.427 344.279C103.427 344.115 103.56 343.982 103.724 343.982H123.011C123.176 343.982 123.308 344.116 123.308 344.279C123.309 344.442 123.176 344.576 123.011 344.576Z" fill="white"/>
<path d="M128.706 349.283H109.419C109.254 349.283 109.121 349.15 109.121 348.986C109.121 348.822 109.254 348.689 109.419 348.689H128.706C128.871 348.689 129.003 348.823 129.003 348.986C129.003 349.149 128.871 349.283 128.706 349.283Z" fill="white"/>
<path d="M130.074 351.181H110.787C110.622 351.181 110.49 351.047 110.49 350.884C110.49 350.72 110.622 350.586 110.787 350.586H130.074C130.239 350.586 130.371 350.72 130.371 350.884C130.372 351.048 130.24 351.181 130.074 351.181Z" fill="white"/>
<path d="M129.01 352.852H109.723C109.558 352.852 109.426 352.719 109.426 352.555C109.426 352.391 109.559 352.257 109.723 352.257H129.01C129.175 352.257 129.307 352.391 129.307 352.555C129.308 352.718 129.175 352.852 129.01 352.852Z" fill="white"/>
<path d="M219.718 49.5972L217.781 53.5462C217.781 53.5462 201.253 51.1272 189.378 54.3912C183.469 54.5042 179.47 55.7772 177.362 59.2832H179.399C179.399 59.2832 188.478 59.1332 192.152 59.7302C197.05 60.5262 206.004 63.8472 214.387 65.3792C218.786 66.1832 223.273 64.5792 226.206 61.2032C229.555 57.3482 233.684 52.3052 234.869 49.5982L219.718 49.5972Z" fill="#FFBFC6"/>
<path d="M178.781 58.5222C178.832 58.5222 178.882 58.5052 178.924 58.4702C180.332 57.2752 183.192 56.6122 185.574 56.9172C185.7 56.9382 185.806 56.8482 185.821 56.7262C185.837 56.6052 185.751 56.4952 185.631 56.4802C183.457 56.1992 180.358 56.6762 178.639 58.1332C178.547 58.2122 178.535 58.3522 178.614 58.4452C178.656 58.4972 178.719 58.5222 178.781 58.5222Z" fill="#F22D5C"/>
<path d="M205.099 63.3582C205.195 63.3582 205.285 63.2942 205.312 63.1962C205.344 63.0792 205.275 62.9572 205.158 62.9262C204.591 62.7692 203.922 62.5782 203.178 62.3662C198.672 61.0782 191.863 59.1322 187.722 59.1322H177.634C177.513 59.1322 177.413 59.2302 177.413 59.3532C177.413 59.4762 177.512 59.5732 177.634 59.5732H187.722C191.801 59.5732 198.847 61.5862 203.057 62.7902C203.802 63.0022 204.473 63.1952 205.04 63.3502C205.06 63.3562 205.08 63.3582 205.099 63.3582Z" fill="white"/>
<path d="M120.689 187.279C122.063 186.223 122.806 183.259 123.91 183.208C125.014 183.157 124.563 185.218 124.338 185.888C124.113 186.557 123.077 188.232 120.689 187.279Z" fill="#F22D5C"/>
<path d="M77.9236 159.163C77.9236 156.255 75.5666 153.897 72.6586 153.897C71.2786 153.897 70.0336 154.44 69.0946 155.308C68.2006 153.478 66.3386 152.207 64.1656 152.207C61.4966 152.207 59.2746 154.108 58.7726 156.629C58.4626 156.58 58.1506 156.534 57.8266 156.534C54.5036 156.534 51.8096 159.228 51.8096 162.551C51.8096 163.73 52.1616 164.823 52.7486 165.751C51.7626 166.957 51.1466 168.477 51.1466 170.156C51.1466 174.02 54.2786 177.152 58.1436 177.152C61.4646 177.152 64.2326 174.832 64.9476 171.727C65.2506 171.767 65.5496 171.819 65.8636 171.819C69.7326 171.819 72.8696 168.682 72.8696 164.813C72.8696 164.675 72.8366 164.546 72.8296 164.41C75.6556 164.32 77.9236 162.013 77.9236 159.163Z" fill="#2E175A"/>
<path d="M98.3986 202.792L86.6616 193.677C84.9286 192.331 82.8666 191.473 80.6906 191.192L73.6596 190.283C73.3676 190.245 73.1045 190.091 72.9286 189.855C72.7536 189.619 72.6816 189.322 72.7296 189.031C72.7776 188.741 72.7056 188.444 72.5306 188.208C72.3556 187.972 72.0916 187.818 71.7996 187.78L58.8756 186.109C58.2506 186.028 57.6716 186.45 57.5576 187.07C57.4436 187.69 56.8646 188.112 56.2396 188.031L54.3256 187.783C50.0586 187.232 46.0086 189.813 44.7076 193.915L39.4146 210.6L46.5266 212.069L49.4646 236.575L85.0256 239.358L82.7836 206.58L91.4426 213.615L98.3986 202.792Z" fill="#C465C4"/>
<path d="M98.0076 203.4L101.105 205.291L112.592 188.704C113.467 187.44 114.906 186.687 116.443 186.687H121.909C122.505 186.687 123.067 186.411 123.431 185.94L125.517 183.243C125.722 182.978 126.039 182.822 126.374 182.822C126.565 182.822 126.743 182.918 126.848 183.077C126.953 183.236 126.971 183.437 126.897 183.613L125.471 186.96C124.785 188.57 123.229 189.638 121.48 189.699L117.699 189.831L107.011 211.127C105.182 214.772 100.811 216.375 97.0836 214.722C95.3806 213.967 93.7076 213.035 92.5186 211.939L98.0076 203.4Z" fill="#FFBFC6"/>
<path d="M83.2235 239.216L88.3745 314.396H78.1706L67.5536 256.777L60.8536 314.396H50.5466L46.3206 242.347L49.4636 236.574L83.2235 239.216Z" fill="#FFDEFF"/>
<path d="M68.0696 254.535C68.0556 254.535 68.0416 254.533 68.0266 254.532C67.9006 254.508 67.8166 254.387 67.8406 254.261L69.7986 243.747C69.8226 243.62 69.9366 243.542 70.0696 243.56C70.1956 243.584 70.2796 243.705 70.2556 243.83L68.2976 254.344C68.2776 254.457 68.1796 254.535 68.0696 254.535Z" fill="#9566DA"/>
<path d="M85.1796 304.424C85.0586 304.424 84.9576 304.331 84.9476 304.21L80.5166 247.828C80.5066 247.701 80.6016 247.588 80.7296 247.577C80.8666 247.561 80.9706 247.664 80.9796 247.792L85.4116 304.174C85.4216 304.301 85.3266 304.414 85.1986 304.425C85.1916 304.424 85.1846 304.424 85.1796 304.424Z" fill="#9566DA"/>
<path d="M59.4106 303.393C59.4026 303.393 59.3936 303.393 59.3846 303.391C59.2576 303.377 59.1656 303.262 59.1806 303.135L65.4686 247.063C65.4816 246.934 65.5826 246.825 65.7256 246.858C65.8526 246.872 65.9446 246.987 65.9306 247.114L59.6416 303.186C59.6286 303.306 59.5276 303.393 59.4106 303.393Z" fill="#9566DA"/>
<path d="M59.4107 311.742H52.2677C52.1397 311.742 52.0347 311.639 52.0347 311.509C52.0347 311.38 52.1397 311.277 52.2677 311.277H59.4107C59.5387 311.277 59.6437 311.381 59.6437 311.509C59.6427 311.639 59.5387 311.742 59.4107 311.742Z" fill="#9566DA"/>
<path d="M86.5356 311.742H79.3916C79.2636 311.742 79.1586 311.639 79.1586 311.509C79.1586 311.38 79.2636 311.277 79.3916 311.277H86.5356C86.6636 311.277 86.7676 311.381 86.7676 311.509C86.7686 311.639 86.6636 311.742 86.5356 311.742Z" fill="#9566DA"/>
<path d="M91.9826 199.328C91.9716 199.328 91.9606 199.328 91.9486 199.326L46.4926 192.689C46.3656 192.669 46.2776 192.551 46.2966 192.426C46.3146 192.299 46.4176 192.201 46.5596 192.228L92.0156 198.865C92.1426 198.885 92.2306 199.003 92.2116 199.128C92.1956 199.245 92.0956 199.328 91.9826 199.328Z" fill="#D0D0FF"/>
<path d="M82.1056 209.698C82.0946 209.698 82.0836 209.698 82.0716 209.696L42.5246 203.92C42.3976 203.9 42.3096 203.782 42.3286 203.655C42.3456 203.53 42.4576 203.435 42.5916 203.459L82.1386 209.235C82.2656 209.255 82.3536 209.373 82.3346 209.499C82.3196 209.615 82.2196 209.698 82.1056 209.698Z" fill="#D0D0FF"/>
<path d="M82.4976 220.675C82.4866 220.675 82.4756 220.675 82.4646 220.673L50.8236 216.054C50.6966 216.034 50.6086 215.916 50.6276 215.791C50.6456 215.664 50.7506 215.575 50.8906 215.593L82.5316 220.213C82.6586 220.233 82.7466 220.351 82.7276 220.476C82.7106 220.592 82.6106 220.675 82.4976 220.675Z" fill="#D0D0FF"/>
<path d="M83.8496 233.239C83.8386 233.239 83.8276 233.239 83.8156 233.237L52.7806 228.704C52.6536 228.684 52.5656 228.566 52.5846 228.441C52.6016 228.314 52.7086 228.22 52.8476 228.243L83.8826 232.775C84.0096 232.795 84.0976 232.913 84.0786 233.038C84.0626 233.156 83.9626 233.239 83.8496 233.239Z" fill="#D0D0FF"/>
<path d="M69.5076 177.984L69.7336 181.375L70.1376 187.56L58.8816 186.106C58.8816 186.106 60.8516 177.515 60.5936 173.543C60.5936 173.543 56.3626 172.962 56.9436 168.747C57.5086 164.532 62.6606 167.229 62.6606 167.229C62.6606 167.229 66.5686 166.325 64.4046 162.045C66.8266 164.015 70.2346 164.112 70.6376 161.286C71.3156 163.854 74.2546 163.385 74.2546 163.385C75.1276 169.118 77.5016 179.211 69.5076 177.984Z" fill="#FFBFC6"/>
<path d="M61.0086 168.622C60.9856 168.622 60.9626 168.618 60.9386 168.611L59.1346 168.044C59.0116 168.006 58.9436 167.875 58.9826 167.753C59.0206 167.63 59.1476 167.559 59.2736 167.601L61.0776 168.167C61.2006 168.205 61.2686 168.336 61.2286 168.458C61.1986 168.558 61.1076 168.622 61.0086 168.622Z" fill="#F22D5C"/>
<path d="M69.1566 173.69C67.9176 173.69 66.7566 173.049 66.1006 171.992C66.0326 171.881 66.0666 171.74 66.1756 171.671C66.2846 171.602 66.4276 171.636 66.4946 171.746C67.0936 172.71 68.1756 173.255 69.3026 173.222C69.4426 173.233 69.5396 173.315 69.5456 173.444C69.5506 173.573 69.4516 173.682 69.3246 173.687C69.2676 173.688 69.2116 173.69 69.1566 173.69Z" fill="#F22D5C"/>
<path d="M72.1537 167.155C72.1217 167.155 72.0897 167.148 72.0587 167.135C71.9417 167.082 71.8897 166.944 71.9417 166.828C72.3287 165.965 73.2767 165.493 74.1977 165.709C74.3227 165.738 74.4007 165.863 74.3707 165.989C74.3427 166.114 74.2187 166.192 74.0917 166.163C73.3887 166.002 72.6617 166.357 72.3657 167.017C72.3267 167.104 72.2427 167.155 72.1537 167.155Z" fill="#2E175A"/>
<path d="M69.4666 167.155C69.4026 167.155 69.3366 167.128 69.2916 167.075C68.2786 165.911 66.5796 165.637 65.2566 166.425C65.1456 166.487 65.0026 166.456 64.9376 166.343C64.8726 166.232 64.9086 166.091 65.0186 166.025C66.5416 165.123 68.4836 165.437 69.6416 166.77C69.7256 166.866 69.7156 167.013 69.6186 167.099C69.5756 167.137 69.5206 167.155 69.4666 167.155Z" fill="#2E175A"/>
<path d="M71.2056 165.068C71.1656 165.068 71.1256 165.057 71.0896 165.037C70.9776 164.971 70.9406 164.83 71.0056 164.719C71.3896 164.054 72.1496 163.704 72.9126 163.853C73.0386 163.878 73.1206 164 73.0956 164.127C73.0706 164.252 72.9416 164.325 72.8236 164.311C72.2596 164.191 71.6936 164.46 71.4066 164.952C71.3636 165.026 71.2856 165.068 71.2056 165.068Z" fill="#2E175A"/>
<path d="M66.1507 165.003C66.0787 165.003 66.0077 164.97 65.9617 164.907C65.8867 164.802 65.9107 164.656 66.0147 164.582C66.8777 163.961 67.9657 163.727 69.0177 163.928C69.1427 163.954 69.2257 164.075 69.2007 164.202C69.1767 164.327 69.0527 164.395 68.9277 164.385C68.0117 164.198 67.0477 164.411 66.2887 164.959C66.2457 164.988 66.1987 165.003 66.1507 165.003Z" fill="#2E175A"/>
<path d="M70.9436 170.943H68.6876C68.5596 170.943 68.4556 170.84 68.4556 170.711C68.4556 170.582 68.5596 170.479 68.6876 170.479H70.9436C71.1406 170.479 71.3246 170.372 71.4226 170.201C71.5216 170.03 71.5216 169.818 71.4226 169.647L71.2126 169.284C70.7906 168.556 70.5666 167.726 70.5666 166.884V165.747C70.5666 165.618 70.6716 165.515 70.7986 165.515C70.9266 165.515 71.0306 165.619 71.0306 165.747V166.884C71.0306 167.645 71.2316 168.395 71.6126 169.052L71.8236 169.415C72.0066 169.729 72.0066 170.119 71.8246 170.434C71.6456 170.747 71.3066 170.943 70.9436 170.943Z" fill="#2E175A"/>
<path d="M69.7346 181.375C66.9896 179.195 66.3916 176.628 66.3916 176.628C67.0056 177.209 68.2166 177.597 69.5086 177.984L69.7346 181.375Z" fill="#2E175A"/>
<path d="M68.4457 158.515C68.1897 158.515 67.9447 158.364 67.7907 158.096C67.3137 157.263 68.6587 155.993 68.8137 155.851C68.8747 155.797 68.9587 155.777 69.0357 155.799C69.1137 155.822 69.1747 155.884 69.1947 155.962C69.6007 157.493 69.1857 158.265 68.7057 158.462C68.6207 158.498 68.5327 158.515 68.4457 158.515ZM68.8377 156.489C68.4477 156.921 68.0127 157.547 68.1937 157.865C68.2837 158.021 68.4077 158.082 68.5307 158.032C68.7647 157.936 69.0087 157.45 68.8377 156.489Z" fill="#4A3797"/>
<path d="M59.9346 159.42C59.8596 159.42 59.7826 159.41 59.7036 159.39C58.7736 159.158 58.7866 157.308 58.7916 157.098C58.7936 157.016 58.8376 156.942 58.9076 156.901C58.9796 156.858 59.0656 156.86 59.1366 156.899C60.5226 157.665 60.7926 158.5 60.6036 158.982C60.4936 159.259 60.2396 159.42 59.9346 159.42ZM59.2686 157.523C59.3106 158.104 59.4616 158.851 59.8166 158.94C59.9866 158.978 60.1226 158.935 60.1706 158.812C60.2626 158.576 60.0806 158.064 59.2686 157.523Z" fill="#4A3797"/>
<path d="M54.9136 166.532C54.1976 166.532 53.3376 166.084 53.2056 166.013C53.1336 165.973 53.0887 165.9 53.0837 165.819C53.0797 165.737 53.1187 165.661 53.1867 165.616C54.5017 164.732 55.3677 164.873 55.7097 165.26C55.9537 165.54 55.9346 165.936 55.6626 166.246C55.4786 166.456 55.2076 166.532 54.9136 166.532ZM53.8016 165.78C54.3386 166.01 55.0737 166.217 55.3127 165.94C55.4307 165.806 55.4487 165.666 55.3607 165.568C55.1937 165.377 54.6536 165.308 53.8016 165.78Z" fill="#4A3797"/>
<path d="M53.9476 175.246C53.8976 175.246 53.8466 175.23 53.8036 175.197C53.7026 175.117 53.6847 174.972 53.7647 174.87C54.3877 174.075 54.5166 173.011 54.1016 172.092C53.6866 171.171 52.8036 170.563 51.7956 170.503C51.6676 170.496 51.5696 170.385 51.5766 170.256C51.5846 170.127 51.6786 170.038 51.8226 170.038C53.0036 170.109 54.0386 170.822 54.5246 171.899C55.0116 172.978 54.8606 174.225 54.1296 175.157C54.0846 175.215 54.0166 175.246 53.9476 175.246Z" fill="#4A3797"/>
<path d="M63.6886 166.174C63.5636 166.174 63.4606 166.076 63.4566 165.949C63.4356 165.344 63.2436 164.909 62.8666 164.618C62.1126 164.033 60.5776 164.011 58.1736 164.545C56.7186 164.861 55.3016 164.251 54.4766 162.931C53.4766 161.337 53.6746 159.246 54.9766 157.603C55.0586 157.502 55.2046 157.488 55.3036 157.565C55.4046 157.645 55.4206 157.791 55.3416 157.892C53.9076 159.698 54.1926 161.602 54.8696 162.684C55.5896 163.833 56.8156 164.373 58.0716 164.091C60.6536 163.515 62.2676 163.564 63.1516 164.249C63.6376 164.625 63.8966 165.191 63.9216 165.934C63.9266 166.061 63.8256 166.17 63.6976 166.174C63.6936 166.174 63.6916 166.174 63.6886 166.174Z" fill="#4A3797"/>
<path d="M68.0516 160.899C68.0106 160.899 67.9696 160.898 67.9306 160.896C66.8176 160.853 65.7746 160.192 64.9916 159.037C64.3626 158.108 64.0196 156.991 63.7176 156.007C63.2056 154.338 62.8556 153.412 61.8716 153.57C61.7386 153.581 61.6246 153.503 61.6036 153.378C61.5826 153.251 61.6686 153.131 61.7956 153.11C63.2416 152.882 63.6886 154.328 64.1616 155.869C64.4536 156.823 64.7866 157.904 65.3766 158.774C66.0736 159.804 66.9876 160.392 67.9486 160.43C68.8846 160.446 69.7976 159.993 70.5166 159.095C71.6836 157.637 72.9176 157.47 73.9096 157.336C74.2066 157.295 74.4876 157.258 74.7306 157.187C75.1526 157.065 75.4926 156.766 75.5776 156.444C75.6526 156.16 75.5416 155.864 75.2476 155.562C75.1576 155.471 75.1596 155.322 75.2516 155.234C75.3456 155.144 75.4926 155.149 75.5796 155.237C76.0976 155.768 76.1096 156.251 76.0266 156.562C75.9006 157.044 75.4416 157.465 74.8586 157.633C74.5836 157.713 74.2856 157.753 73.9706 157.796C73.0136 157.925 71.9296 158.072 70.8786 159.385C70.0966 160.366 69.0966 160.899 68.0516 160.899Z" fill="#4A3797"/>
<path d="M76.2116 326.284H50.7186L50.6896 323.805L50.5836 317.055L50.5466 314.395H59.2126C59.6776 315.517 60.0156 316.386 60.3806 317.055C61.3476 318.883 62.6086 319.407 67.7456 320.348C71.2806 320.981 73.3956 322.483 74.6326 323.804C75.8526 325.144 76.2116 326.284 76.2116 326.284Z" fill="#FFBFC6"/>
<path d="M76.2116 326.284H50.7186L50.6896 323.805L50.5836 317.055H60.3806C61.3476 318.883 62.6086 319.407 67.7456 320.348C71.2806 320.981 73.3956 322.483 74.6326 323.804C75.8526 325.144 76.2116 326.284 76.2116 326.284Z" fill="#9566DA"/>
<path d="M76.2116 326.284H50.7186L50.6896 323.805H74.6336C75.8526 325.144 76.2116 326.284 76.2116 326.284Z" fill="#D0D0FF"/>
<path d="M104.197 326.284H78.7036L78.6746 323.805L78.5686 317.055L78.5316 314.395H87.1976C87.6616 315.517 88.0006 316.386 88.3656 317.055C89.3326 318.883 90.5936 319.407 95.7306 320.348C99.2656 320.981 101.381 322.483 102.618 323.804C103.838 325.144 104.197 326.284 104.197 326.284Z" fill="#FFBFC6"/>
<path d="M104.197 326.284H78.7036L78.6746 323.805L78.5686 317.055H88.3656C89.3326 318.883 90.5936 319.407 95.7306 320.348C99.2656 320.981 101.381 322.483 102.618 323.804C103.838 325.144 104.197 326.284 104.197 326.284Z" fill="#C465C4"/>
<path d="M104.197 326.284H78.7036L78.6746 323.805H102.619C103.838 325.144 104.197 326.284 104.197 326.284Z" fill="#D0D0FF"/>
<path d="M50.9666 212.985L48.7426 219.361L55.1856 237.022L50.1126 245.097L39.9676 219.878C39.2396 218.069 39.1076 216.074 39.5916 214.185L40.4536 210.814L50.9666 212.985Z" fill="#FFBFC6"/>
<path d="M49.3476 246.547C49.3046 246.547 49.2626 246.536 49.2236 246.511C49.1146 246.444 49.0816 246.3 49.1496 246.191L54.9876 236.897C55.0566 236.788 55.2026 236.755 55.3086 236.824C55.4176 236.891 55.4506 237.035 55.3816 237.144L49.5436 246.438C49.5006 246.509 49.4246 246.547 49.3476 246.547Z" fill="#2E175A"/>
<path d="M52.0536 213.443C52.0386 213.443 52.0226 213.441 52.0066 213.438L40.4066 211.041C40.2816 211.015 40.2006 210.892 40.2256 210.767C40.2516 210.643 40.3686 210.56 40.5006 210.587L51.8816 212.938L54.4956 202.464C54.5266 202.34 54.6496 202.262 54.7766 202.295C54.9006 202.326 54.9776 202.451 54.9456 202.577L52.2786 213.267C52.2526 213.372 52.1576 213.443 52.0536 213.443Z" fill="#2E175A"/>
<path d="M82.3606 205.602C82.2736 205.602 82.1896 205.553 82.1506 205.469L79.0646 198.941C79.0096 198.825 79.0596 198.685 79.1756 198.63C79.2916 198.577 79.4306 198.624 79.4846 198.741L82.5706 205.269C82.6256 205.385 82.5756 205.525 82.4596 205.58C82.4286 205.595 82.3946 205.602 82.3606 205.602Z" fill="#2E175A"/>
<path d="M102.576 115.503H132.103C138.727 115.503 144.146 120.922 144.146 127.546V144.462C144.146 151.086 138.726 156.505 132.103 156.505H101.607L90.5327 168.645V156.505V152.674V127.546C90.5327 120.922 95.9517 115.503 102.576 115.503Z" fill="#FFBFC6"/>
<path d="M113.051 122.735C107.829 122.735 103.576 126.984 103.576 132.21C103.576 133.223 105.126 133.239 105.126 132.21C105.126 130.026 106.014 128.045 107.45 126.609C110.548 123.511 115.55 123.508 118.652 126.609C122.747 130.704 121.172 137.583 115.895 139.609C112.694 140.842 111.774 144.695 112.502 145.425C112.986 145.91 113.825 145.57 113.825 144.878C113.825 144.038 114.089 143.233 114.55 142.562C115.011 141.891 115.668 141.357 116.451 141.056C126.237 137.293 123.463 122.735 113.051 122.735Z" fill="#40473F"/>
<path d="M112.125 149.152C112.125 150.383 113.98 150.363 113.98 149.152C113.979 147.942 112.125 147.922 112.125 149.152Z" fill="#40473F"/>
<path d="M90 169.485V127.418C90 120.571 95.571 115 102.418 115H131.944C138.792 115 144.362 120.571 144.362 127.418V144.335C144.362 151.182 138.791 156.753 131.944 156.753H101.614L90 169.485ZM102.418 115.749C95.984 115.749 90.75 120.983 90.75 127.417V167.549L101.283 156.002H131.944C138.378 156.002 143.612 150.768 143.612 144.334V127.417C143.612 120.983 138.378 115.749 131.944 115.749H102.418Z" fill="#C465C4"/>
<path d="M53.7547 337.552L30.3447 348.455L27.5657 342.149L44.9897 324.725L53.7547 337.552Z" fill="#2E175A"/>
<path d="M51.3136 323.389L69.1736 317.612C73.4206 316.238 78.0276 318.223 79.9476 322.252C82.0906 326.75 80.1236 332.132 75.5836 334.187L49.1486 346.157L43.2966 337.338L55.6426 331.726L51.3136 323.389Z" fill="#2E175A"/>
<path d="M48.7086 272.187C52.3826 263.529 37.0436 256.367 32.6606 261.818C27.9576 262.513 28.4386 274.805 34.8516 278.333L48.7086 272.187Z" fill="#2E175A"/>
<path d="M14.6687 335.949C11.6267 335.949 9.32865 333.192 9.87565 330.2L16.5757 293.583C17.7507 287.159 23.7607 283.112 29.8607 283.931C30.6877 282.875 32.1317 282.525 33.3497 283.086L41.9097 287.028C42.8717 287.471 43.5367 288.38 43.6677 289.43L46.0937 290.487C48.1697 291.391 49.8027 293.081 50.6357 295.187L59.0627 316.494L29.9887 335.949H14.6687Z" fill="#F22D5C"/>
<path d="M41.3677 293.613C41.8007 293.613 42.2317 293.561 42.6557 293.448C42.7677 293.417 42.8337 293.302 42.8037 293.191C42.7737 293.08 42.6537 293.014 42.5477 293.042C38.9737 293.999 34.8527 290.342 32.1907 286.604C32.1247 286.509 31.9927 286.488 31.8987 286.555C31.8037 286.622 31.7817 286.753 31.8487 286.846C34.2847 290.267 37.9317 293.613 41.3677 293.613Z" fill="#2E175A"/>
<path d="M51.3137 323.389C51.3137 323.389 70.5547 318.608 75.8997 314.184C77.5967 312.779 78.5717 311.271 79.1117 309.867C80.0497 307.429 77.5817 305.058 75.1617 306.041L44.8197 318.365L51.3137 323.389Z" fill="#F22D5C"/>
<path d="M20.8496 310.161C20.8496 310.161 52.5436 310.161 59.0646 310.161C65.5846 310.161 66.2266 304.308 72.4796 304.308L71.5576 306.072H79.0136C79.0136 306.072 81.0576 305.912 81.0576 306.914C81.0576 307.916 71.4776 308.918 71.4776 308.918C71.4776 308.918 78.3316 308.798 78.4526 309.84C78.5726 310.882 75.8076 311.363 75.8076 311.363C75.8076 311.363 76.6496 312.606 73.1616 313.928C69.6746 315.251 66.7076 316.694 61.4976 316.694L31.9946 322.266C31.9926 322.267 24.6976 318.899 20.8496 310.161Z" fill="#FFBFC6"/>
<path d="M68.1097 312.816C68.1217 312.816 68.1327 312.815 68.1447 312.813L74.9597 311.65C75.0737 311.63 75.1507 311.522 75.1307 311.408C75.1107 311.295 75.0127 311.22 74.8897 311.238L68.0747 312.401C67.9607 312.42 67.8847 312.528 67.9037 312.643C67.9207 312.744 68.0087 312.816 68.1097 312.816Z" fill="#F22D5C"/>
<path d="M64.1417 333.35C64.1767 333.35 64.2117 333.342 64.2437 333.324L72.4747 328.702C72.5757 328.645 72.6107 328.517 72.5547 328.416C72.4987 328.315 72.3687 328.28 72.2707 328.336L64.0396 332.958C63.9376 333.015 63.9027 333.143 63.9597 333.244C63.9977 333.311 64.0687 333.35 64.1417 333.35Z" fill="#F22D5C"/>
<path d="M58.6417 327.847C58.6767 327.847 58.7117 327.839 58.7447 327.819L69.1617 321.913C69.2627 321.856 69.2977 321.728 69.2407 321.628C69.1837 321.525 69.0577 321.489 68.9557 321.55L58.5387 327.455C58.4377 327.512 58.4027 327.64 58.4597 327.74C58.4977 327.809 58.5687 327.847 58.6417 327.847Z" fill="#F22D5C"/>
<path d="M27.5257 301.88C30.9867 301.88 33.8657 300.432 36.6937 299.01C41.0007 296.845 45.0697 294.794 50.8427 298.393C50.9407 298.454 51.0697 298.424 51.1307 298.326C51.1927 298.228 51.1617 298.099 51.0637 298.037C45.0917 294.318 40.9217 296.416 36.5047 298.636C31.3407 301.236 25.9977 303.917 17.1257 297.326C17.0317 297.259 16.9027 297.279 16.8327 297.37C16.7637 297.462 16.7837 297.594 16.8757 297.663C21.0917 300.792 24.5277 301.88 27.5257 301.88Z" fill="#FFBFC6"/>
<path d="M27.2276 308.803C31.1096 308.803 34.3386 307.357 37.5106 305.938C42.3656 303.766 46.9506 301.714 53.4566 305.323C53.5576 305.379 53.6836 305.341 53.7416 305.241C53.7976 305.14 53.7616 305.012 53.6596 304.957C46.9696 301.251 42.2906 303.34 37.3396 305.557C31.5246 308.159 25.5106 310.849 15.5126 304.244C15.4186 304.183 15.2876 304.206 15.2226 304.303C15.1586 304.399 15.1856 304.53 15.2826 304.594C20.0116 307.718 23.8646 308.803 27.2276 308.803Z" fill="#FFBFC6"/>
<path d="M25.6287 291.418C26.6527 291.418 27.5877 291.182 28.6187 290.926C29.9057 290.602 31.3717 290.244 33.3527 290.275C33.4757 290.283 33.5627 290.185 33.5667 290.069C33.5687 289.955 33.4767 289.858 33.3617 289.857C31.3097 289.823 29.8307 290.191 28.5177 290.519C26.2367 291.093 24.4347 291.541 20.9617 289.379C20.8637 289.318 20.7357 289.348 20.6737 289.446C20.6127 289.544 20.6427 289.673 20.7407 289.735C22.7927 291.014 24.2867 291.418 25.6287 291.418Z" fill="#FFBFC6"/>
<path d="M22.3137 316.733C22.6297 316.733 22.9477 316.723 23.2667 316.704C23.3817 316.696 23.4697 316.596 23.4627 316.482C23.4557 316.368 23.3377 316.281 23.2407 316.286C19.4697 316.523 15.9597 315.3 14.2787 313.159C14.2077 313.069 14.0757 313.054 13.9847 313.123C13.8937 313.195 13.8777 313.326 13.9497 313.417C15.5687 315.477 18.7837 316.733 22.3137 316.733Z" fill="#FFBFC6"/>
<path d="M20.1426 323.75C20.6776 323.75 21.2226 323.701 21.7716 323.595C21.8856 323.572 21.9586 323.463 21.9366 323.348C21.9146 323.235 21.8036 323.165 21.6916 323.183C17.6786 323.981 13.9006 321.471 12.9986 320.295C12.9296 320.2 12.7986 320.188 12.7056 320.256C12.6136 320.328 12.5966 320.459 12.6676 320.55C13.4906 321.622 16.5936 323.75 20.1426 323.75Z" fill="#FFBFC6"/>
<path d="M34.4297 275.921C34.1677 277.983 33.4137 281.496 32.9997 283.349C32.8017 284.239 32.9617 285.171 33.4247 285.957C34.9777 288.592 37.2067 290.203 39.0797 291.161C40.5747 291.926 42.3007 290.659 42.0227 289.002L41.3787 285.165L40.9937 282.82C42.2327 284.428 46.7207 285.7 48.5297 280.358C50.3547 275.016 48.5797 267.112 43.2377 267.112C37.8957 267.112 38.3817 271.918 38.3817 271.918C38.3817 271.918 35.0657 267.38 33.1897 269.506C30.2767 272.84 34.4297 275.921 34.4297 275.921Z" fill="#FFBFC6"/>
<path d="M41.3797 285.165L40.9947 282.82C39.6547 281.011 39.1357 279.772 39.1357 279.772C39.1357 279.772 37.9127 283.474 41.3797 285.165Z" fill="#2E175A"/>
<path d="M36.7767 272.397C36.8507 272.397 36.9217 272.358 36.9597 272.289C37.0157 272.187 36.9797 272.06 36.8777 272.004L34.3657 270.614C34.2647 270.558 34.1387 270.594 34.0807 270.696C34.0247 270.797 34.0607 270.925 34.1627 270.98L36.6747 272.37C36.7077 272.388 36.7427 272.397 36.7767 272.397Z" fill="#F22D5C"/>
<path d="M45.1677 278.917C45.2707 278.917 45.3607 278.84 45.3757 278.735C45.3907 278.62 45.3107 278.516 45.1967 278.499C43.6617 278.291 42.3437 277.335 41.6687 275.943C41.6197 275.84 41.4927 275.794 41.3887 275.847C41.2847 275.898 41.2417 276.022 41.2917 276.127C42.0277 277.645 43.4657 278.688 45.1397 278.915C45.1497 278.917 45.1587 278.917 45.1677 278.917Z" fill="#F22D5C"/>
<path d="M46.9846 270.954C47.0266 270.954 47.0686 270.941 47.1056 270.916C47.1996 270.849 47.2226 270.718 47.1556 270.623C46.3366 269.46 44.8466 269.033 43.5366 269.588C43.4296 269.632 43.3796 269.755 43.4246 269.863C43.4696 269.97 43.5926 270.02 43.6986 269.974C44.8296 269.496 46.1096 269.868 46.8136 270.865C46.8546 270.923 46.9196 270.954 46.9846 270.954Z" fill="#2E175A"/>
<path d="M48.1607 272.722C48.8707 273.343 49.6627 274.439 50.2277 275.294C50.6497 275.932 50.3077 276.805 49.5577 276.96C48.9477 277.086 48.2067 277.163 47.4657 277.051L48.1607 272.722Z" fill="#FFBFC6"/>
<path d="M42.2837 271.165C42.3677 272.153 42.8867 273.024 43.6567 273.593C43.7737 273.693 43.9077 273.777 44.0417 273.844C45.0467 274.38 46.2527 274.38 47.2567 273.844C47.0727 272.755 46.4027 271.801 45.4307 271.282C45.3637 271.248 45.3137 271.215 45.2467 271.198C44.3097 270.746 43.2217 270.746 42.2837 271.165Z" fill="white"/>
<path d="M43.6566 273.593C43.7736 273.693 43.9076 273.777 44.0416 273.844C45.0466 274.38 46.2526 274.38 47.2566 273.844C47.0726 272.755 46.4026 271.801 45.4306 271.282C45.3636 271.248 45.3136 271.215 45.2466 271.198C44.3606 271.634 43.7236 272.538 43.6566 273.593Z" fill="#2E175A"/>
<path d="M30.6297 261.708C30.6987 261.708 30.7657 261.674 30.8057 261.612C30.8137 261.6 31.6387 260.354 33.3827 260.127C33.4967 260.112 33.5787 260.008 33.5637 259.891C33.5477 259.777 33.4457 259.683 33.3287 259.711C31.3837 259.964 30.4907 261.328 30.4527 261.386C30.3907 261.482 30.4187 261.612 30.5167 261.676C30.5517 261.696 30.5907 261.708 30.6297 261.708Z" fill="#2E175A"/>
<path d="M26.5146 257.035C26.5146 258.762 27.9146 260.162 29.6416 260.162C31.3686 260.162 32.7686 258.762 32.7686 257.035C32.7686 255.308 31.3686 253.908 29.6416 253.908C27.9146 253.908 26.5146 255.308 26.5146 257.035Z" fill="#2E175A"/>
<path d="M58.2097 345.352L59.8177 346.826L66.6337 353.056H89.8777C89.8777 353.056 86.6957 348.216 74.9227 345.352C71.0547 344.414 67.7547 343.225 65.1087 341.216C64.5897 340.831 64.1037 340.429 63.6517 339.977L58.2097 345.352Z" fill="#FFBFC6"/>
<path d="M59.8176 346.826L61.0236 347.931L66.6336 353.056H89.8776C89.8776 353.056 86.6956 348.216 74.9226 345.352C71.9756 344.632 69.3456 343.778 67.1016 342.505C66.3986 342.12 65.7286 341.684 65.1086 341.215C63.3346 343.293 61.3416 345.336 59.8176 346.826Z" fill="#F22D5C"/>
<path d="M61.0237 347.931L63.8207 350.493L66.6347 353.055H89.8787C89.8787 353.055 89.1417 351.966 87.1157 350.493C84.8887 348.885 81.0867 346.859 74.9247 345.352C71.9777 344.632 69.3477 343.778 67.1037 342.505C65.8297 344.046 63.5017 346.575 61.0237 347.931Z" fill="#C465C4"/>
<path d="M63.8197 350.494L66.6337 353.056H89.8777C89.8777 353.056 89.1407 351.967 87.1147 350.494H63.8197Z" fill="#2E175A"/>
<path d="M75.1037 348.031C75.1797 348.031 75.2537 347.988 75.2897 347.916L75.9847 346.544C76.0367 346.441 75.9957 346.315 75.8927 346.263C75.7897 346.209 75.6627 346.253 75.6117 346.354L74.9167 347.726C74.8647 347.829 74.9047 347.955 75.0077 348.007C75.0387 348.025 75.0717 348.031 75.1037 348.031Z" fill="#D0D0FF"/>
<path d="M72.9176 347.411C72.9936 347.411 73.0676 347.368 73.1036 347.296L73.7976 345.924C73.8496 345.821 73.8086 345.695 73.7056 345.643C73.6026 345.589 73.4756 345.633 73.4246 345.734L72.7306 347.106C72.6786 347.209 72.7186 347.335 72.8216 347.387C72.8526 347.405 72.8856 347.411 72.9176 347.411Z" fill="#D0D0FF"/>
<path d="M70.8516 346.94C70.9276 346.94 71.0016 346.897 71.0376 346.825L71.7326 345.451C71.7846 345.348 71.7436 345.222 71.6416 345.17C71.5386 345.116 71.4126 345.16 71.3606 345.261L70.6656 346.635C70.6136 346.738 70.6546 346.864 70.7576 346.916C70.7876 346.934 70.8206 346.94 70.8516 346.94Z" fill="#D0D0FF"/>
<path d="M79.4267 350.134C79.5407 350.134 79.6337 350.042 79.6357 349.93C79.6507 349.181 79.9847 348.471 80.5527 347.981C80.6397 347.906 80.6497 347.773 80.5747 347.685C80.4977 347.6 80.3667 347.589 80.2797 347.664C79.6217 348.232 79.2347 349.054 79.2177 349.921C79.2157 350.037 79.3067 350.134 79.4227 350.135C79.4227 350.135 79.4247 350.134 79.4267 350.134Z" fill="#D0D0FF"/>
<path d="M48.2177 277.316C48.6567 277.316 49.1197 277.265 49.6007 277.164C50.0197 277.079 50.3557 276.801 50.5207 276.402C50.6877 276 50.6437 275.542 50.4027 275.177C49.8467 274.34 49.0317 273.206 48.2987 272.565C48.2117 272.486 48.0797 272.496 48.0027 272.584C47.9267 272.671 47.9357 272.803 48.0227 272.879C48.7207 273.491 49.5127 274.591 50.0537 275.409C50.2167 275.656 50.2477 275.968 50.1337 276.242C50.0227 276.51 49.7977 276.697 49.5167 276.755C48.7877 276.907 48.1097 276.938 47.4977 276.843C47.3777 276.827 47.2767 276.903 47.2587 277.02C47.2417 277.135 47.3197 277.241 47.4337 277.259C47.6857 277.296 47.9477 277.316 48.2177 277.316Z" fill="#2E175A"/>
<path d="M66.1457 337.499C66.1457 337.499 57.0387 325.988 49.6017 318.096C45.6067 313.857 39.2007 312.955 34.1877 315.922C27.7537 319.731 20.8437 326.091 12.6957 335.004C8.70568 339.369 9.27669 346.216 13.9117 349.887C18.2287 353.306 24.4777 352.689 28.0427 348.491L42.4157 331.565L58.2087 345.354L66.1457 337.499Z" fill="#2E175A"/>
<path d="M61.4956 336.158C61.5466 336.158 61.5966 336.14 61.6366 336.102C61.7216 336.023 61.7276 335.893 61.6496 335.806C61.5346 335.682 50.1636 323.339 43.3976 319.597C43.2976 319.54 43.1696 319.577 43.1126 319.679C43.0576 319.78 43.0936 319.908 43.1946 319.963C49.9016 323.672 61.2266 335.966 61.3406 336.09C61.3826 336.135 61.4396 336.158 61.4956 336.158Z" fill="#F22D5C"/>
<path d="M43.2967 330.653C43.3677 330.653 43.4387 330.617 43.4767 330.55L44.9997 327.971C45.0587 327.871 45.0257 327.744 44.9257 327.685C44.8237 327.629 44.6967 327.657 44.6397 327.758L43.1167 330.337C43.0577 330.437 43.0907 330.565 43.1907 330.623C43.2247 330.643 43.2607 330.653 43.2967 330.653Z" fill="#F22D5C"/>
<path d="M41.7736 330.173C41.7886 330.173 41.8036 330.171 41.8196 330.168C41.9326 330.143 42.0036 330.031 41.9776 329.918L41.3366 327.031C41.3106 326.92 41.2006 326.853 41.0866 326.872C40.9736 326.897 40.9026 327.009 40.9276 327.122L41.5686 330.009C41.5916 330.105 41.6766 330.173 41.7736 330.173Z" fill="#F22D5C"/>
<path d="M26.5757 351.816C28.4007 356.254 33.0897 354.144 37.9297 350.878C40.5257 349.136 43.1717 347.06 45.4317 345.486C46.2527 344.916 47.0227 344.414 47.7257 344.012L43.9247 338.268C43.3057 338.703 42.6187 339.105 41.8976 339.474C38.7656 341.115 34.8477 342.338 31.6997 343.828C27.7317 345.671 24.9677 347.915 26.5757 351.816Z" fill="#FFBFC6"/>
<path d="M26.5756 351.816C28.4006 356.254 33.0896 354.144 37.9296 350.878C39.6876 349.706 41.4636 348.366 43.1216 347.143C43.9256 346.557 44.6956 346.004 45.4326 345.485L41.8986 339.473C41.1786 339.858 40.4086 340.21 39.6216 340.545C37.0086 341.684 34.1286 342.672 31.7006 343.827C27.7316 345.671 24.9676 347.915 26.5756 351.816Z" fill="#F22D5C"/>
<path d="M26.5756 351.816C28.4006 356.254 33.0896 354.144 37.9296 350.878C39.6876 349.706 41.4636 348.366 43.1216 347.143C41.4806 345.251 40.2246 342.169 39.6216 340.545C37.0086 341.684 34.1286 342.672 31.7006 343.827C27.7316 345.671 24.9676 347.915 26.5756 351.816Z" fill="#C465C4"/>
<path d="M26.5757 351.816C28.4007 356.254 33.0897 354.144 37.9297 350.878C33.0397 353.34 28.7026 353.943 27.4966 350.928C26.4746 348.383 28.1997 346.122 31.6997 343.828C27.7317 345.671 24.9677 347.915 26.5757 351.816Z" fill="#2E175A"/>
<path d="M32.4337 352.304C32.5307 352.304 32.6187 352.235 32.6387 352.137C33.1327 349.744 32.2927 347.264 30.4477 345.661C30.3607 345.586 30.2287 345.594 30.1527 345.682C30.0767 345.769 30.0857 345.901 30.1727 345.978C31.9037 347.479 32.6907 349.808 32.2277 352.052C32.2047 352.165 32.2777 352.276 32.3907 352.299C32.4057 352.303 32.4197 352.304 32.4337 352.304Z" fill="#D0D0FF"/>
<path d="M34.9996 347.655C35.0286 347.655 35.0596 347.648 35.0876 347.635C35.1926 347.586 35.2386 347.462 35.1886 347.357L33.8656 344.505C33.8166 344.4 33.6916 344.356 33.5876 344.404C33.4826 344.453 33.4376 344.577 33.4866 344.682L34.8096 347.534C34.8456 347.611 34.9216 347.655 34.9996 347.655Z" fill="#D0D0FF"/>
<path d="M36.9177 346.89C36.9467 346.89 36.9777 346.883 37.0057 346.87C37.1107 346.821 37.1557 346.697 37.1067 346.592L35.7847 343.74C35.7357 343.635 35.6107 343.593 35.5067 343.639C35.4017 343.688 35.3567 343.812 35.4057 343.917L36.7277 346.769C36.7637 346.846 36.8397 346.89 36.9177 346.89Z" fill="#D0D0FF"/>
<path d="M38.9966 345.993C39.0256 345.993 39.0566 345.986 39.0846 345.973C39.1896 345.924 39.2346 345.8 39.1856 345.695L37.8626 342.843C37.8136 342.739 37.6886 342.696 37.5846 342.742C37.4796 342.791 37.4336 342.915 37.4826 343.02L38.8056 345.872C38.8416 345.949 38.9186 345.993 38.9966 345.993Z" fill="#D0D0FF"/>
<path d="M20.8496 310.371H33.3566C33.4716 310.371 33.5666 310.278 33.5666 310.162V295.383C33.5666 295.267 33.4726 295.174 33.3566 295.174C33.2416 295.174 33.1476 295.267 33.1476 295.383V309.953H20.8496C20.7346 309.953 20.6406 310.046 20.6406 310.162C20.6396 310.278 20.7346 310.371 20.8496 310.371Z" fill="#2E175A"/>
<path d="M49.9247 309.969C50.0397 309.969 50.1337 309.876 50.1337 309.76V302.772C50.1337 302.656 50.0397 302.563 49.9247 302.563C49.8097 302.563 49.7157 302.656 49.7157 302.772V309.76C49.7147 309.875 49.8087 309.969 49.9247 309.969Z" fill="#2E175A"/>
<path d="M64.4056 338.937C64.4606 338.937 64.5146 338.916 64.5556 338.873L66.1596 337.231C66.2346 337.154 66.2396 337.033 66.1706 336.951L53.2236 321.438C53.1486 321.351 53.0156 321.34 52.9286 321.412C52.8396 321.485 52.8277 321.618 52.9017 321.706L65.7286 337.074L64.2576 338.582C64.1766 338.664 64.1786 338.796 64.2606 338.878C64.3006 338.917 64.3526 338.937 64.4056 338.937Z" fill="#F22D5C"/>
<path d="M55.0257 342.625C55.0847 342.625 55.1427 342.6 55.1847 342.551C55.2597 342.464 55.2497 342.332 55.1627 342.257L42.5517 331.407C42.5097 331.369 42.4547 331.355 42.3987 331.356C42.3427 331.361 42.2917 331.387 42.2557 331.43L33.1417 342.199C33.0667 342.288 33.0777 342.42 33.1667 342.495C33.2547 342.569 33.3867 342.56 33.4607 342.47L42.4387 331.861L54.8897 342.573C54.9287 342.608 54.9777 342.625 55.0257 342.625Z" fill="#F22D5C"/>
<path d="M83.8506 295.383L78.2626 306.072H71.5566L77.1446 295.383H83.8506Z" fill="#2E175A"/>
<path d="M51.1506 318.895C51.1636 318.895 51.1766 318.894 51.1896 318.892L61.5346 316.902C61.5586 316.9 67.9566 317.036 75.1926 313.206C75.2946 313.152 75.3336 313.026 75.2796 312.923C75.2246 312.823 75.0966 312.784 74.9966 312.837C67.8656 316.611 61.5706 316.489 61.5016 316.487L51.1116 318.48C50.9976 318.503 50.9236 318.612 50.9456 318.725C50.9646 318.824 51.0516 318.895 51.1506 318.895Z" fill="white"/>
<path d="M61.8667 347.622C61.9047 347.622 61.9417 347.612 61.9767 347.591C62.8007 347.084 66.2887 344.155 66.9877 343.063C67.0497 342.965 67.0207 342.835 66.9237 342.773C66.8277 342.714 66.6977 342.739 66.6347 342.837C65.9777 343.864 62.5417 346.752 61.7577 347.235C61.6597 347.295 61.6287 347.425 61.6887 347.523C61.7277 347.586 61.7967 347.622 61.8667 347.622Z" fill="#D0D0FF"/>
<path d="M42.6396 346.795C42.6876 346.795 42.7366 346.779 42.7766 346.744C42.8646 346.669 42.8736 346.536 42.7986 346.45C42.3296 345.902 40.2676 342.384 40.0406 341.097C40.0206 340.984 39.9206 340.911 39.7986 340.927C39.6836 340.947 39.6076 341.056 39.6286 341.169C39.8766 342.58 41.9686 346.123 42.4816 346.721C42.5216 346.77 42.5806 346.795 42.6396 346.795Z" fill="#D0D0FF"/>
<path d="M207.957 22.6782C207.872 22.6322 207.818 22.5432 207.818 22.4462V9.47916C207.818 7.02916 205.824 5.03516 203.374 5.03516H186.116C183.665 5.03516 181.671 7.02916 181.671 9.47916V22.0892C181.671 24.5392 183.665 26.5332 186.116 26.5332H215.116L207.957 22.6782Z" fill="#FFBFC6"/>
<path d="M181.143 22.0892V9.4792C181.143 6.7372 183.374 4.5072 186.116 4.5072H203.374C206.116 4.5072 208.346 6.7372 208.346 9.4792V22.2882L216.288 26.5652C216.395 26.6222 216.449 26.7442 216.419 26.8622C216.39 26.9792 216.284 27.0612 216.163 27.0612H186.116C183.374 27.0612 181.143 24.8312 181.143 22.0892ZM207.957 22.6782C207.872 22.6322 207.818 22.5432 207.818 22.4462V9.4792C207.818 7.0292 205.824 5.0352 203.374 5.0352H186.116C183.665 5.0352 181.671 7.0292 181.671 9.4792V22.0892C181.671 24.5392 183.665 26.5332 186.116 26.5332H215.116L207.957 22.6782Z" fill="#2E175A"/>
<path d="M194.772 9.72925C192.411 9.72925 190.489 11.6502 190.489 14.0122C190.489 14.4702 191.19 14.4772 191.19 14.0122C191.19 13.0252 191.592 12.1292 192.241 11.4802C193.641 10.0802 195.903 10.0782 197.305 11.4802C199.156 13.3312 198.444 16.4413 196.059 17.3573C194.612 17.9143 194.196 19.6562 194.525 19.9862C194.744 20.2052 195.123 20.0522 195.123 19.7392C195.123 19.3592 195.242 18.9952 195.451 18.6922C195.659 18.3892 195.956 18.1472 196.31 18.0112C200.733 16.3112 199.479 9.72925 194.772 9.72925Z" fill="#2E175A"/>
<path d="M194.353 21.6722C194.353 22.2292 195.191 22.2192 195.191 21.6722C195.192 21.1242 194.353 21.1152 194.353 21.6722Z" fill="#2E175A"/>
<path d="M229.786 371.842C233.484 363.887 241.46 358.799 250.233 358.799C259.006 358.799 266.982 363.887 270.68 371.842H229.786Z" fill="#C465C4"/>
<path d="M247.517 362.819H257.124L273.603 330.903H263.997L247.517 362.819Z" fill="#C465C4"/>
<path d="M226.573 346.861H282.478L298.957 314.945H243.052L226.573 346.861Z" fill="#2E175A"/>
<path d="M280.298 345.869C280.251 345.869 280.204 345.857 280.161 345.836C280.013 345.759 279.956 345.578 280.032 345.43L295.177 316.098C295.252 315.95 295.436 315.897 295.58 315.969C295.728 316.047 295.785 316.227 295.709 316.375L280.564 345.707C280.512 345.81 280.407 345.869 280.298 345.869Z" fill="white"/>
<path d="M255.6 318.816H278.022C279.62 318.816 280.243 320.123 279.407 321.721L278.088 324.24C277.252 325.838 275.261 327.145 273.663 327.145H251.007L246.804 330.073L248.336 327.145L248.819 326.221L251.174 321.721C252.011 320.123 254.002 318.816 255.6 318.816Z" fill="white"/>
<path d="M271.14 331.969H248.718C247.12 331.969 245.129 333.276 244.293 334.874L242.975 337.394C242.139 338.992 242.762 340.299 244.36 340.299H267.016L268.155 343.227L269.687 340.299L270.17 339.375L272.525 334.875C273.36 333.276 272.737 331.969 271.14 331.969Z" fill="white"/>
<path d="M302.758 122.861C297.897 122.861 293.943 118.907 293.943 114.046C293.943 109.185 297.897 105.231 302.758 105.231C307.618 105.231 311.573 109.185 311.573 114.046C311.573 118.907 307.618 122.861 302.758 122.861ZM302.758 105.993C298.317 105.993 294.704 109.606 294.704 114.047C294.704 118.487 298.317 122.1 302.758 122.1C307.198 122.1 310.812 118.487 310.812 114.047C310.812 109.606 307.198 105.993 302.758 105.993Z" fill="#D0D0FF"/>
<path d="M46.5936 101.857C41.7326 101.857 37.7776 97.9032 37.7776 93.0422C37.7776 88.1822 41.7316 84.2272 46.5936 84.2272C51.4536 84.2272 55.4086 88.1812 55.4086 93.0422C55.4076 97.9022 51.4536 101.857 46.5936 101.857ZM46.5936 84.9882C42.1526 84.9882 38.5396 88.6012 38.5396 93.0422C38.5396 97.4822 42.1526 101.096 46.5936 101.096C51.0336 101.096 54.6466 97.4832 54.6466 93.0422C54.6466 88.6012 51.0336 84.9882 46.5936 84.9882Z" fill="#D0D0FF"/>
<path d="M318.447 129.468C316.615 129.468 315.125 127.978 315.125 126.146C315.125 124.314 316.615 122.824 318.447 122.824C320.279 122.824 321.769 124.314 321.769 126.146C321.769 127.978 320.278 129.468 318.447 129.468ZM318.447 123.417C316.942 123.417 315.717 124.641 315.717 126.147C315.717 127.652 316.941 128.877 318.447 128.877C319.952 128.877 321.177 127.653 321.177 126.147C321.176 124.641 319.952 123.417 318.447 123.417Z" fill="#D0D0FF"/>
<path d="M19.9436 197.744C18.1116 197.744 16.6216 196.254 16.6216 194.422C16.6216 192.591 18.1116 191.1 19.9436 191.1C21.7756 191.1 23.2656 192.59 23.2656 194.422C23.2656 196.253 21.7756 197.744 19.9436 197.744ZM19.9436 191.692C18.4386 191.692 17.2136 192.916 17.2136 194.422C17.2136 195.928 18.4376 197.152 19.9436 197.152C21.4486 197.152 22.6736 195.928 22.6736 194.422C22.6736 192.916 21.4486 191.692 19.9436 191.692Z" fill="#D0D0FF"/>
<path d="M132.729 25.5982C130.898 25.5982 129.407 24.1082 129.407 22.2762C129.407 20.4442 130.897 18.9542 132.729 18.9542C134.561 18.9542 136.051 20.4442 136.051 22.2762C136.051 24.1072 134.561 25.5982 132.729 25.5982ZM132.729 19.5462C131.224 19.5462 129.999 20.7702 129.999 22.2762C129.999 23.7812 131.223 25.0062 132.729 25.0062C134.234 25.0062 135.459 23.7822 135.459 22.2762C135.459 20.7702 134.235 19.5462 132.729 19.5462Z" fill="#D0D0FF"/>
<path d="M55.0646 71.8622C54.4406 67.5502 50.7306 64.2382 46.2456 64.2382C45.7936 64.2382 45.3536 64.2822 44.9196 64.3472C44.9266 64.1842 44.9446 64.0242 44.9446 63.8602C44.9446 57.5502 39.8286 52.4342 33.5186 52.4342C28.5036 52.4342 24.2536 55.6692 22.7156 60.1632C21.5946 57.4032 18.8916 55.4552 15.7296 55.4552C11.5646 55.4552 8.18863 58.8312 8.18863 62.9962C8.18863 63.9672 8.37863 64.8912 8.71263 65.7432C8.47963 65.7212 8.24463 65.7072 8.00563 65.7072C4.31463 65.7072 1.24463 68.3592 0.593628 71.8622H55.0646Z" fill="#FFDEFF"/>
<path d="M289.088 53.1942C289.673 50.5302 293.149 48.4832 297.35 48.4832C297.773 48.4832 298.186 48.5102 298.592 48.5512C298.586 48.4502 303.362 41.1902 309.274 41.1902C313.973 41.1902 316.374 42.6312 319.395 45.9662C320.445 44.2612 322.978 43.0572 325.94 43.0572C329.842 43.0572 332.828 48.8882 332.515 49.4142C332.733 49.4012 332.954 49.3922 333.177 49.3922C336.635 49.3922 339.511 51.0312 340.121 53.1952L289.088 53.1942Z" fill="#FFDEFF"/>
<path d="M261.603 46.4672C262.188 43.8032 265.664 41.7562 269.865 41.7562C270.288 41.7562 270.701 41.7832 271.107 41.8232C271.101 41.7222 275.877 34.4622 281.789 34.4622C286.488 34.4622 288.889 35.9032 291.911 39.2382C292.961 37.5332 295.494 36.3292 298.456 36.3292C302.358 36.3292 305.344 42.1602 305.031 42.6862C305.249 42.6732 305.47 42.6642 305.694 42.6642C309.152 42.6642 312.028 44.3032 312.638 46.4672H261.603Z" fill="#FFDEFF"/>
<path d="M286.701 129H257.792C251.307 129 246 134.306 246 140.792V157.355C246 163.84 251.306 169.146 257.792 169.146H287.65L298.492 181.033V169.146V165.395V140.792C298.492 134.306 293.186 129 286.701 129Z" fill="#FFBFC6"/>
<path d="M273.361 137.956C268.248 137.956 264.084 142.116 264.084 147.233C264.084 148.225 265.601 148.24 265.601 147.233C265.601 145.095 266.471 143.155 267.876 141.749C270.909 138.716 275.807 138.713 278.844 141.749C282.853 145.759 281.311 152.494 276.145 154.478C273.01 155.685 272.11 159.457 272.823 160.173C273.297 160.648 274.119 160.315 274.119 159.637C274.119 158.815 274.377 158.026 274.829 157.369C275.28 156.712 275.923 156.189 276.69 155.894C286.271 152.21 283.555 137.956 273.361 137.956Z" fill="#40473F"/>
<path d="M272.454 163.821C272.454 165.026 274.27 165.006 274.27 163.821C274.27 162.636 272.454 162.616 272.454 163.821Z" fill="#40473F"/>
<path d="M299.181 182.151L287.798 169.672H258.105C251.397 169.672 245.939 164.214 245.939 157.505V140.942C245.939 134.234 251.397 128.775 258.105 128.775H287.015C293.723 128.775 299.181 134.233 299.181 140.942V182.151ZM258.105 129.526C251.81 129.526 246.689 134.648 246.689 140.943V157.506C246.689 163.801 251.81 168.923 258.105 168.923H288.128L288.24 169.045L298.43 180.217V140.944C298.43 134.649 293.309 129.527 287.014 129.527L258.105 129.526Z" fill="#C465C4"/>
</svg>
