<svg width="375" height="392" viewBox="0 0 375 392" fill="none" xmlns="http://www.w3.org/2000/svg">
<path d="M147.895 217.954C159.12 155.244 152.004 90.6262 127.401 31.8642C109.311 93.4362 113.864 159.449 140.238 217.954H147.895Z" fill="white"/>
<path d="M147.894 218.329H140.237C140.09 218.329 139.956 218.242 139.895 218.108C113.501 159.559 108.937 93.3792 127.04 31.7582C127.085 31.6062 127.221 31.4982 127.379 31.4892C127.532 31.4712 127.684 31.5722 127.745 31.7182C152.431 90.6772 159.525 155.099 148.263 218.019C148.231 218.199 148.076 218.329 147.894 218.329ZM140.479 217.579H147.58C158.676 155.248 151.721 91.4512 127.462 32.9892C109.782 94.0672 114.395 159.573 140.479 217.579Z" fill="#D0D0FF"/>
<path d="M110.971 356.421C86.0606 314.55 73.0515 266.674 73.3425 217.955H110.971H142.269H158.445H189.743H227.37C227.662 266.674 214.653 314.55 189.743 356.421H110.971Z" fill="white"/>
<path d="M189.742 356.796H110.971C110.839 356.796 110.716 356.727 110.649 356.612C85.7056 314.685 72.6756 266.737 72.9676 217.952C72.9686 217.746 73.1366 217.579 73.3426 217.579H227.37C227.576 217.579 227.744 217.746 227.745 217.952C228.037 266.737 215.008 314.685 190.065 356.612C189.997 356.726 189.874 356.796 189.742 356.796ZM111.184 356.046H189.529C214.267 314.387 227.219 266.778 226.997 218.329H73.7156C73.4936 266.778 86.4456 314.387 111.184 356.046Z" fill="#D0D0FF"/>
<path d="M155.983 217.954C198.81 165.925 253.584 125.024 315.635 98.7422C272.819 147.403 221.449 187.808 164.071 217.954H155.983Z" fill="white"/>
<path d="M164.072 218.329H155.984C155.839 218.329 155.707 218.245 155.645 218.114C155.583 217.983 155.602 217.828 155.694 217.716C198.384 165.853 253.64 124.593 315.489 98.3972C315.651 98.3282 315.836 98.3812 315.939 98.5232C316.041 98.6652 316.033 98.8592 315.916 98.9902C272.91 147.869 221.881 188.005 164.246 218.286C164.192 218.314 164.132 218.329 164.072 218.329ZM156.779 217.579H163.979C221.01 187.602 271.562 147.961 314.257 99.7372C253.38 125.811 198.97 166.524 156.779 217.579Z" fill="#D0D0FF"/>
<path d="M168.115 217.954C192.433 204.018 219.619 195.84 247.589 194.041C267.626 203.986 289.443 209.843 311.767 211.272C299.711 191.472 282.515 175.31 262.008 164.5C222.696 169.006 186.499 188.077 160.554 217.953L168.115 217.954Z" fill="white"/>
<path d="M168.115 218.329H160.554C160.407 218.329 160.274 218.243 160.213 218.109C160.152 217.975 160.175 217.819 160.271 217.708C186.344 187.685 222.46 168.657 261.966 164.129C262.043 164.123 262.117 164.134 262.184 164.17C282.745 175.008 300.002 191.229 312.088 211.078C312.16 211.198 312.161 211.348 312.089 211.468C312.017 211.587 311.895 211.665 311.743 211.648C289.284 210.209 267.676 204.416 247.514 194.423C219.79 196.221 192.401 204.47 168.302 218.279C168.245 218.311 168.181 218.329 168.115 218.329ZM161.379 217.579H168.016C192.221 203.727 219.727 195.457 247.565 193.668C247.64 193.665 247.698 193.677 247.756 193.706C267.638 203.573 288.935 209.34 311.069 210.852C299.092 191.431 282.12 175.55 261.936 164.888C222.935 169.386 187.26 188.087 161.379 217.579Z" fill="#D0D0FF"/>
<path d="M140.237 217.954C116.059 182.291 83.6456 152.979 45.7376 132.5C30.4756 131.321 15.1246 132.809 0.374634 136.897C14.9346 139.241 28.9056 144.375 41.5176 152.017C67.3186 180.659 99.1826 203.184 134.789 217.954H140.237Z" fill="white"/>
<path d="M140.237 218.329H134.789C134.74 218.329 134.691 218.319 134.646 218.301C99.2296 203.61 66.9436 180.791 41.2766 152.31C28.6586 144.673 14.8786 139.612 0.315603 137.268C0.141603 137.24 0.0106046 137.095 0.000604622 136.919C-0.00939538 136.743 0.105605 136.584 0.274605 136.537C15.1106 132.425 30.4146 130.943 45.7666 132.127C45.8186 132.131 45.8696 132.146 45.9156 132.171C83.7136 152.59 116.437 182.181 140.548 217.745C140.626 217.859 140.634 218.008 140.569 218.131C140.503 218.252 140.376 218.329 140.237 218.329ZM134.864 217.579H139.529C115.539 182.396 83.0856 153.117 45.6296 132.868C30.9626 131.743 16.3366 133.071 2.1276 136.812C16.1796 139.286 29.4896 144.29 41.7136 151.696C41.7446 151.715 41.7736 151.738 41.7986 151.766C67.3786 180.165 99.5606 202.923 134.864 217.579Z" fill="#D0D0FF"/>
<path d="M134.79 217.954C103.018 194.482 65.2606 180.465 25.8696 177.512C59.3416 197.655 96.2816 211.371 134.79 217.954Z" fill="white"/>
<path d="M134.789 218.329C134.768 218.329 134.747 218.327 134.726 218.324C96.0156 211.706 59.3266 198.083 25.6756 177.834C25.5266 177.745 25.4586 177.564 25.5116 177.399C25.5646 177.234 25.7296 177.135 25.8966 177.139C65.4116 180.101 103.143 194.11 135.012 217.653C135.152 217.757 135.202 217.942 135.135 218.102C135.075 218.241 134.938 218.329 134.789 218.329ZM27.4346 178.012C60.1716 197.488 95.7656 210.704 133.278 217.311C102.227 194.735 65.6986 181.172 27.4346 178.012Z" fill="#D0D0FF"/>
<path d="M157.302 217.954C183.3 155 196.107 87.3842 194.929 19.2832C158.291 78.6912 142.226 148.507 149.213 217.954H157.302Z" fill="white"/>
<path d="M157.302 218.329H149.213C149.021 218.329 148.859 218.184 148.84 217.991C145.359 183.389 147.548 148.661 155.346 114.77C163.144 80.8792 176.354 48.6872 194.609 19.0862C194.697 18.9452 194.868 18.8792 195.027 18.9212C195.188 18.9652 195.3 19.1102 195.303 19.2762C196.489 87.8292 183.82 154.722 157.648 218.097C157.591 218.237 157.454 218.329 157.302 218.329ZM149.553 217.579H157.052C182.956 154.766 195.578 88.4932 194.575 20.5772C176.712 49.8052 163.761 81.5462 156.077 114.938C148.322 148.639 146.127 183.169 149.553 217.579Z" fill="#D0D0FF"/>
<path d="M137.344 217.954C93.5786 154.461 76.2546 76.4232 89.0426 0.375183C121.564 68.5182 140.006 142.519 143.265 217.954H137.344Z" fill="white"/>
<path d="M143.265 218.329H137.345C137.221 218.329 137.106 218.268 137.036 218.167C115.228 186.529 99.9475 151.467 91.6205 113.954C83.2925 76.4412 82.3015 38.2072 88.6735 0.313193C88.7005 0.151193 88.8295 0.0261933 88.9905 0.00319334C89.1585 -0.0178067 89.3105 0.0661924 89.3815 0.213192C122.106 68.7832 140.361 142.036 143.64 217.937C143.644 218.04 143.607 218.139 143.536 218.213C143.465 218.287 143.367 218.329 143.265 218.329ZM137.542 217.579H142.873C139.57 142.315 121.52 69.6642 89.2165 1.61419C83.0775 39.0272 84.1315 76.7612 92.3515 113.791C100.645 151.145 115.849 186.063 137.542 217.579Z" fill="#D0D0FF"/>
<path d="M153.072 217.954C172.618 140.071 218.032 71.1322 281.877 22.4322C261.695 98.1832 219.469 166.234 160.554 217.954H153.072Z" fill="white"/>
<path d="M160.554 218.329H153.072C152.956 218.329 152.847 218.275 152.776 218.184C152.705 218.093 152.68 217.974 152.708 217.863C172.198 140.203 217.99 70.6922 281.649 22.1342C281.777 22.0372 281.952 22.0312 282.085 22.1212C282.218 22.2102 282.279 22.3742 282.238 22.5292C261.967 98.6142 219.974 166.288 160.8 218.236C160.733 218.296 160.644 218.329 160.554 218.329ZM153.553 217.579H160.413C219.139 165.986 260.901 98.8592 281.229 23.4002C218.286 71.7252 172.978 140.627 153.553 217.579Z" fill="#D0D0FF"/>
<path d="M187.635 79.6142H162.48L150.213 61.6252H175.368L187.635 79.6142Z" fill="#2E175A"/>
<path d="M170.56 68.9112C171.944 70.9402 171.812 72.5852 170.265 72.5852C168.718 72.5852 166.342 70.9402 164.959 68.9112C163.575 66.8822 163.707 65.2372 165.254 65.2372C166.8 65.2372 169.176 66.8822 170.56 68.9112Z" fill="white"/>
<path d="M201.522 79.6142H184.895V76.6322H198.54C200.187 76.6332 201.522 77.9672 201.522 79.6142Z" fill="#2E175A"/>
<path d="M187.02 79.1002C187.038 79.1002 187.058 79.0952 187.075 79.0852C187.123 79.0552 187.138 78.9912 187.108 78.9432L186.006 77.1722C185.975 77.1242 185.912 77.1092 185.864 77.1392C185.816 77.1692 185.801 77.2332 185.831 77.2812L186.933 79.0522C186.953 79.0842 186.985 79.1002 187.02 79.1002Z" fill="#9566DA"/>
<path d="M326.344 192.498C321.73 190.958 325.217 184.351 329.996 183.021C334.775 181.691 340.855 183.695 343.069 186.071C346.225 186.442 346.296 191.417 344.406 195.003C342.517 198.589 342.706 203.695 337.887 205.772L326.344 192.498Z" fill="#2E175A"/>
<path d="M326.343 192.498C325.154 199.709 323.399 206.878 331.202 204.513L331.304 208.97L331.507 212.985L340.285 209.604C340.285 209.604 338.322 204.607 338.254 199.969C338.254 199.969 342.676 198.351 340.448 195.284C338.563 192.702 335.281 195.943 335.281 195.943C335.281 195.943 334.76 192.756 335.272 191.151C332.281 192.312 328.48 193.144 326.343 192.498Z" fill="#FFBFC6"/>
<path d="M326.437 196.029L324.813 196.981C324.35 197.252 324.124 197.797 324.26 198.316C324.395 198.835 324.859 199.201 325.394 199.211L326.331 199.23L326.437 196.029Z" fill="#FFBFC6"/>
<path d="M336.349 196.923C336.402 196.943 336.462 196.944 336.517 196.922L338.974 195.923C339.092 195.875 339.149 195.741 339.102 195.624C339.054 195.505 338.919 195.449 338.802 195.497L336.345 196.495C336.228 196.543 336.172 196.677 336.219 196.794C336.245 196.857 336.292 196.901 336.349 196.923Z" fill="#F22D5C"/>
<path d="M331.203 204.513L331.305 208.97C333.763 206.719 334.341 202.419 334.379 202.045C334.214 202.475 332.752 203.961 331.203 204.513Z" fill="#2E175A"/>
<path d="M327.726 196.079C328.255 197.046 329.27 197.659 330.378 197.705C330.39 197.715 330.4 197.703 330.412 197.712C331.528 197.723 332.58 197.162 333.154 196.197C332.686 195.178 331.711 194.516 330.6 194.449C330.554 194.432 330.519 194.424 330.475 194.429C329.326 194.41 328.248 195.052 327.726 196.079Z" fill="white"/>
<path d="M327.726 196.079C328.255 197.046 329.27 197.659 330.378 197.705C330.43 197.666 330.469 197.617 330.508 197.568C331.253 196.639 331.257 195.357 330.6 194.449C330.554 194.432 330.519 194.424 330.475 194.429C329.326 194.41 328.248 195.052 327.726 196.079Z" fill="#2E175A"/>
<path d="M331.673 198.978C330.622 199.548 329.422 199.784 328.233 199.654C328.469 200.551 329.361 201.111 330.271 200.932C331.181 200.753 331.795 199.897 331.673 198.978Z" fill="white"/>
<path d="M331.842 193.472C330.676 192.741 329.037 192.704 327.756 193.489L327.733 193.503C327.469 193.665 327.386 194.01 327.548 194.274C327.71 194.538 328.055 194.621 328.32 194.459C328.348 194.442 328.376 194.421 328.4 194.4C329.215 193.674 330.508 193.423 331.635 193.881C331.753 193.929 331.887 193.872 331.935 193.755C331.978 193.65 331.935 193.53 331.842 193.472Z" fill="#2E175A"/>
<path d="M327.707 185.034C327.719 185.039 327.733 185.043 327.748 185.046C330.028 185.467 332.344 184.845 334.103 183.338C334.199 183.255 334.211 183.111 334.129 183.015C334.046 182.917 333.9 182.908 333.806 182.989C332.151 184.406 329.975 184.99 327.832 184.594C327.707 184.571 327.587 184.653 327.564 184.778C327.543 184.889 327.606 184.995 327.707 185.034Z" fill="#4A3797"/>
<path d="M326.612 187.935C330.902 189.588 333.914 188.198 335.353 186.219C336.49 184.656 338.29 184.424 339.222 184.648C339.346 184.677 339.469 184.602 339.5 184.479C339.529 184.356 339.455 184.231 339.331 184.202C338.278 183.948 336.252 184.204 334.983 185.949C333.534 187.94 330.337 189.272 325.733 187.053C325.615 186.991 325.481 187.045 325.427 187.16C325.372 187.274 325.42 187.412 325.535 187.466C325.902 187.644 326.261 187.8 326.612 187.935Z" fill="#4A3797"/>
<path d="M343.659 195.299C343.687 195.31 343.717 195.316 343.748 195.314C343.874 195.311 343.974 195.205 343.971 195.078C343.946 194.179 343.73 193.551 343.312 193.16C342.724 192.607 341.874 192.643 341.051 192.675C339.727 192.726 338.909 192.686 338.757 191.246C338.565 189.438 339.611 189.079 340.823 188.664C341.802 188.328 342.911 187.949 343.093 186.63C343.11 186.505 343.021 186.389 342.898 186.371C342.772 186.353 342.656 186.441 342.639 186.566C342.495 187.606 341.652 187.895 340.674 188.23C339.453 188.648 338.07 189.122 338.3 191.294C338.505 193.232 339.925 193.178 341.069 193.133C341.831 193.103 342.55 193.072 342.998 193.495C343.321 193.798 343.49 194.32 343.512 195.091C343.515 195.187 343.575 195.267 343.659 195.299Z" fill="#4A3797"/>
<path d="M324.909 199.347C325.06 199.405 325.222 199.439 325.389 199.442L326.326 199.461C326.453 199.464 326.558 199.363 326.561 199.236C326.564 199.11 326.462 199.005 326.336 199.001L325.399 198.982C324.964 198.976 324.59 198.675 324.482 198.259C324.373 197.842 324.556 197.398 324.928 197.18L326.553 196.228C326.662 196.163 326.699 196.023 326.636 195.914C326.569 195.804 326.431 195.768 326.322 195.831L324.697 196.783C324.148 197.105 323.877 197.759 324.037 198.374C324.156 198.828 324.488 199.185 324.909 199.347Z" fill="#2E175A"/>
<path d="M328.241 270.05H293.63V285.623H328.241V270.05Z" fill="#943C94"/>
<path d="M269.837 285.622H293.709V270.049H269.837V285.622Z" fill="#D0D0FF"/>
<path d="M322.999 280.638H302.714C302.571 280.638 302.455 280.523 302.455 280.379V275.292C302.455 275.149 302.57 275.034 302.714 275.034H322.999C323.142 275.034 323.258 275.149 323.258 275.292V280.379C323.257 280.523 323.142 280.638 322.999 280.638ZM302.972 280.121H322.74V275.551H302.972V280.121Z" fill="white"/>
<path d="M314.703 277.836C314.703 278.367 314.273 278.797 313.742 278.797C313.211 278.797 312.781 278.366 312.781 277.836C312.781 277.305 313.211 276.875 313.742 276.875C314.273 276.875 314.703 277.305 314.703 277.836Z" fill="white"/>
<path d="M293.709 346.151C293.566 346.151 293.451 346.036 293.451 345.892V270.049C293.451 269.905 293.566 269.791 293.709 269.791C293.853 269.791 293.967 269.906 293.967 270.049V345.892C293.968 346.036 293.853 346.151 293.709 346.151Z" fill="#943C94"/>
<path d="M328.241 346.151C328.098 346.151 327.983 346.036 327.983 345.892V270.307H270.026V345.892C270.026 346.035 269.911 346.151 269.768 346.151C269.624 346.151 269.509 346.036 269.509 345.892V270.049C269.509 269.905 269.624 269.791 269.768 269.791H328.242C328.385 269.791 328.501 269.906 328.501 270.049V345.892C328.5 346.036 328.385 346.151 328.241 346.151Z" fill="#943C94"/>
<path d="M332.345 300.695L335.626 335.222H345.635L348.256 297.43L350.647 294.066L356.566 285.756L350.927 266.118L348.256 256.819L334.34 288.378C332.625 292.253 331.949 296.49 332.345 300.695Z" fill="#F22D5C"/>
<path d="M350.373 272.731L350.647 294.066L356.566 285.756L350.927 266.118L350.373 272.731Z" fill="#2E175A"/>
<path d="M372.092 246.309L348.257 256.812C348.257 256.812 344.249 245.231 334.365 236.605C330.563 233.286 330.302 226.562 330.572 222.338C330.739 219.723 330.223 217.115 329.017 214.789C328.481 213.755 328.874 212.483 329.9 211.932L338.942 207.075C339.966 206.525 341.241 206.897 341.808 207.911L342.531 209.201C343.221 210.433 344.386 211.302 345.739 211.706C347.29 212.17 349.506 213.231 351.521 215.662C355.099 219.977 369.097 240.5 369.097 240.5L372.853 242.46L372.092 246.309Z" fill="#2E175A"/>
<path d="M331.34 218.372L325.341 235.264H310.343V245.289H326.29C330.467 245.289 334.255 242.836 335.963 239.024L341.68 226.266L331.34 218.372Z" fill="#2E175A"/>
<path d="M331.949 217.13C332.039 217.13 332.126 217.076 332.161 216.988C333.092 214.707 335.371 213.251 337.83 213.394C337.97 213.405 338.065 213.303 338.072 213.177C338.078 213.05 337.982 212.942 337.855 212.935C335.178 212.792 332.742 214.353 331.737 216.814C331.689 216.931 331.745 217.066 331.863 217.113C331.891 217.125 331.921 217.13 331.949 217.13Z" fill="#9566DA"/>
<path d="M339.391 237.79L323.841 263.601L317.684 259.891L329.84 226.502L339.391 237.79Z" fill="#2E175A"/>
<path d="M330.62 230.889C334.844 230.89 337.309 226.795 338.047 225.343C338.165 225.113 338.288 224.859 338.42 224.586C339.489 222.389 341.105 219.067 344.423 217.974C346.836 217.18 349.837 217.697 353.335 219.522C353.443 219.581 353.585 219.537 353.644 219.424C353.703 219.312 353.659 219.173 353.546 219.115C349.934 217.232 346.82 216.699 344.278 217.538C340.776 218.693 339.11 222.119 338.007 224.385C337.876 224.655 337.753 224.906 337.638 225.134C336.802 226.777 333.649 231.975 328.182 229.969C328.065 229.923 327.932 229.986 327.888 230.105C327.844 230.223 327.905 230.356 328.024 230.399C328.952 230.742 329.818 230.889 330.62 230.889Z" fill="#4A3797"/>
<path d="M344.253 247.24C344.276 247.24 344.301 247.236 344.325 247.228C347.24 246.274 348.989 243.554 349.771 242.018C349.888 241.788 350.012 241.533 350.145 241.261C351.213 239.064 352.829 235.742 356.147 234.648C358.562 233.853 361.56 234.372 365.059 236.197C365.167 236.255 365.309 236.211 365.368 236.099C365.426 235.987 365.383 235.848 365.27 235.79C361.658 233.906 358.541 233.377 356.003 234.212C352.501 235.367 350.834 238.793 349.731 241.06C349.6 241.33 349.477 241.581 349.361 241.809C348.084 244.316 346.196 246.132 344.18 246.791C344.06 246.831 343.994 246.96 344.034 247.081C344.067 247.179 344.157 247.24 344.253 247.24Z" fill="#4A3797"/>
<path d="M348.258 256.813L358.677 335.221H369.517L372.043 263.602C372.043 263.602 377.614 254.224 372.092 246.31L348.258 256.813Z" fill="#F22D5C"/>
<path d="M365.165 263.83C365.254 263.83 365.339 263.778 365.376 263.691C365.426 263.575 365.372 263.439 365.256 263.39L354.8 258.917C354.684 258.868 354.549 258.921 354.499 259.037C354.449 259.153 354.503 259.289 354.619 259.338L365.075 263.811C365.104 263.824 365.134 263.83 365.165 263.83Z" fill="white"/>
<path d="M320.737 346.054H344.893L345.041 343.795L345.47 337.645L345.635 335.221H337.424C336.929 336.243 336.567 337.035 336.187 337.645C335.181 339.31 333.961 339.789 329.048 340.646C325.668 341.223 323.59 342.592 322.354 343.796C321.133 345.015 320.737 346.054 320.737 346.054Z" fill="#FFBFC6"/>
<path d="M320.737 346.054H344.893L345.041 343.795L345.47 337.645H336.187C335.181 339.31 333.961 339.789 329.048 340.646C325.668 341.223 323.59 342.592 322.354 343.796C321.133 345.015 320.737 346.054 320.737 346.054Z" fill="#2E175A"/>
<path d="M320.737 346.054H344.893L345.041 343.795H322.353C321.133 345.015 320.737 346.054 320.737 346.054Z" fill="#F22D5C"/>
<path d="M345.634 346.054H368.863L368.89 343.795L368.986 337.645L369.02 335.221H361.123C360.7 336.243 360.392 337.035 360.058 337.645C359.176 339.31 358.028 339.789 353.347 340.646C350.126 341.223 348.198 342.592 347.071 343.796C345.962 345.015 345.634 346.054 345.634 346.054Z" fill="#FFBFC6"/>
<path d="M345.634 346.054H368.863L368.89 343.795L368.986 337.645H360.059C359.177 339.31 358.029 339.789 353.348 340.646C350.127 341.223 348.199 342.592 347.072 343.796C345.962 345.015 345.634 346.054 345.634 346.054Z" fill="#2E175A"/>
<path d="M345.634 346.054H368.863L368.89 343.795H347.072C345.962 345.015 345.634 346.054 345.634 346.054Z" fill="#F22D5C"/>
<path d="M359.937 332.082H367.938C368.064 332.082 368.168 331.979 368.168 331.853C368.168 331.727 368.065 331.624 367.938 331.624H359.937C359.811 331.624 359.708 331.727 359.708 331.853C359.708 331.979 359.811 332.082 359.937 332.082Z" fill="#2E175A"/>
<path d="M336.401 332.082H344.401C344.528 332.082 344.632 331.979 344.632 331.853C344.632 331.727 344.528 331.624 344.401 331.624H336.401C336.275 331.624 336.172 331.727 336.172 331.853C336.172 331.979 336.275 332.082 336.401 332.082Z" fill="#2E175A"/>
<path d="M336.401 309.98C336.407 309.98 336.412 309.98 336.418 309.979C336.544 309.97 336.639 309.86 336.63 309.733L335.806 298.57C335.601 295.782 336.105 292.963 337.265 290.418L344.46 275.328C344.515 275.214 344.466 275.077 344.352 275.022C344.238 274.969 344.1 275.016 344.046 275.131L336.849 290.224C335.656 292.842 335.137 295.738 335.348 298.603L336.172 309.766C336.182 309.888 336.282 309.98 336.401 309.98Z" fill="#2E175A"/>
<path d="M357.94 308.586C357.948 308.586 357.955 308.586 357.964 308.585C358.09 308.571 358.181 308.458 358.167 308.331L354.063 270.601C354.05 270.475 353.949 270.385 353.81 270.398C353.684 270.412 353.594 270.525 353.608 270.652L357.711 308.382C357.724 308.499 357.824 308.586 357.94 308.586Z" fill="#2E175A"/>
<path d="M310.343 235.685C310.343 235.685 307.475 236.159 306.633 234.685C305.791 233.211 304.739 232.343 300.924 232.317C297.109 232.291 296.743 230.802 295.767 232.001C294.846 233.133 299.608 234.711 301.713 234.29C301.713 234.29 301.318 236.079 298.424 236.079C295.53 236.079 293.582 235.5 292.845 234.29C292.108 233.08 291.636 233.053 291.241 233.185C290.846 233.317 290.846 233.817 290.978 234.185C290.978 234.185 290.268 234.659 290.741 235.737C291.214 236.816 292.609 239.262 296.634 239.499C300.66 239.736 307.606 240.025 310.342 240.999V235.685H310.343Z" fill="#FFBFC6"/>
<path d="M297.187 237.861C297.306 237.861 297.408 237.769 297.416 237.648C297.425 237.522 297.33 237.412 297.204 237.403C292.927 237.1 291.842 235.24 291.612 234.677C291.564 234.56 291.433 234.501 291.313 234.552C291.196 234.6 291.14 234.734 291.188 234.851C291.443 235.476 292.631 237.54 297.173 237.86C297.177 237.861 297.182 237.861 297.187 237.861Z" fill="#F22D5C"/>
<path d="M323.841 263.601L320 269.837H308.528C308.528 269.837 309.002 266.89 314.685 266.719L318.291 260.257L323.841 263.601Z" fill="#FFBFC6"/>
<path d="M323.712 245.518H326.289C330.55 245.518 334.429 243.005 336.172 239.117L341.889 226.359C341.94 226.243 341.889 226.107 341.773 226.055C341.657 226.004 341.522 226.055 341.469 226.171L335.752 238.929C334.083 242.653 330.369 245.059 326.289 245.059H323.712C323.586 245.059 323.483 245.162 323.483 245.288C323.483 245.415 323.586 245.518 323.712 245.518Z" fill="#9566DA"/>
<path d="M351.428 284.605C351.434 284.605 351.441 284.605 351.449 284.604C351.575 284.592 351.669 284.481 351.657 284.355L349.811 263.788C349.8 263.662 349.705 263.549 349.562 263.58C349.436 263.592 349.343 263.703 349.354 263.829L351.2 284.396C351.21 284.515 351.31 284.605 351.428 284.605Z" fill="#2E175A"/>
<path d="M347.678 251.909C347.704 251.909 347.731 251.904 347.757 251.895L371.019 243.398C371.138 243.355 371.199 243.223 371.155 243.104C371.112 242.986 370.979 242.922 370.861 242.968L350.923 250.25L368.058 241.335C368.171 241.277 368.214 241.138 368.156 241.026C368.097 240.913 367.956 240.869 367.847 240.928L347.573 251.476C347.465 251.532 347.42 251.662 347.469 251.772C347.506 251.858 347.589 251.909 347.678 251.909Z" fill="#9566DA"/>
<path d="M253.122 111.02H226.599L224.016 103.522H226.251L253.122 111.02Z" fill="#2E175A"/>
<path d="M205.536 139.24L218.25 140.915L218.885 133.932L219.573 126.349L220.931 111.413L209.31 94.3252C206.136 97.6052 205.536 139.24 205.536 139.24Z" fill="#9566DA"/>
<path d="M211.661 111.783L218.664 136.371L219.573 126.349L211.661 111.783Z" fill="#2E175A"/>
<path d="M247.361 89.8622C234.347 87.3792 215.969 86.9812 210.903 91.5512C205.837 96.1212 208.42 102.479 210.208 108.34C211.996 114.201 222.328 140.03 222.328 140.03L236.931 133.473L225.01 104.069C225.01 104.069 266.137 123.043 270.607 98.3072L247.361 89.8622Z" fill="#9566DA"/>
<path d="M224.414 103.395C224.477 103.395 224.54 103.367 224.583 103.316C224.661 103.223 224.649 103.084 224.555 103.006L220.879 99.9252C220.786 99.8472 220.647 99.8592 220.569 99.9532C220.491 100.046 220.503 100.185 220.597 100.263L224.273 103.344C224.314 103.378 224.364 103.395 224.414 103.395Z" fill="#2E175A"/>
<path d="M236.93 133.472L238.42 137.446L222.923 143.854L221.619 140.321L222.327 140.029L236.93 133.472Z" fill="#2E175A"/>
<path d="M218.254 140.923L203.775 139L203.328 142.463L217.969 144.4L218.254 140.923Z" fill="#2E175A"/>
<path d="M189.844 160.092H215.399L216.784 146.863L217.033 144.404L208.847 143.19C208.676 144.326 208.489 145.587 208.162 146.863C207.306 150.194 205.47 153.54 200.567 154.458C193.797 155.719 189.844 160.092 189.844 160.092Z" fill="#FFBFC6"/>
<path d="M189.844 160.092H215.399L216.457 149.991L216.784 146.863H208.162C207.882 147.937 207.508 148.995 206.964 149.991C205.812 152.092 203.898 153.835 200.567 154.458C193.797 155.719 189.844 160.092 189.844 160.092Z" fill="#D0D0FF"/>
<path d="M189.844 160.092H215.399L215.648 157.664L216.457 149.991H206.964C205.812 152.092 203.898 153.835 200.567 154.458C197.252 155.081 194.606 156.435 192.785 157.664C190.871 158.956 189.844 160.092 189.844 160.092Z" fill="#F22D5C"/>
<path d="M189.844 160.092H215.399L215.648 157.664H192.785C190.871 158.956 189.844 160.092 189.844 160.092Z" fill="#2E175A"/>
<path d="M220.737 160.092H232.472C234.885 160.092 237.157 158.909 238.542 156.917L243.343 149.972L242.137 147.486L238.495 139.86L237.53 137.821L229.468 141.152C229.81 141.759 230.106 142.459 230.355 143.206C231.911 147.937 231.367 154.661 227.196 154.987C222.371 155.361 220.737 160.092 220.737 160.092Z" fill="#FFBFC6"/>
<path d="M220.737 160.092H232.472C234.885 160.092 237.157 158.909 238.542 156.917L243.343 149.972L242.137 147.486L239.476 141.93L238.496 139.86L230.356 143.206C230.574 143.875 230.745 144.576 230.87 145.307C231.695 149.711 230.776 154.707 227.197 154.987C222.371 155.361 220.737 160.092 220.737 160.092Z" fill="#D0D0FF"/>
<path d="M220.737 160.092H232.472C234.885 160.092 237.157 158.909 238.542 156.917L243.335 149.976L242.137 147.486L242.044 147.284L239.476 141.93L230.869 145.307C231.694 149.711 230.775 154.707 227.196 154.987C224.8 155.174 223.181 156.435 222.169 157.664C221.142 158.894 220.737 160.092 220.737 160.092Z" fill="#F22D5C"/>
<path d="M220.737 160.092H232.472C234.885 160.092 237.157 158.909 238.542 156.917L243.335 149.976L242.137 147.486L242.044 147.284L236.332 155.112C235.165 156.715 233.297 157.664 231.305 157.664H222.169C221.142 158.894 220.737 160.092 220.737 160.092Z" fill="#2E175A"/>
<path d="M224.661 101.48C224.67 101.48 224.681 101.48 224.691 101.478C224.811 101.461 224.896 101.35 224.879 101.23L224.626 99.3722C224.609 99.2512 224.497 99.1602 224.377 99.1822C224.257 99.1992 224.172 99.3092 224.189 99.4302L224.442 101.288C224.458 101.399 224.552 101.48 224.661 101.48Z" fill="#2E175A"/>
<path d="M255.417 99.9882C255.48 99.9882 255.543 99.9612 255.586 99.9092C255.664 99.8162 255.652 99.6762 255.558 99.5992L249.395 94.4502C249.304 94.3722 249.165 94.3832 249.085 94.4772C249.007 94.5702 249.019 94.7092 249.113 94.7872L255.275 99.9362C255.317 99.9712 255.367 99.9882 255.417 99.9882Z" fill="#2E175A"/>
<path d="M236.717 28.8582C237.221 28.6582 237.736 28.5682 238.25 28.5292C238.686 26.3122 240.191 24.3522 242.447 23.4572C245.304 22.3232 248.444 23.2622 250.288 25.5242C255.118 24.0482 260.351 26.4982 262.248 31.2752C264.245 36.3052 261.787 42.0032 256.756 44.0002C251.726 45.9972 246.029 43.5392 244.031 38.5082C243.775 37.8632 243.594 37.2062 243.481 36.5492C243.344 36.5182 243.216 36.4592 243.081 36.4202C242.512 37.3532 241.663 38.1262 240.569 38.5602C237.89 39.6242 234.856 38.3142 233.792 35.6352C232.729 32.9562 234.039 29.9222 236.717 28.8582Z" fill="#2E175A"/>
<path d="M249.111 48.1502C249.111 48.1502 249.765 49.1632 250.529 50.8352C251.15 52.1462 251.854 53.8762 252.363 55.8342L263.505 57.2062L251.977 36.9812C251.977 36.9812 248.981 38.8412 246.58 36.2102C244.185 33.5942 241.112 36.3552 241.112 36.3552C241.112 36.3552 241.162 51.2392 249.111 48.1502Z" fill="#FFBFC6"/>
<path d="M249.111 48.1502C249.111 48.1502 249.765 49.1632 250.529 50.8352C251.588 49.0752 251.352 46.5402 251.352 46.5402C251.352 46.5402 250.764 47.2922 249.111 48.1502Z" fill="#2E175A"/>
<path d="M242.691 39.8742C241.566 40.6532 241.013 41.7332 240.745 42.5252C240.65 42.8062 240.701 43.1162 240.882 43.3512C241.063 43.5862 241.349 43.7162 241.645 43.6962C242.075 43.6672 242.617 43.5652 243.255 43.3112L242.691 39.8742Z" fill="#FFBFC6"/>
<path d="M243.289 38.1502C243.332 38.1332 243.37 38.1032 243.396 38.0592C243.785 37.4212 244.397 36.9652 245.12 36.7802C245.257 36.7492 245.309 36.6292 245.278 36.5112C245.248 36.3932 245.127 36.3232 245.01 36.3532C244.175 36.5702 243.468 37.0932 243.02 37.8312C242.956 37.9342 242.989 38.0712 243.094 38.1332C243.155 38.1702 243.228 38.1742 243.289 38.1502Z" fill="#2E175A"/>
<path d="M247.135 44.2492C247.783 43.9922 248.314 43.4882 248.604 42.8252C248.653 42.7132 248.601 42.5832 248.491 42.5352C248.381 42.4882 248.249 42.5352 248.201 42.6492C247.862 43.4272 247.128 43.9442 246.284 43.9942C246.163 44.0032 246.071 44.1062 246.078 44.2282C246.086 44.3512 246.19 44.4432 246.312 44.4352C246.6 44.4152 246.877 44.3522 247.135 44.2492Z" fill="#F22D5C"/>
<path d="M243.681 40.0412C244.486 40.4252 245.446 40.3952 246.236 39.9812C246.389 39.9032 246.531 39.7972 246.659 39.6962C247.235 39.2502 247.612 38.5972 247.716 37.8862C247.104 37.6942 246.448 37.6872 245.843 37.8932C245.623 37.9302 245.441 38.0192 245.244 38.1142C244.489 38.5312 243.926 39.2242 243.681 40.0412Z" fill="white"/>
<path d="M243.681 40.0412C244.486 40.4252 245.446 40.3952 246.236 39.9812C246.389 39.9032 246.531 39.7972 246.659 39.6962C246.657 39.3952 246.605 39.0982 246.491 38.8082C246.347 38.4462 246.123 38.1342 245.843 37.8932C245.623 37.9302 245.441 38.0192 245.244 38.1142C244.489 38.5312 243.926 39.2242 243.681 40.0412Z" fill="#2E175A"/>
<path d="M250.5 44.6082C251.922 44.0432 253.168 43.0672 254.052 41.8132C254.122 41.7152 254.099 41.5762 253.999 41.5062C253.897 41.4352 253.761 41.4622 253.692 41.5592C252.754 42.8882 251.378 43.8992 249.834 44.3752C249.712 44.4072 249.653 44.5362 249.69 44.6532C249.726 44.7692 249.85 44.8342 249.966 44.7972C250.147 44.7412 250.325 44.6782 250.5 44.6082Z" fill="#2E175A"/>
<path d="M248.458 45.1102C248.572 45.3972 248.897 45.5372 249.184 45.4232C249.471 45.3092 249.611 44.9842 249.497 44.6972C249.383 44.4102 249.058 44.2702 248.772 44.3842C248.484 44.4992 248.344 44.8242 248.458 45.1102Z" fill="#2E175A"/>
<path d="M239.28 31.4672C238.96 31.4252 238.21 31.1052 238.167 29.0412C238.166 28.9652 238.204 28.8932 238.268 28.8512C238.337 28.8162 238.414 28.8062 238.482 28.8382C238.687 28.9362 240.474 29.8242 240.194 30.7892C240.106 31.0932 239.901 31.3222 239.652 31.4212C239.535 31.4672 239.409 31.4842 239.28 31.4672ZM239.338 31.0312C239.523 31.0522 239.704 30.9002 239.773 30.6682C239.886 30.2752 239.183 29.7392 238.627 29.4152C238.708 30.4722 239.03 30.9902 239.338 31.0312Z" fill="#4A3797"/>
<path d="M240.222 34.4982C240.492 34.3912 240.763 34.2632 241.034 34.1132C244.445 32.2292 244.428 29.6002 244.033 27.5212C243.877 26.6942 244.036 25.9652 244.509 25.3572C245.148 24.5292 246.161 24.1882 246.834 24.1462C246.956 24.1382 247.048 24.0332 247.04 23.9132C247.032 23.7902 246.928 23.6982 246.806 23.7062C245.8 23.7702 244.763 24.3132 244.16 25.0862C243.614 25.7882 243.421 26.6602 243.601 27.6042C243.991 29.6582 243.966 31.9892 240.822 33.7272C239.33 34.5622 237.869 34.6772 236.809 34.0752C235.818 33.5112 235.244 32.3582 235.193 30.8252C235.189 30.7042 235.087 30.6082 234.966 30.6132C234.842 30.6122 234.748 30.7162 234.752 30.8402C234.807 32.5302 235.46 33.8152 236.591 34.4572C237.588 35.0242 238.88 35.0312 240.222 34.4982Z" fill="#4A3797"/>
<path d="M262.304 34.1532C262.41 34.1112 262.467 33.9932 262.433 33.8832C262.397 33.7662 262.273 33.7022 262.157 33.7372C260.4 34.2862 258.519 33.6342 257.477 32.1182C256.435 30.5992 256.503 28.6102 257.645 27.1672C257.721 27.0722 257.704 26.9322 257.609 26.8572C257.513 26.7802 257.372 26.7952 257.299 26.8932C256.036 28.4902 255.96 30.6892 257.112 32.3672C258.266 34.0472 260.346 34.7672 262.289 34.1602C262.293 34.1572 262.299 34.1552 262.304 34.1532Z" fill="#4A3797"/>
<path d="M255.401 40.7282L257.328 39.9632C257.57 39.8672 257.688 39.5932 257.592 39.3522L256.047 35.4622C255.951 35.2202 255.678 35.1022 255.436 35.1982L253.509 35.9632C253.267 36.0592 253.149 36.3332 253.245 36.5742L254.79 40.4642C254.885 40.7062 255.159 40.8242 255.401 40.7282Z" fill="white"/>
<path d="M254.243 35.0032C254.356 34.9582 254.412 34.8302 254.367 34.7172L251.151 26.6182C251.106 26.5052 250.978 26.4502 250.865 26.4952C250.752 26.5402 250.697 26.6682 250.742 26.7812L253.958 34.8802C254.002 34.9932 254.13 35.0482 254.243 35.0032Z" fill="white"/>
<path d="M249.926 24.1322C250.039 24.0872 250.095 23.9592 250.05 23.8462L249.594 22.6972C249.14 21.5532 248.093 20.7142 246.861 20.5082C245.724 20.3202 244.658 20.6942 243.938 21.5342C243.71 21.7992 243.549 22.0872 243.462 22.3902C243.428 22.5052 243.495 22.6292 243.612 22.6622C243.728 22.6942 243.852 22.6302 243.885 22.5112C243.955 22.2702 244.086 22.0362 244.273 21.8202C244.891 21.1002 245.809 20.7782 246.79 20.9432C247.871 21.1242 248.788 21.8582 249.186 22.8602L249.642 24.0092C249.685 24.1222 249.813 24.1772 249.926 24.1322Z" fill="#F22D5C"/>
<path d="M262.401 42.4712C262.489 42.4362 262.571 42.3812 262.64 42.3072C263.664 41.2072 264.439 39.8682 264.88 38.4332C264.987 38.0852 264.791 37.7142 264.442 37.6062C264.096 37.5032 263.724 37.6952 263.616 38.0452C263.234 39.2902 262.562 40.4522 261.673 41.4052C261.424 41.6722 261.439 42.0912 261.706 42.3392C261.898 42.5212 262.171 42.5632 262.401 42.4712Z" fill="#2E175A"/>
<path d="M273.453 47.2902C273.528 47.2602 273.599 47.2172 273.661 47.1572C274.566 46.3112 275.151 45.1682 275.31 43.9402C275.357 43.5792 275.102 43.2462 274.74 43.1992C274.378 43.1502 274.045 43.4062 274 43.7712C273.88 44.6952 273.439 45.5562 272.758 46.1932C272.491 46.4422 272.477 46.8602 272.727 47.1262C272.917 47.3322 273.208 47.3872 273.453 47.2902Z" fill="#2E175A"/>
<path d="M264.283 44.6402C265.213 46.9832 267.866 48.1282 270.209 47.1972C272.552 46.2672 273.697 43.6142 272.766 41.2712C271.836 38.9292 269.183 37.7842 266.84 38.7142C264.498 39.6442 263.353 42.2972 264.283 44.6402Z" fill="#2E175A"/>
<path d="M275.134 48.2952C275.593 49.4522 276.904 50.0172 278.06 49.5582C279.217 49.0992 279.783 47.7882 279.323 46.6322C278.863 45.4752 277.553 44.9102 276.396 45.3692C275.24 45.8282 274.675 47.1382 275.134 48.2952Z" fill="#2E175A"/>
<path d="M243.32 43.5222C243.417 43.4862 243.505 43.3472 243.459 43.2302C243.414 43.1162 243.286 43.0622 243.173 43.1072C243.175 43.1042 243.164 43.1112 243.158 43.1132C242.628 43.3232 242.114 43.4462 241.63 43.4772C241.407 43.4912 241.192 43.3952 241.056 43.2172C240.92 43.0402 240.882 42.8082 240.953 42.5962C241.205 41.8512 241.733 40.8062 242.816 40.0552C242.916 39.9862 242.941 39.8482 242.871 39.7482C242.802 39.6492 242.666 39.6292 242.564 39.6922C241.382 40.5112 240.808 41.6472 240.535 42.4542C240.416 42.8052 240.48 43.1912 240.706 43.4852C240.931 43.7792 241.288 43.9412 241.658 43.9172C242.189 43.8822 242.748 43.7492 243.32 43.5222Z" fill="#2E175A"/>
<path d="M270.606 98.3062C271.897 95.3262 271.301 92.1472 271.301 92.1472L264.546 60.1602C264.546 60.1602 262.957 51.5172 254.712 51.5172C246.467 51.5172 238.718 69.5972 238.718 69.5972H245.175C245.175 69.5972 249.844 81.6172 247.361 89.8622C247.361 89.8622 255.507 99.7962 270.606 98.3062Z" fill="#2E175A"/>
<path d="M245.796 59.8332H263.305C263.427 59.8332 263.525 59.7352 263.525 59.6132C263.525 59.4912 263.426 59.3922 263.305 59.3922H245.796C245.675 59.3922 245.576 59.4902 245.576 59.6132C245.576 59.7352 245.675 59.8332 245.796 59.8332Z" fill="#4A3797"/>
<path d="M241.251 67.0412H264.943C265.065 67.0412 265.163 66.9432 265.163 66.8212C265.163 66.6992 265.064 66.6012 264.943 66.6012H241.251C241.13 66.6012 241.031 66.6992 241.031 66.8212C241.031 66.9432 241.13 67.0412 241.251 67.0412Z" fill="#4A3797"/>
<path d="M252.502 74.2502H265.913C266.035 74.2502 266.133 74.1522 266.133 74.0302C266.133 73.9082 266.034 73.8092 265.913 73.8092H252.502C252.381 73.8092 252.282 73.9072 252.282 74.0302C252.281 74.1522 252.38 74.2502 252.502 74.2502Z" fill="#4A3797"/>
<path d="M249.224 81.4592H267.85C267.971 81.4592 268.07 81.3612 268.07 81.2392C268.07 81.1162 267.971 81.0182 267.85 81.0182H249.224C249.103 81.0182 249.004 81.1162 249.004 81.2392C249.003 81.3612 249.102 81.4592 249.224 81.4592Z" fill="#4A3797"/>
<path d="M249.149 88.6672H269.34C269.461 88.6672 269.561 88.5692 269.561 88.4472C269.561 88.3252 269.462 88.2272 269.34 88.2272H249.149C249.028 88.2272 248.929 88.3252 248.929 88.4472C248.928 88.5692 249.027 88.6672 249.149 88.6672Z" fill="#4A3797"/>
<path d="M254.248 69.1422C254.324 69.1422 254.399 69.1022 254.439 69.0322L257.592 63.5492C257.652 63.4442 257.616 63.3082 257.511 63.2482C257.406 63.1862 257.271 63.2222 257.21 63.3292L254.057 68.8122C253.997 68.9172 254.033 69.0532 254.138 69.1132C254.173 69.1342 254.21 69.1422 254.248 69.1422Z" fill="#9566DA"/>
<path d="M217.033 128.269C217.056 128.269 217.079 128.265 217.101 128.258C217.217 128.22 217.28 128.096 217.242 127.979L209.506 104.23C209.468 104.115 209.343 104.054 209.229 104.089C209.113 104.127 209.05 104.251 209.088 104.368L216.824 128.117C216.854 128.21 216.94 128.269 217.033 128.269Z" fill="#2E175A"/>
<path d="M212.252 138.876C212.361 138.876 212.456 138.795 212.471 138.683C212.486 138.563 212.401 138.452 212.281 138.437L207.047 137.762C206.936 137.733 206.816 137.831 206.8 137.953C206.784 138.073 206.87 138.184 206.99 138.199L212.223 138.874C212.232 138.876 212.242 138.876 212.252 138.876Z" fill="#2E175A"/>
<path d="M223.479 138.455C223.51 138.455 223.542 138.448 223.571 138.434L229.227 135.818C229.338 135.768 229.386 135.636 229.335 135.525C229.284 135.416 229.151 135.367 229.043 135.418L223.387 138.034C223.276 138.084 223.228 138.216 223.28 138.327C223.317 138.406 223.396 138.455 223.479 138.455Z" fill="#2E175A"/>
<path d="M141.134 360.975H272.073C275.596 360.975 278.453 358.227 278.453 354.837V85.6802C278.453 82.2902 275.597 79.5422 272.073 79.5422H141.134C137.61 79.5422 134.754 82.2902 134.754 85.6802V354.837C134.754 358.227 137.61 360.975 141.134 360.975Z" fill="#D0D0FF"/>
<path d="M258.235 94.3152H149.526V325.749H258.235V94.3152Z" fill="#943C94"/>
<path d="M181.722 347.339H226.039C229.685 347.339 232.668 344.356 232.668 340.711C232.668 337.065 229.685 334.082 226.039 334.082H181.722C178.076 334.082 175.094 337.065 175.094 340.711C175.094 344.356 178.077 347.339 181.722 347.339Z" fill="white"/>
<path d="M233.221 348.704C233.289 348.704 233.358 348.687 233.419 348.646C236.145 346.911 237.774 343.961 237.774 340.753C237.774 337.32 235.885 334.167 232.845 332.521C232.664 332.428 232.439 332.492 232.342 332.672C232.245 332.852 232.311 333.078 232.491 333.176C235.291 334.688 237.031 337.595 237.031 340.753C237.031 343.706 235.531 346.424 233.021 348.02C232.847 348.13 232.796 348.359 232.906 348.533C232.979 348.643 233.099 348.704 233.221 348.704Z" fill="white"/>
<path d="M178.109 104.352C178.109 103.414 178.876 102.647 179.814 102.647H220.722C221.659 102.647 222.426 103.414 222.426 104.352C222.426 105.289 221.659 106.056 220.722 106.056H179.814C178.876 106.057 178.109 105.29 178.109 104.352ZM226.244 104.352C226.244 105.293 227.007 106.056 227.948 106.056C228.889 106.056 229.653 105.293 229.653 104.352C229.653 103.411 228.89 102.647 227.948 102.647C227.007 102.648 226.244 103.411 226.244 104.352Z" fill="white"/>
<path d="M265.362 358.982C269.025 358.982 272.005 356.108 272.005 352.576V87.9402C272.005 84.4082 269.025 81.5332 265.362 81.5332C265.158 81.5332 264.991 81.6982 264.991 81.9042C264.991 82.1102 265.158 82.2752 265.362 82.2752C268.616 82.2752 271.263 84.8162 271.263 87.9402V352.575C271.263 355.699 268.616 358.239 265.362 358.239C265.158 358.239 264.991 358.404 264.991 358.61C264.991 358.816 265.158 358.982 265.362 358.982Z" fill="white"/>
<path d="M232.195 260.021C235.47 260.021 238.126 257.366 238.126 254.09C238.126 250.815 235.47 248.159 232.195 248.159C228.919 248.159 226.264 250.815 226.264 254.09C226.264 257.366 228.919 260.021 232.195 260.021Z" fill="white"/>
<path d="M202.075 254.09C202.075 257.365 199.419 260.021 196.144 260.021C192.868 260.021 190.213 257.365 190.213 254.09C190.213 250.814 192.868 248.159 196.144 248.159C199.419 248.159 202.075 250.814 202.075 254.09Z" fill="white"/>
<path d="M191.483 183.716C191.483 186.428 189.285 188.626 186.573 188.626C183.861 188.626 181.663 186.428 181.663 183.716C181.663 181.004 183.861 178.806 186.573 178.806C189.284 178.806 191.483 181.004 191.483 183.716Z" fill="white"/>
<path d="M240.507 254.393H189.547C187.698 254.393 186.2 252.894 186.2 251.046V178.653C186.2 176.804 187.699 175.306 189.547 175.306H240.507C242.355 175.306 243.854 176.805 243.854 178.653V251.046C243.854 252.895 242.356 254.393 240.507 254.393Z" fill="#D0D0FF"/>
<path d="M235.421 253.342C232.177 253.342 229.536 250.519 229.536 247.049V182.649C229.536 179.179 232.177 176.358 235.421 176.358C235.572 176.358 235.693 176.479 235.693 176.63C235.693 176.781 235.572 176.902 235.421 176.902C232.477 176.902 230.081 179.481 230.081 182.649V247.049C230.081 250.219 232.477 252.798 235.421 252.798C235.572 252.798 235.693 252.919 235.693 253.07C235.694 253.221 235.572 253.342 235.421 253.342Z" fill="white"/>
<path d="M223.766 241.016H190.931C190.534 241.016 190.212 240.694 190.212 240.297V187.067C190.212 186.67 190.534 186.348 190.931 186.348H223.766C224.163 186.348 224.485 186.67 224.485 187.067V240.296C224.485 240.694 224.163 241.016 223.766 241.016Z" fill="white"/>
<path d="M230.75 159.451L194.482 165.947C193.213 166.174 192 165.33 191.773 164.061L187.512 140.265C187.285 138.996 188.129 137.783 189.398 137.556L225.665 131.06C226.934 130.833 228.147 131.677 228.374 132.946L232.637 156.741C232.864 158.011 232.018 159.224 230.75 159.451Z" fill="#D0D0FF"/>
<path d="M226.964 159.503C224.622 159.923 222.377 158.359 221.957 156.017L218.611 137.334C218.192 134.992 219.755 132.747 222.097 132.327C222.245 132.3 222.386 132.398 222.413 132.547C222.44 132.696 222.342 132.836 222.193 132.863C220.146 133.23 218.781 135.191 219.147 137.238L222.493 155.921C222.86 157.968 224.821 159.334 226.868 158.967C227.016 158.94 227.157 159.038 227.184 159.187C227.211 159.336 227.112 159.476 226.964 159.503Z" fill="white"/>
<path d="M216.043 148.416L193.339 152.483C192.9 152.562 192.481 152.27 192.403 151.831L191.113 144.629C191.034 144.19 191.326 143.771 191.765 143.693L214.469 139.626C214.908 139.548 215.327 139.839 215.405 140.278L216.695 147.48C216.773 147.918 216.481 148.337 216.043 148.416Z" fill="white"/>
<path d="M225.902 146.649C224.962 146.817 224.064 146.192 223.896 145.252L222.931 139.864C222.763 138.924 223.388 138.026 224.327 137.858C225.266 137.69 226.165 138.315 226.333 139.255L227.298 144.643C227.467 145.583 226.842 146.481 225.902 146.649Z" fill="#2E175A"/>
<path d="M188.617 153.328L187.221 153.578C186.782 153.657 186.363 153.365 186.285 152.926L184.995 145.724C184.917 145.285 185.208 144.866 185.647 144.788L187.043 144.538L188.617 153.328Z" fill="#2E175A"/>
<path d="M197.823 149.411C197.121 149.537 196.443 149.065 196.317 148.363L195.977 146.462C195.851 145.76 196.323 145.082 197.025 144.957C197.727 144.831 198.405 145.303 198.531 146.005L198.871 147.906C198.997 148.607 198.526 149.285 197.823 149.411Z" fill="#2E175A"/>
<path d="M204.534 148.209C203.832 148.335 203.154 147.863 203.028 147.161L202.688 145.26C202.562 144.558 203.034 143.88 203.736 143.755C204.438 143.629 205.116 144.101 205.242 144.803L205.582 146.704C205.708 147.405 205.236 148.083 204.534 148.209Z" fill="#2E175A"/>
<path d="M224.147 136.85C223.998 136.877 223.858 136.779 223.831 136.63L220.608 118.634C220.582 118.486 220.679 118.345 220.828 118.318C220.977 118.291 221.117 118.391 221.144 118.538L224.367 136.534C224.394 136.682 224.296 136.823 224.147 136.85Z" fill="#2E175A"/>
<path d="M221.759 117.318C221.865 117.912 221.47 118.48 220.876 118.586C220.282 118.692 219.714 118.297 219.608 117.703C219.502 117.109 219.897 116.541 220.491 116.435C221.085 116.328 221.653 116.724 221.759 117.318Z" fill="#2E175A"/>
<path d="M186.863 143.528C186.714 143.555 186.574 143.457 186.547 143.308L183.324 125.312C183.298 125.165 183.395 125.023 183.544 124.996C183.692 124.969 183.833 125.068 183.86 125.216L187.083 143.212C187.109 143.361 187.012 143.501 186.863 143.528Z" fill="#2E175A"/>
<path d="M184.473 123.996C184.579 124.59 184.184 125.158 183.59 125.264C182.996 125.37 182.428 124.975 182.322 124.381C182.216 123.787 182.612 123.219 183.206 123.113C183.8 123.007 184.366 123.402 184.473 123.996Z" fill="#2E175A"/>
<path d="M216.166 165.404L210.108 166.489C209.96 166.516 209.819 166.417 209.792 166.269C209.766 166.12 209.864 165.98 210.012 165.953L216.07 164.868C216.219 164.841 216.359 164.939 216.386 165.088C216.412 165.237 216.314 165.378 216.166 165.404Z" fill="white"/>
<path d="M216.716 168.485L210.658 169.57C210.51 169.597 210.369 169.499 210.342 169.35C210.315 169.201 210.413 169.061 210.562 169.034L216.62 167.949C216.769 167.922 216.909 168.02 216.936 168.169C216.963 168.317 216.865 168.458 216.716 168.485Z" fill="white"/>
<path d="M217.268 171.567L211.21 172.652C211.062 172.679 210.921 172.581 210.894 172.432C210.867 172.283 210.965 172.143 211.114 172.116L217.172 171.031C217.321 171.004 217.461 171.102 217.488 171.251C217.515 171.4 217.417 171.541 217.268 171.567Z" fill="white"/>
<path d="M242.043 183.716C242.043 186.428 239.846 188.626 237.134 188.626C234.422 188.626 232.224 186.428 232.224 183.716C232.224 181.004 234.422 178.806 237.134 178.806C239.846 178.806 242.043 181.004 242.043 183.716Z" fill="white"/>
<path d="M214.408 217.541C212.998 217.541 211.681 216.72 211.083 215.36C211.021 215.224 211.085 215.062 211.223 215.003C211.357 214.939 211.521 215.005 211.58 215.143C212.226 216.612 213.863 217.344 215.394 216.835C216.921 216.331 217.801 214.769 217.443 213.2C217.084 211.635 215.632 210.608 214.018 210.815C213.873 210.84 213.733 210.728 213.714 210.579C213.695 210.43 213.799 210.294 213.95 210.275C215.821 210.026 217.554 211.24 217.975 213.081C218.394 214.922 217.358 216.759 215.564 217.354C215.182 217.479 214.791 217.541 214.408 217.541Z" fill="#2E175A"/>
<path d="M176.645 226.096C176.056 226.096 175.461 225.949 174.921 225.641C173.394 224.772 172.746 222.892 173.414 221.27C174.077 219.65 175.857 218.763 177.551 219.21C177.696 219.248 177.783 219.397 177.745 219.543C177.709 219.688 177.56 219.779 177.411 219.737C175.982 219.357 174.477 220.107 173.916 221.476C173.355 222.847 173.901 224.433 175.189 225.169C176.475 225.9 178.119 225.56 179.014 224.38C179.105 224.261 179.278 224.233 179.395 224.327C179.516 224.416 179.54 224.589 179.448 224.708C178.766 225.609 177.714 226.096 176.645 226.096Z" fill="#2E175A"/>
<path d="M244.443 187.136C246.847 189.117 249.114 191.321 250.92 193.949C252.688 196.593 253.99 199.59 254.59 202.733C255.739 209.039 254.487 215.622 250.464 220.823C248.304 223.393 245.445 224.994 242.464 225.988C239.469 226.97 236.264 227.26 233.163 226.82C230.058 226.389 227.096 225.209 224.503 223.537C221.917 221.827 219.792 219.601 217.897 217.249C217.52 216.781 217.594 216.097 218.062 215.72C218.519 215.351 219.184 215.414 219.565 215.854L219.61 215.905C221.451 218.035 223.467 220.007 225.825 221.456C228.191 222.869 230.809 223.803 233.504 224.088C236.194 224.38 238.944 224.035 241.468 223.114C243.975 222.2 246.347 220.709 247.882 218.72C249.443 216.763 250.383 214.06 250.914 211.467C251.391 208.822 251.357 206.105 250.766 203.528C250.181 200.947 249.034 198.523 247.487 196.357C245.9 194.205 243.884 192.373 241.732 190.704L241.645 190.636C240.667 189.878 240.488 188.469 241.247 187.491C242.006 186.512 243.414 186.334 244.393 187.093C244.405 187.106 244.428 187.124 244.443 187.136Z" fill="#2E175A"/>
<path d="M181.871 190.333C176.4 195.537 171.246 201.217 167.396 207.607C165.567 210.765 163.883 214.314 164.066 217.574C164.219 219.148 164.96 220.442 166.411 221.176C167.828 221.938 169.654 222.221 171.479 222.256C172.08 222.264 172.561 222.758 172.553 223.359C172.545 223.944 172.068 224.416 171.489 224.433C169.479 224.478 167.357 224.325 165.3 223.367C164.296 222.879 163.286 222.168 162.605 221.158C161.907 220.171 161.517 219.017 161.347 217.89C161.093 215.637 161.504 213.516 162.127 211.569C162.754 209.612 163.588 207.773 164.515 206.002C168.309 198.968 173.352 192.872 178.764 187.19C179.606 186.306 181.006 186.272 181.89 187.114C182.774 187.956 182.808 189.356 181.966 190.24C181.942 190.264 181.919 190.288 181.894 190.311L181.871 190.333Z" fill="#2E175A"/>
<path d="M216.882 325.853H236.251V322.778C236.251 319.204 232.387 316.965 229.287 318.743L216.882 325.853Z" fill="white"/>
<path d="M178.506 325.853H197.875V322.778C197.875 319.204 194.011 316.965 190.911 318.743L178.506 325.853Z" fill="white"/>
<path d="M230.282 316.887C226.716 313.467 223.653 309.467 221.363 304.995C219.077 300.531 217.58 295.558 217.304 290.401C216.737 280.202 220.281 269.737 227.14 261.833L227.165 261.804C228.303 260.492 230.29 260.351 231.602 261.49C232.914 262.628 233.054 264.615 231.916 265.927C231.869 265.982 231.814 266.04 231.764 266.09C225.501 272.35 221.704 281.208 221.571 290.309C221.42 299.348 225.591 308.386 231.894 315.314C232.314 315.773 232.282 316.486 231.823 316.906C231.383 317.307 230.707 317.291 230.282 316.887Z" fill="#2E175A"/>
<path d="M194.199 316.887C190.633 313.467 187.57 309.467 185.28 304.995C182.994 300.531 181.497 295.558 181.221 290.401C180.654 280.202 184.198 269.737 191.057 261.833L191.082 261.804C192.22 260.492 194.207 260.351 195.519 261.49C196.831 262.628 196.972 264.615 195.833 265.927C195.786 265.982 195.731 266.04 195.681 266.09C189.418 272.35 185.621 281.208 185.489 290.309C185.338 299.348 189.509 308.386 195.811 315.314C196.231 315.773 196.199 316.486 195.74 316.906C195.3 317.307 194.624 317.291 194.199 316.887Z" fill="#2E175A"/>
<path d="M196.844 226.385H218.11C219.625 226.385 220.865 227.625 220.865 229.14V231.53C220.865 233.045 219.625 234.285 218.11 234.285H196.623L194.09 237.062V234.285V233.409V229.141C194.089 227.625 195.329 226.385 196.844 226.385Z" fill="#2E175A"/>
<path d="M217.285 229.495H197.669C197.518 229.495 197.397 229.374 197.397 229.223C197.397 229.072 197.518 228.951 197.669 228.951H217.285C217.436 228.951 217.557 229.072 217.557 229.223C217.557 229.374 217.436 229.495 217.285 229.495Z" fill="white"/>
<path d="M217.285 231.817H197.669C197.518 231.817 197.397 231.696 197.397 231.545C197.397 231.394 197.518 231.273 197.669 231.273H217.285C217.436 231.273 217.557 231.394 217.557 231.545C217.557 231.696 217.436 231.817 217.285 231.817Z" fill="white"/>
<path d="M180.335 215.624L206.535 204.373C208.402 203.571 210.585 204.443 211.387 206.31L212.65 209.254C213.451 211.121 212.581 213.304 210.714 214.106L184.24 225.475L182.587 230.237L181.118 226.815L180.654 225.736L178.396 220.478C177.596 218.609 178.468 216.426 180.335 215.624Z" fill="#2E175A"/>
<path d="M182.853 218.957C182.747 218.957 182.647 218.895 182.602 218.793C182.543 218.655 182.609 218.493 182.745 218.434L206.913 208.055C207.06 207.998 207.213 208.061 207.272 208.197C207.332 208.335 207.264 208.497 207.128 208.556L182.96 218.935C182.924 218.951 182.889 218.957 182.853 218.957Z" fill="white"/>
<path d="M184.079 221.816C183.973 221.816 183.872 221.754 183.827 221.652C183.768 221.514 183.833 221.352 183.969 221.293L208.139 210.914C208.284 210.859 208.439 210.92 208.498 211.056C208.558 211.194 208.493 211.356 208.357 211.415L184.187 221.794C184.152 221.81 184.115 221.816 184.079 221.816Z" fill="white"/>
<path d="M218.109 190.423H196.844C195.329 190.423 194.089 191.663 194.089 193.178V195.567C194.089 197.082 195.329 198.322 196.844 198.322H218.331L220.865 201.099V198.322V197.446V193.178C220.865 191.663 219.624 190.423 218.109 190.423Z" fill="#2E175A"/>
<path d="M217.284 193.534H197.668C197.517 193.534 197.396 193.413 197.396 193.262C197.396 193.111 197.517 192.99 197.668 192.99H217.284C217.435 192.99 217.556 193.111 217.556 193.262C217.556 193.413 217.435 193.534 217.284 193.534Z" fill="white"/>
<path d="M217.284 195.854H197.668C197.517 195.854 197.396 195.733 197.396 195.582C197.396 195.431 197.517 195.31 197.668 195.31H217.284C217.435 195.31 217.556 195.431 217.556 195.582C217.556 195.733 217.435 195.854 217.284 195.854Z" fill="white"/>
<path d="M165.023 370.932C165.023 373.221 163.154 375.11 160.865 375.11H122.123C124.412 375.11 126.301 373.22 126.301 370.932C126.301 368.643 124.411 366.753 122.123 366.753H160.865C163.154 366.754 165.023 368.643 165.023 370.932Z" fill="#943C94"/>
<path d="M151.647 370.932C151.647 373.221 149.779 375.11 147.469 375.11H122.124C124.413 375.11 126.302 373.22 126.302 370.932C126.302 368.643 124.412 366.753 122.124 366.753H147.469C149.779 366.754 151.647 368.643 151.647 370.932Z" fill="#943C94"/>
<path d="M159.557 362.575C159.557 364.864 157.688 366.754 155.399 366.754H116.657C118.946 366.754 120.836 364.864 120.836 362.575C120.836 360.286 118.946 358.396 116.657 358.396H155.399C157.688 358.396 159.557 360.286 159.557 362.575Z" fill="#2E175A"/>
<path d="M146.18 362.575C146.18 364.864 144.312 366.754 142.002 366.754H116.657C118.946 366.754 120.836 364.864 120.836 362.575C120.836 360.286 118.946 358.396 116.657 358.396H142.002C144.312 358.396 146.18 360.286 146.18 362.575Z" fill="#F22D5C"/>
<path d="M163.376 354.218C163.376 356.507 161.507 358.397 159.218 358.397H120.476C122.765 358.397 124.655 356.507 124.655 354.218C124.655 351.929 122.765 350.039 120.476 350.039H159.218C161.508 350.039 163.376 351.929 163.376 354.218Z" fill="white"/>
<path d="M150.001 354.218C150.001 356.507 148.132 358.397 145.822 358.397H120.477C122.766 358.397 124.656 356.507 124.656 354.218C124.656 351.929 122.766 350.039 120.477 350.039H145.822C148.132 350.039 150.001 351.929 150.001 354.218Z" fill="#943C94"/>
<path d="M146.112 352.426H126.825C126.66 352.426 126.527 352.292 126.527 352.129C126.527 351.965 126.659 351.832 126.825 351.832H146.112C146.277 351.832 146.409 351.965 146.409 352.129C146.409 352.293 146.277 352.426 146.112 352.426Z" fill="white"/>
<path d="M147.478 354.324H128.191C128.026 354.324 127.894 354.19 127.894 354.027C127.894 353.863 128.027 353.73 128.191 353.73H147.478C147.643 353.73 147.775 353.864 147.775 354.027C147.776 354.191 147.643 354.324 147.478 354.324Z" fill="white"/>
<path d="M146.417 355.995H127.129C126.964 355.995 126.832 355.861 126.832 355.698C126.832 355.534 126.965 355.4 127.129 355.4H146.416C146.581 355.4 146.713 355.534 146.713 355.698C146.714 355.861 146.581 355.995 146.417 355.995Z" fill="white"/>
<path d="M141.709 361.007H122.422C122.257 361.007 122.125 360.874 122.125 360.71C122.125 360.546 122.258 360.413 122.422 360.413H141.709C141.874 360.413 142.006 360.547 142.006 360.71C142.006 360.873 141.874 361.007 141.709 361.007Z" fill="white"/>
<path d="M143.075 362.905H123.788C123.623 362.905 123.49 362.771 123.49 362.608C123.49 362.444 123.623 362.31 123.788 362.31H143.075C143.24 362.31 143.373 362.444 143.373 362.608C143.373 362.771 143.24 362.905 143.075 362.905Z" fill="white"/>
<path d="M142.011 364.576H122.724C122.559 364.576 122.427 364.443 122.427 364.279C122.427 364.115 122.56 363.982 122.724 363.982H142.011C142.176 363.982 142.308 364.116 142.308 364.279C142.309 364.442 142.176 364.576 142.011 364.576Z" fill="white"/>
<path d="M147.706 369.283H128.419C128.254 369.283 128.121 369.15 128.121 368.986C128.121 368.822 128.254 368.689 128.419 368.689H147.706C147.871 368.689 148.003 368.823 148.003 368.986C148.003 369.149 147.871 369.283 147.706 369.283Z" fill="white"/>
<path d="M149.074 371.181H129.787C129.622 371.181 129.49 371.047 129.49 370.884C129.49 370.72 129.622 370.586 129.787 370.586H149.074C149.239 370.586 149.371 370.72 149.371 370.884C149.372 371.048 149.24 371.181 149.074 371.181Z" fill="white"/>
<path d="M148.01 372.852H128.723C128.558 372.852 128.426 372.719 128.426 372.555C128.426 372.391 128.559 372.257 128.723 372.257H148.01C148.175 372.257 148.307 372.391 148.307 372.555C148.308 372.718 148.175 372.852 148.01 372.852Z" fill="white"/>
<path d="M238.718 69.5972L236.781 73.5462C236.781 73.5462 220.253 71.1272 208.378 74.3912C202.469 74.5042 198.47 75.7772 196.362 79.2832H198.399C198.399 79.2832 207.478 79.1332 211.152 79.7302C216.05 80.5262 225.004 83.8472 233.387 85.3792C237.786 86.1832 242.273 84.5792 245.206 81.2032C248.555 77.3482 252.684 72.3052 253.869 69.5982L238.718 69.5972Z" fill="#FFBFC6"/>
<path d="M197.781 78.5222C197.832 78.5222 197.882 78.5052 197.924 78.4702C199.332 77.2752 202.192 76.6122 204.574 76.9172C204.7 76.9382 204.806 76.8482 204.821 76.7262C204.837 76.6052 204.751 76.4951 204.631 76.4801C202.457 76.1991 199.358 76.6762 197.639 78.1332C197.547 78.2122 197.535 78.3522 197.614 78.4452C197.656 78.4972 197.719 78.5222 197.781 78.5222Z" fill="#F22D5C"/>
<path d="M224.099 83.3581C224.195 83.3581 224.285 83.2941 224.312 83.1961C224.344 83.0791 224.275 82.9571 224.158 82.9261C223.591 82.7691 222.922 82.5781 222.178 82.3661C217.672 81.0781 210.863 79.1321 206.722 79.1321H196.634C196.513 79.1321 196.413 79.2301 196.413 79.3531C196.413 79.4761 196.512 79.5731 196.634 79.5731H206.722C210.801 79.5731 217.847 81.5861 222.057 82.7901C222.802 83.0021 223.473 83.1951 224.04 83.3501C224.06 83.3561 224.08 83.3581 224.099 83.3581Z" fill="white"/>
<path d="M139.689 207.279C141.063 206.223 141.806 203.259 142.91 203.208C144.014 203.157 143.563 205.218 143.338 205.888C143.113 206.557 142.077 208.232 139.689 207.279Z" fill="#F22D5C"/>
<path d="M96.9236 179.163C96.9236 176.255 94.5666 173.897 91.6586 173.897C90.2786 173.897 89.0336 174.44 88.0946 175.308C87.2006 173.478 85.3386 172.207 83.1656 172.207C80.4966 172.207 78.2746 174.108 77.7726 176.629C77.4626 176.58 77.1506 176.534 76.8266 176.534C73.5036 176.534 70.8096 179.228 70.8096 182.551C70.8096 183.73 71.1616 184.823 71.7486 185.751C70.7626 186.957 70.1466 188.477 70.1466 190.156C70.1466 194.02 73.2786 197.152 77.1436 197.152C80.4646 197.152 83.2326 194.832 83.9476 191.727C84.2506 191.767 84.5496 191.819 84.8636 191.819C88.7326 191.819 91.8696 188.682 91.8696 184.813C91.8696 184.675 91.8366 184.546 91.8296 184.41C94.6556 184.32 96.9236 182.013 96.9236 179.163Z" fill="#2E175A"/>
<path d="M117.399 222.792L105.662 213.677C103.929 212.331 101.867 211.473 99.6906 211.192L92.6596 210.283C92.3676 210.245 92.1046 210.091 91.9286 209.855C91.7536 209.619 91.6816 209.322 91.7296 209.031C91.7776 208.741 91.7056 208.444 91.5306 208.208C91.3556 207.972 91.0916 207.818 90.7996 207.78L77.8756 206.109C77.2506 206.028 76.6716 206.45 76.5576 207.07C76.4436 207.69 75.8646 208.112 75.2396 208.031L73.3256 207.783C69.0586 207.232 65.0086 209.813 63.7076 213.915L58.4146 230.6L65.5266 232.069L68.4646 256.575L104.026 259.358L101.784 226.58L110.443 233.615L117.399 222.792Z" fill="#AC63AC"/>
<path d="M117.008 223.4L120.105 225.291L131.592 208.704C132.467 207.44 133.906 206.687 135.443 206.687H140.909C141.505 206.687 142.067 206.411 142.431 205.94L144.517 203.243C144.722 202.978 145.039 202.822 145.374 202.822C145.565 202.822 145.743 202.918 145.848 203.077C145.953 203.236 145.971 203.437 145.897 203.613L144.471 206.96C143.785 208.57 142.229 209.638 140.48 209.699L136.699 209.831L126.011 231.127C124.182 234.772 119.811 236.375 116.084 234.722C114.381 233.967 112.708 233.035 111.519 231.939L117.008 223.4Z" fill="#FFBFC6"/>
<path d="M102.224 259.216L107.375 334.396H97.1706L86.5536 276.777L79.8536 334.396H69.5466L65.3206 262.347L68.4636 256.574L102.224 259.216Z" fill="#D0D0FF"/>
<path d="M87.0696 274.535C87.0556 274.535 87.0416 274.533 87.0266 274.532C86.9006 274.508 86.8166 274.387 86.8406 274.261L88.7986 263.747C88.8226 263.62 88.9366 263.542 89.0696 263.56C89.1956 263.584 89.2796 263.705 89.2556 263.83L87.2976 274.344C87.2776 274.457 87.1796 274.535 87.0696 274.535Z" fill="#9566DA"/>
<path d="M104.18 324.424C104.059 324.424 103.958 324.331 103.948 324.21L99.5166 267.828C99.5066 267.701 99.6016 267.588 99.7296 267.577C99.8666 267.561 99.9706 267.664 99.9796 267.792L104.412 324.174C104.422 324.301 104.327 324.414 104.199 324.425C104.192 324.424 104.185 324.424 104.18 324.424Z" fill="#9566DA"/>
<path d="M78.4106 323.393C78.4026 323.393 78.3936 323.393 78.3846 323.391C78.2576 323.377 78.1656 323.262 78.1806 323.135L84.4686 267.063C84.4816 266.934 84.5826 266.825 84.7256 266.858C84.8526 266.872 84.9446 266.987 84.9306 267.114L78.6416 323.186C78.6286 323.306 78.5276 323.393 78.4106 323.393Z" fill="#9566DA"/>
<path d="M78.4107 331.742H71.2677C71.1397 331.742 71.0347 331.639 71.0347 331.509C71.0347 331.38 71.1397 331.277 71.2677 331.277H78.4107C78.5387 331.277 78.6437 331.381 78.6437 331.509C78.6427 331.639 78.5387 331.742 78.4107 331.742Z" fill="#9566DA"/>
<path d="M105.536 331.742H98.3916C98.2636 331.742 98.1586 331.639 98.1586 331.509C98.1586 331.38 98.2636 331.277 98.3916 331.277H105.536C105.664 331.277 105.768 331.381 105.768 331.509C105.769 331.639 105.664 331.742 105.536 331.742Z" fill="#9566DA"/>
<path d="M110.983 219.328C110.972 219.328 110.961 219.328 110.949 219.326L65.4926 212.689C65.3656 212.669 65.2776 212.551 65.2966 212.426C65.3146 212.299 65.4176 212.201 65.5596 212.228L111.016 218.865C111.143 218.885 111.231 219.003 111.212 219.128C111.196 219.245 111.096 219.328 110.983 219.328Z" fill="#D0D0FF"/>
<path d="M101.106 229.698C101.095 229.698 101.084 229.698 101.072 229.696L61.5246 223.92C61.3976 223.9 61.3096 223.782 61.3286 223.655C61.3456 223.53 61.4576 223.435 61.5916 223.459L101.139 229.235C101.266 229.255 101.354 229.373 101.335 229.499C101.32 229.615 101.22 229.698 101.106 229.698Z" fill="#D0D0FF"/>
<path d="M101.498 240.675C101.487 240.675 101.476 240.675 101.465 240.673L69.8236 236.054C69.6966 236.034 69.6086 235.916 69.6276 235.791C69.6456 235.664 69.7506 235.575 69.8906 235.593L101.532 240.213C101.659 240.233 101.747 240.351 101.728 240.476C101.711 240.592 101.611 240.675 101.498 240.675Z" fill="#D0D0FF"/>
<path d="M102.85 253.239C102.839 253.239 102.828 253.239 102.816 253.237L71.7806 248.704C71.6536 248.684 71.5656 248.566 71.5846 248.441C71.6016 248.314 71.7086 248.22 71.8476 248.243L102.883 252.775C103.01 252.795 103.098 252.913 103.079 253.038C103.063 253.156 102.963 253.239 102.85 253.239Z" fill="#D0D0FF"/>
<path d="M88.5076 197.984L88.7336 201.375L89.1376 207.56L77.8816 206.106C77.8816 206.106 79.8516 197.515 79.5936 193.543C79.5936 193.543 75.3626 192.962 75.9436 188.747C76.5086 184.532 81.6606 187.229 81.6606 187.229C81.6606 187.229 85.5686 186.325 83.4046 182.045C85.8266 184.015 89.2346 184.112 89.6376 181.286C90.3156 183.854 93.2546 183.385 93.2546 183.385C94.1276 189.118 96.5016 199.211 88.5076 197.984Z" fill="#FFBFC6"/>
<path d="M80.0086 188.622C79.9856 188.622 79.9626 188.618 79.9386 188.611L78.1346 188.044C78.0116 188.006 77.9436 187.875 77.9826 187.753C78.0206 187.63 78.1476 187.559 78.2736 187.601L80.0776 188.167C80.2006 188.205 80.2686 188.336 80.2286 188.458C80.1986 188.558 80.1076 188.622 80.0086 188.622Z" fill="#F22D5C"/>
<path d="M88.1566 193.69C86.9176 193.69 85.7566 193.049 85.1006 191.992C85.0326 191.881 85.0666 191.74 85.1756 191.671C85.2846 191.602 85.4276 191.636 85.4946 191.746C86.0936 192.71 87.1756 193.255 88.3026 193.222C88.4426 193.233 88.5396 193.315 88.5456 193.444C88.5506 193.573 88.4516 193.682 88.3246 193.687C88.2676 193.688 88.2116 193.69 88.1566 193.69Z" fill="#F22D5C"/>
<path d="M91.1537 187.155C91.1217 187.155 91.0897 187.148 91.0587 187.135C90.9417 187.082 90.8897 186.944 90.9417 186.828C91.3287 185.965 92.2767 185.493 93.1977 185.709C93.3227 185.738 93.4007 185.863 93.3707 185.989C93.3427 186.114 93.2187 186.192 93.0917 186.163C92.3887 186.002 91.6617 186.357 91.3657 187.017C91.3267 187.104 91.2427 187.155 91.1537 187.155Z" fill="#2E175A"/>
<path d="M88.4666 187.155C88.4026 187.155 88.3366 187.128 88.2916 187.075C87.2786 185.911 85.5796 185.637 84.2566 186.425C84.1456 186.487 84.0026 186.456 83.9376 186.343C83.8726 186.232 83.9086 186.091 84.0186 186.025C85.5416 185.123 87.4836 185.437 88.6416 186.77C88.7256 186.866 88.7156 187.013 88.6186 187.099C88.5756 187.137 88.5206 187.155 88.4666 187.155Z" fill="#2E175A"/>
<path d="M90.2056 185.068C90.1656 185.068 90.1256 185.057 90.0896 185.037C89.9776 184.971 89.9406 184.83 90.0056 184.719C90.3896 184.054 91.1496 183.704 91.9126 183.853C92.0386 183.878 92.1206 184 92.0956 184.127C92.0706 184.252 91.9416 184.325 91.8236 184.311C91.2596 184.191 90.6936 184.46 90.4066 184.952C90.3636 185.026 90.2856 185.068 90.2056 185.068Z" fill="#2E175A"/>
<path d="M85.1507 185.003C85.0787 185.003 85.0077 184.97 84.9617 184.907C84.8867 184.802 84.9107 184.656 85.0147 184.582C85.8777 183.961 86.9657 183.727 88.0177 183.928C88.1427 183.954 88.2257 184.075 88.2007 184.202C88.1767 184.327 88.0527 184.395 87.9277 184.385C87.0117 184.198 86.0477 184.411 85.2887 184.959C85.2457 184.988 85.1987 185.003 85.1507 185.003Z" fill="#2E175A"/>
<path d="M89.9436 190.943H87.6876C87.5596 190.943 87.4556 190.84 87.4556 190.711C87.4556 190.582 87.5596 190.479 87.6876 190.479H89.9436C90.1406 190.479 90.3246 190.372 90.4226 190.201C90.5216 190.03 90.5216 189.818 90.4226 189.647L90.2126 189.284C89.7906 188.556 89.5666 187.726 89.5666 186.884V185.747C89.5666 185.618 89.6716 185.515 89.7986 185.515C89.9266 185.515 90.0306 185.619 90.0306 185.747V186.884C90.0306 187.645 90.2316 188.395 90.6126 189.052L90.8236 189.415C91.0066 189.729 91.0066 190.119 90.8246 190.434C90.6456 190.747 90.3066 190.943 89.9436 190.943Z" fill="#2E175A"/>
<path d="M88.7346 201.375C85.9896 199.195 85.3916 196.628 85.3916 196.628C86.0056 197.209 87.2166 197.597 88.5086 197.984L88.7346 201.375Z" fill="#2E175A"/>
<path d="M87.4457 178.515C87.1897 178.515 86.9447 178.364 86.7907 178.096C86.3137 177.263 87.6587 175.993 87.8137 175.851C87.8747 175.797 87.9587 175.777 88.0357 175.799C88.1137 175.822 88.1747 175.884 88.1947 175.962C88.6007 177.493 88.1857 178.265 87.7057 178.462C87.6207 178.498 87.5327 178.515 87.4457 178.515ZM87.8377 176.489C87.4477 176.921 87.0127 177.547 87.1937 177.865C87.2837 178.021 87.4077 178.082 87.5307 178.032C87.7647 177.936 88.0087 177.45 87.8377 176.489Z" fill="#4A3797"/>
<path d="M78.9346 179.42C78.8596 179.42 78.7826 179.41 78.7036 179.39C77.7736 179.158 77.7866 177.308 77.7916 177.098C77.7936 177.016 77.8376 176.942 77.9076 176.901C77.9796 176.858 78.0656 176.86 78.1366 176.899C79.5226 177.665 79.7926 178.5 79.6036 178.982C79.4936 179.259 79.2396 179.42 78.9346 179.42ZM78.2686 177.523C78.3106 178.104 78.4616 178.851 78.8166 178.94C78.9866 178.978 79.1226 178.935 79.1706 178.812C79.2626 178.576 79.0806 178.064 78.2686 177.523Z" fill="#4A3797"/>
<path d="M73.9136 186.532C73.1976 186.532 72.3376 186.084 72.2056 186.013C72.1336 185.973 72.0887 185.9 72.0837 185.819C72.0797 185.737 72.1187 185.661 72.1867 185.616C73.5017 184.732 74.3677 184.873 74.7097 185.26C74.9537 185.54 74.9346 185.936 74.6626 186.246C74.4786 186.456 74.2076 186.532 73.9136 186.532ZM72.8016 185.78C73.3386 186.01 74.0737 186.217 74.3127 185.94C74.4307 185.806 74.4487 185.666 74.3607 185.568C74.1937 185.377 73.6536 185.308 72.8016 185.78Z" fill="#4A3797"/>
<path d="M72.9476 195.246C72.8976 195.246 72.8466 195.23 72.8036 195.197C72.7026 195.117 72.6847 194.972 72.7647 194.87C73.3877 194.075 73.5166 193.011 73.1016 192.092C72.6866 191.171 71.8036 190.563 70.7956 190.503C70.6676 190.496 70.5696 190.385 70.5766 190.256C70.5846 190.127 70.6786 190.038 70.8226 190.038C72.0036 190.109 73.0386 190.822 73.5246 191.899C74.0116 192.978 73.8606 194.225 73.1296 195.157C73.0846 195.215 73.0166 195.246 72.9476 195.246Z" fill="#4A3797"/>
<path d="M82.6886 186.174C82.5636 186.174 82.4606 186.076 82.4566 185.949C82.4356 185.344 82.2436 184.909 81.8666 184.618C81.1126 184.033 79.5776 184.011 77.1736 184.545C75.7186 184.861 74.3016 184.251 73.4766 182.931C72.4766 181.337 72.6746 179.246 73.9766 177.603C74.0586 177.502 74.2046 177.488 74.3036 177.565C74.4046 177.645 74.4206 177.791 74.3416 177.892C72.9076 179.698 73.1926 181.602 73.8696 182.684C74.5896 183.833 75.8156 184.373 77.0716 184.091C79.6536 183.515 81.2676 183.564 82.1516 184.249C82.6376 184.625 82.8966 185.191 82.9216 185.934C82.9266 186.061 82.8256 186.17 82.6976 186.174C82.6936 186.174 82.6916 186.174 82.6886 186.174Z" fill="#4A3797"/>
<path d="M87.0516 180.899C87.0106 180.899 86.9696 180.898 86.9306 180.896C85.8176 180.853 84.7746 180.192 83.9916 179.037C83.3626 178.108 83.0196 176.991 82.7176 176.007C82.2056 174.338 81.8556 173.412 80.8716 173.57C80.7386 173.581 80.6246 173.503 80.6036 173.378C80.5826 173.251 80.6686 173.131 80.7956 173.11C82.2416 172.882 82.6886 174.328 83.1616 175.869C83.4536 176.823 83.7866 177.904 84.3766 178.774C85.0736 179.804 85.9876 180.392 86.9486 180.43C87.8846 180.446 88.7976 179.993 89.5166 179.095C90.6836 177.637 91.9176 177.47 92.9096 177.336C93.2066 177.295 93.4876 177.258 93.7306 177.187C94.1526 177.065 94.4926 176.766 94.5776 176.444C94.6526 176.16 94.5416 175.864 94.2476 175.562C94.1576 175.471 94.1596 175.322 94.2516 175.234C94.3456 175.144 94.4926 175.149 94.5796 175.237C95.0976 175.768 95.1096 176.251 95.0266 176.562C94.9006 177.044 94.4416 177.465 93.8586 177.633C93.5836 177.713 93.2856 177.753 92.9706 177.796C92.0136 177.925 90.9296 178.072 89.8786 179.385C89.0966 180.366 88.0966 180.899 87.0516 180.899Z" fill="#4A3797"/>
<path d="M95.2116 346.284H69.7186L69.6896 343.805L69.5836 337.055L69.5466 334.395H78.2126C78.6776 335.517 79.0156 336.386 79.3806 337.055C80.3476 338.883 81.6086 339.407 86.7456 340.348C90.2806 340.981 92.3956 342.483 93.6326 343.804C94.8526 345.144 95.2116 346.284 95.2116 346.284Z" fill="#FFBFC6"/>
<path d="M95.2116 346.284H69.7186L69.6896 343.805L69.5836 337.055H79.3806C80.3476 338.883 81.6086 339.407 86.7456 340.348C90.2806 340.981 92.3956 342.483 93.6326 343.804C94.8526 345.144 95.2116 346.284 95.2116 346.284Z" fill="#9566DA"/>
<path d="M95.2116 346.284H69.7186L69.6896 343.805H93.6336C94.8526 345.144 95.2116 346.284 95.2116 346.284Z" fill="#D0D0FF"/>
<path d="M123.197 346.284H97.7036L97.6746 343.805L97.5686 337.055L97.5316 334.395H106.198C106.662 335.517 107.001 336.386 107.366 337.055C108.333 338.883 109.594 339.407 114.731 340.348C118.266 340.981 120.381 342.483 121.618 343.804C122.838 345.144 123.197 346.284 123.197 346.284Z" fill="#FFBFC6"/>
<path d="M123.197 346.284H97.7036L97.6746 343.805L97.5686 337.055H107.366C108.333 338.883 109.594 339.407 114.731 340.348C118.266 340.981 120.381 342.483 121.618 343.804C122.838 345.144 123.197 346.284 123.197 346.284Z" fill="#943C94"/>
<path d="M123.197 346.284H97.7036L97.6746 343.805H121.619C122.838 345.144 123.197 346.284 123.197 346.284Z" fill="#D0D0FF"/>
<path d="M69.9666 232.985L67.7426 239.361L74.1856 257.022L69.1126 265.097L58.9676 239.878C58.2396 238.069 58.1076 236.074 58.5916 234.185L59.4536 230.814L69.9666 232.985Z" fill="#FFBFC6"/>
<path d="M68.3476 266.547C68.3046 266.547 68.2626 266.536 68.2236 266.511C68.1146 266.444 68.0816 266.3 68.1496 266.191L73.9876 256.897C74.0566 256.788 74.2026 256.755 74.3086 256.824C74.4176 256.891 74.4506 257.035 74.3816 257.144L68.5436 266.438C68.5006 266.509 68.4246 266.547 68.3476 266.547Z" fill="#2E175A"/>
<path d="M71.0536 233.443C71.0386 233.443 71.0226 233.441 71.0066 233.438L59.4066 231.041C59.2816 231.015 59.2006 230.892 59.2256 230.767C59.2516 230.643 59.3686 230.56 59.5006 230.587L70.8816 232.938L73.4956 222.464C73.5266 222.34 73.6496 222.262 73.7766 222.295C73.9006 222.326 73.9776 222.451 73.9456 222.577L71.2786 233.267C71.2526 233.372 71.1576 233.443 71.0536 233.443Z" fill="#2E175A"/>
<path d="M101.361 225.602C101.274 225.602 101.19 225.553 101.151 225.469L98.0646 218.941C98.0096 218.825 98.0596 218.685 98.1756 218.63C98.2916 218.577 98.4306 218.624 98.4846 218.741L101.571 225.269C101.626 225.385 101.576 225.525 101.46 225.58C101.429 225.595 101.395 225.602 101.361 225.602Z" fill="#2E175A"/>
<path d="M121.576 135.503H151.103C157.727 135.503 163.146 140.922 163.146 147.546V164.462C163.146 171.086 157.726 176.505 151.103 176.505H120.607L109.533 188.645V176.505V172.674V147.546C109.533 140.922 114.952 135.503 121.576 135.503Z" fill="white"/>
<path d="M132.051 142.735C126.829 142.735 122.576 146.984 122.576 152.21C122.576 153.223 124.126 153.239 124.126 152.21C124.126 150.026 125.014 148.045 126.45 146.609C129.548 143.511 134.55 143.508 137.652 146.609C141.747 150.704 140.172 157.583 134.895 159.609C131.694 160.842 130.774 164.695 131.502 165.425C131.986 165.91 132.825 165.57 132.825 164.878C132.825 164.038 133.089 163.233 133.55 162.562C134.011 161.891 134.668 161.357 135.451 161.056C145.237 157.293 142.463 142.735 132.051 142.735Z" fill="#2E175A"/>
<path d="M131.125 169.152C131.125 170.383 132.98 170.363 132.98 169.152C132.979 167.942 131.125 167.922 131.125 169.152Z" fill="#2E175A"/>
<path d="M106.051 187.06V144.993C106.051 138.146 111.622 132.575 118.469 132.575H147.995C154.843 132.575 160.413 138.146 160.413 144.993V161.91C160.413 168.757 154.842 174.328 147.995 174.328H117.665L106.051 187.06ZM118.469 133.324C112.035 133.324 106.801 138.558 106.801 144.992V185.124L117.334 173.577H147.995C154.429 173.577 159.663 168.343 159.663 161.909V144.992C159.663 138.558 154.429 133.324 147.995 133.324H118.469Z" fill="#2E175A"/>
<path d="M72.7547 357.552L49.3447 368.455L46.5657 362.149L63.9897 344.725L72.7547 357.552Z" fill="#2E175A"/>
<path d="M70.3136 343.389L88.1736 337.612C92.4206 336.238 97.0276 338.223 98.9476 342.252C101.091 346.75 99.1236 352.132 94.5836 354.187L68.1486 366.157L62.2966 357.338L74.6426 351.726L70.3136 343.389Z" fill="#2E175A"/>
<path d="M67.7086 292.187C71.3826 283.529 56.0436 276.367 51.6606 281.818C46.9576 282.513 47.4386 294.805 53.8516 298.333L67.7086 292.187Z" fill="#2E175A"/>
<path d="M33.6687 355.949C30.6267 355.949 28.3287 353.192 28.8757 350.2L35.5757 313.583C36.7507 307.159 42.7607 303.112 48.8607 303.931C49.6877 302.875 51.1317 302.525 52.3497 303.086L60.9097 307.028C61.8717 307.471 62.5367 308.38 62.6677 309.43L65.0937 310.487C67.1697 311.391 68.8027 313.081 69.6357 315.187L78.0627 336.494L48.9887 355.949H33.6687Z" fill="#F22D5C"/>
<path d="M60.3677 313.613C60.8007 313.613 61.2317 313.561 61.6557 313.448C61.7677 313.417 61.8337 313.302 61.8037 313.191C61.7737 313.08 61.6537 313.014 61.5477 313.042C57.9737 313.999 53.8527 310.342 51.1907 306.604C51.1247 306.509 50.9927 306.488 50.8987 306.555C50.8037 306.622 50.7817 306.753 50.8487 306.846C53.2847 310.267 56.9317 313.613 60.3677 313.613Z" fill="#2E175A"/>
<path d="M70.3137 343.389C70.3137 343.389 89.5547 338.608 94.8997 334.184C96.5967 332.779 97.5717 331.271 98.1117 329.867C99.0497 327.429 96.5817 325.058 94.1617 326.041L63.8197 338.365L70.3137 343.389Z" fill="#F22D5C"/>
<path d="M39.8496 330.161C39.8496 330.161 71.5436 330.161 78.0646 330.161C84.5846 330.161 85.2266 324.308 91.4796 324.308L90.5576 326.072H98.0136C98.0136 326.072 100.058 325.912 100.058 326.914C100.058 327.916 90.4776 328.918 90.4776 328.918C90.4776 328.918 97.3316 328.798 97.4526 329.84C97.5726 330.882 94.8076 331.363 94.8076 331.363C94.8076 331.363 95.6496 332.606 92.1616 333.928C88.6746 335.251 85.7076 336.694 80.4976 336.694L50.9946 342.266C50.9926 342.267 43.6976 338.899 39.8496 330.161Z" fill="#FFBFC6"/>
<path d="M87.1097 332.816C87.1217 332.816 87.1327 332.815 87.1447 332.813L93.9597 331.65C94.0737 331.63 94.1507 331.522 94.1307 331.408C94.1107 331.295 94.0127 331.22 93.8897 331.238L87.0747 332.401C86.9607 332.42 86.8847 332.528 86.9037 332.643C86.9207 332.744 87.0087 332.816 87.1097 332.816Z" fill="#F22D5C"/>
<path d="M83.1417 353.35C83.1767 353.35 83.2117 353.342 83.2437 353.324L91.4747 348.702C91.5757 348.645 91.6107 348.517 91.5547 348.416C91.4987 348.315 91.3687 348.28 91.2707 348.336L83.0396 352.958C82.9376 353.015 82.9027 353.143 82.9597 353.244C82.9977 353.311 83.0687 353.35 83.1417 353.35Z" fill="#F22D5C"/>
<path d="M77.6417 347.847C77.6767 347.847 77.7117 347.839 77.7447 347.819L88.1617 341.913C88.2627 341.856 88.2977 341.728 88.2407 341.628C88.1837 341.525 88.0577 341.489 87.9557 341.55L77.5387 347.455C77.4377 347.512 77.4027 347.64 77.4597 347.74C77.4977 347.809 77.5687 347.847 77.6417 347.847Z" fill="#F22D5C"/>
<path d="M46.5257 321.88C49.9867 321.88 52.8657 320.432 55.6937 319.01C60.0007 316.845 64.0697 314.794 69.8427 318.393C69.9407 318.454 70.0697 318.424 70.1307 318.326C70.1927 318.228 70.1617 318.099 70.0637 318.037C64.0917 314.318 59.9217 316.416 55.5047 318.636C50.3407 321.236 44.9977 323.917 36.1257 317.326C36.0317 317.259 35.9027 317.279 35.8327 317.37C35.7637 317.462 35.7837 317.594 35.8757 317.663C40.0917 320.792 43.5277 321.88 46.5257 321.88Z" fill="#FFBFC6"/>
<path d="M46.2276 328.803C50.1096 328.803 53.3386 327.357 56.5106 325.938C61.3656 323.766 65.9506 321.714 72.4566 325.323C72.5576 325.379 72.6836 325.341 72.7416 325.241C72.7976 325.14 72.7616 325.012 72.6596 324.957C65.9696 321.251 61.2906 323.34 56.3396 325.557C50.5246 328.159 44.5106 330.849 34.5126 324.244C34.4186 324.183 34.2876 324.206 34.2226 324.303C34.1586 324.399 34.1856 324.53 34.2826 324.594C39.0116 327.718 42.8646 328.803 46.2276 328.803Z" fill="#FFBFC6"/>
<path d="M44.6287 311.418C45.6527 311.418 46.5877 311.182 47.6187 310.926C48.9057 310.602 50.3717 310.244 52.3527 310.275C52.4757 310.283 52.5627 310.185 52.5667 310.069C52.5687 309.955 52.4767 309.858 52.3617 309.857C50.3097 309.823 48.8307 310.191 47.5177 310.519C45.2367 311.093 43.4347 311.541 39.9617 309.379C39.8637 309.318 39.7357 309.348 39.6737 309.446C39.6127 309.544 39.6427 309.673 39.7407 309.735C41.7927 311.014 43.2867 311.418 44.6287 311.418Z" fill="#FFBFC6"/>
<path d="M41.3137 336.733C41.6297 336.733 41.9477 336.723 42.2667 336.704C42.3817 336.696 42.4697 336.596 42.4627 336.482C42.4557 336.368 42.3377 336.281 42.2407 336.286C38.4697 336.523 34.9597 335.3 33.2787 333.159C33.2077 333.069 33.0757 333.054 32.9847 333.123C32.8937 333.195 32.8777 333.326 32.9497 333.417C34.5687 335.477 37.7837 336.733 41.3137 336.733Z" fill="#FFBFC6"/>
<path d="M39.1426 343.75C39.6776 343.75 40.2226 343.701 40.7716 343.595C40.8856 343.572 40.9586 343.463 40.9366 343.348C40.9146 343.235 40.8036 343.165 40.6916 343.183C36.6786 343.981 32.9006 341.471 31.9986 340.295C31.9296 340.2 31.7986 340.188 31.7056 340.256C31.6136 340.328 31.5966 340.459 31.6676 340.55C32.4906 341.622 35.5936 343.75 39.1426 343.75Z" fill="#FFBFC6"/>
<path d="M53.4297 295.921C53.1677 297.983 52.4137 301.496 51.9997 303.349C51.8017 304.239 51.9617 305.171 52.4247 305.957C53.9777 308.592 56.2067 310.203 58.0797 311.161C59.5747 311.926 61.3007 310.659 61.0227 309.002L60.3787 305.165L59.9937 302.82C61.2327 304.428 65.7207 305.7 67.5297 300.358C69.3547 295.016 67.5797 287.112 62.2377 287.112C56.8957 287.112 57.3817 291.918 57.3817 291.918C57.3817 291.918 54.0657 287.38 52.1897 289.506C49.2767 292.84 53.4297 295.921 53.4297 295.921Z" fill="#FFBFC6"/>
<path d="M60.3797 305.165L59.9947 302.82C58.6547 301.011 58.1357 299.772 58.1357 299.772C58.1357 299.772 56.9127 303.474 60.3797 305.165Z" fill="#2E175A"/>
<path d="M55.7767 292.397C55.8507 292.397 55.9217 292.358 55.9597 292.289C56.0157 292.187 55.9797 292.06 55.8777 292.004L53.3657 290.614C53.2647 290.558 53.1387 290.594 53.0807 290.696C53.0247 290.797 53.0607 290.925 53.1627 290.98L55.6747 292.37C55.7077 292.388 55.7427 292.397 55.7767 292.397Z" fill="#F22D5C"/>
<path d="M64.1677 298.917C64.2707 298.917 64.3607 298.84 64.3757 298.735C64.3907 298.62 64.3107 298.516 64.1967 298.499C62.6617 298.291 61.3437 297.335 60.6687 295.943C60.6197 295.84 60.4927 295.794 60.3887 295.847C60.2847 295.898 60.2417 296.022 60.2917 296.127C61.0277 297.645 62.4657 298.688 64.1397 298.915C64.1497 298.917 64.1587 298.917 64.1677 298.917Z" fill="#F22D5C"/>
<path d="M65.9846 290.954C66.0266 290.954 66.0686 290.941 66.1056 290.916C66.1996 290.849 66.2226 290.718 66.1556 290.623C65.3366 289.46 63.8466 289.033 62.5366 289.588C62.4296 289.632 62.3796 289.755 62.4246 289.863C62.4696 289.97 62.5926 290.02 62.6986 289.974C63.8296 289.496 65.1096 289.868 65.8136 290.865C65.8546 290.923 65.9196 290.954 65.9846 290.954Z" fill="#2E175A"/>
<path d="M67.1607 292.722C67.8707 293.343 68.6627 294.439 69.2277 295.294C69.6497 295.932 69.3077 296.805 68.5577 296.96C67.9477 297.086 67.2067 297.163 66.4657 297.051L67.1607 292.722Z" fill="#FFBFC6"/>
<path d="M61.2837 291.165C61.3677 292.153 61.8867 293.024 62.6567 293.593C62.7737 293.693 62.9077 293.777 63.0417 293.844C64.0467 294.38 65.2527 294.38 66.2567 293.844C66.0727 292.755 65.4027 291.801 64.4307 291.282C64.3637 291.248 64.3137 291.215 64.2467 291.198C63.3097 290.746 62.2217 290.746 61.2837 291.165Z" fill="white"/>
<path d="M62.6566 293.593C62.7736 293.693 62.9076 293.777 63.0416 293.844C64.0466 294.38 65.2526 294.38 66.2566 293.844C66.0726 292.755 65.4026 291.801 64.4306 291.282C64.3636 291.248 64.3136 291.215 64.2466 291.198C63.3606 291.634 62.7236 292.538 62.6566 293.593Z" fill="#2E175A"/>
<path d="M49.6297 281.708C49.6987 281.708 49.7657 281.674 49.8057 281.612C49.8137 281.6 50.6387 280.354 52.3827 280.127C52.4967 280.112 52.5787 280.008 52.5637 279.891C52.5477 279.777 52.4457 279.683 52.3287 279.711C50.3837 279.964 49.4907 281.328 49.4527 281.386C49.3907 281.482 49.4187 281.612 49.5167 281.676C49.5517 281.696 49.5907 281.708 49.6297 281.708Z" fill="#2E175A"/>
<path d="M45.5146 277.035C45.5146 278.762 46.9146 280.162 48.6416 280.162C50.3686 280.162 51.7686 278.762 51.7686 277.035C51.7686 275.308 50.3686 273.908 48.6416 273.908C46.9146 273.908 45.5146 275.308 45.5146 277.035Z" fill="#2E175A"/>
<path d="M77.2097 365.352L78.8177 366.826L85.6337 373.056H108.878C108.878 373.056 105.696 368.216 93.9227 365.352C90.0547 364.414 86.7547 363.225 84.1087 361.216C83.5897 360.831 83.1037 360.429 82.6517 359.977L77.2097 365.352Z" fill="#FFBFC6"/>
<path d="M78.8176 366.826L80.0236 367.931L85.6336 373.056H108.878C108.878 373.056 105.696 368.216 93.9226 365.352C90.9756 364.632 88.3456 363.778 86.1016 362.505C85.3986 362.12 84.7286 361.684 84.1086 361.215C82.3346 363.293 80.3416 365.336 78.8176 366.826Z" fill="#F22D5C"/>
<path d="M80.0237 367.931L82.8207 370.493L85.6347 373.055H108.879C108.879 373.055 108.142 371.966 106.116 370.493C103.889 368.885 100.087 366.859 93.9247 365.352C90.9777 364.632 88.3477 363.778 86.1037 362.505C84.8297 364.046 82.5017 366.575 80.0237 367.931Z" fill="#943C94"/>
<path d="M82.8197 370.494L85.6337 373.056H108.878C108.878 373.056 108.141 371.967 106.115 370.494H82.8197Z" fill="#2E175A"/>
<path d="M94.1037 368.031C94.1797 368.031 94.2537 367.988 94.2897 367.916L94.9847 366.544C95.0367 366.441 94.9957 366.315 94.8927 366.263C94.7897 366.209 94.6627 366.253 94.6117 366.354L93.9167 367.726C93.8647 367.829 93.9047 367.955 94.0077 368.007C94.0387 368.025 94.0717 368.031 94.1037 368.031Z" fill="#D0D0FF"/>
<path d="M91.9176 367.411C91.9936 367.411 92.0676 367.368 92.1036 367.296L92.7976 365.924C92.8496 365.821 92.8086 365.695 92.7056 365.643C92.6026 365.589 92.4756 365.633 92.4246 365.734L91.7306 367.106C91.6786 367.209 91.7186 367.335 91.8216 367.387C91.8526 367.405 91.8856 367.411 91.9176 367.411Z" fill="#D0D0FF"/>
<path d="M89.8516 366.94C89.9276 366.94 90.0016 366.897 90.0376 366.825L90.7326 365.451C90.7846 365.348 90.7436 365.222 90.6416 365.17C90.5386 365.116 90.4126 365.16 90.3606 365.261L89.6656 366.635C89.6136 366.738 89.6546 366.864 89.7576 366.916C89.7876 366.934 89.8206 366.94 89.8516 366.94Z" fill="#D0D0FF"/>
<path d="M98.4267 370.134C98.5407 370.134 98.6337 370.042 98.6357 369.93C98.6507 369.181 98.9847 368.471 99.5527 367.981C99.6397 367.906 99.6497 367.773 99.5747 367.685C99.4977 367.6 99.3667 367.589 99.2797 367.664C98.6217 368.232 98.2347 369.054 98.2177 369.921C98.2157 370.037 98.3067 370.134 98.4227 370.135C98.4227 370.135 98.4247 370.134 98.4267 370.134Z" fill="#D0D0FF"/>
<path d="M67.2177 297.316C67.6567 297.316 68.1197 297.265 68.6007 297.164C69.0197 297.079 69.3557 296.801 69.5207 296.402C69.6877 296 69.6437 295.542 69.4027 295.177C68.8467 294.34 68.0317 293.206 67.2987 292.565C67.2117 292.486 67.0797 292.496 67.0027 292.584C66.9267 292.671 66.9357 292.803 67.0227 292.879C67.7207 293.491 68.5127 294.591 69.0537 295.409C69.2167 295.656 69.2477 295.968 69.1337 296.242C69.0227 296.51 68.7977 296.697 68.5167 296.755C67.7877 296.907 67.1097 296.938 66.4977 296.843C66.3777 296.827 66.2767 296.903 66.2587 297.02C66.2417 297.135 66.3197 297.241 66.4337 297.259C66.6857 297.296 66.9477 297.316 67.2177 297.316Z" fill="#2E175A"/>
<path d="M85.1457 357.499C85.1457 357.499 76.0387 345.988 68.6017 338.096C64.6067 333.857 58.2007 332.955 53.1877 335.922C46.7537 339.731 39.8437 346.091 31.6957 355.004C27.7057 359.369 28.2767 366.216 32.9117 369.887C37.2287 373.306 43.4777 372.689 47.0427 368.491L61.4157 351.565L77.2087 365.354L85.1457 357.499Z" fill="#2E175A"/>
<path d="M80.4956 356.158C80.5466 356.158 80.5966 356.14 80.6366 356.102C80.7216 356.023 80.7276 355.893 80.6496 355.806C80.5346 355.682 69.1636 343.339 62.3976 339.597C62.2976 339.54 62.1696 339.577 62.1126 339.679C62.0576 339.78 62.0936 339.908 62.1946 339.963C68.9016 343.672 80.2266 355.966 80.3406 356.09C80.3826 356.135 80.4396 356.158 80.4956 356.158Z" fill="#F22D5C"/>
<path d="M62.2967 350.653C62.3677 350.653 62.4387 350.617 62.4767 350.55L63.9997 347.971C64.0587 347.871 64.0257 347.744 63.9257 347.685C63.8237 347.629 63.6967 347.657 63.6397 347.758L62.1167 350.337C62.0577 350.437 62.0907 350.565 62.1907 350.623C62.2247 350.643 62.2607 350.653 62.2967 350.653Z" fill="#F22D5C"/>
<path d="M60.7736 350.173C60.7886 350.173 60.8036 350.171 60.8196 350.168C60.9326 350.143 61.0036 350.031 60.9776 349.918L60.3366 347.031C60.3106 346.92 60.2006 346.853 60.0866 346.872C59.9736 346.897 59.9026 347.009 59.9276 347.122L60.5686 350.009C60.5916 350.105 60.6766 350.173 60.7736 350.173Z" fill="#F22D5C"/>
<path d="M45.5757 371.816C47.4007 376.254 52.0897 374.144 56.9297 370.878C59.5257 369.136 62.1717 367.06 64.4317 365.486C65.2527 364.916 66.0227 364.414 66.7257 364.012L62.9247 358.268C62.3057 358.703 61.6186 359.105 60.8976 359.474C57.7656 361.115 53.8477 362.338 50.6997 363.828C46.7317 365.671 43.9677 367.915 45.5757 371.816Z" fill="#FFBFC6"/>
<path d="M45.5756 371.816C47.4006 376.254 52.0896 374.144 56.9296 370.878C58.6876 369.706 60.4636 368.366 62.1216 367.143C62.9256 366.557 63.6956 366.004 64.4326 365.485L60.8986 359.473C60.1786 359.858 59.4086 360.21 58.6216 360.545C56.0086 361.684 53.1286 362.672 50.7006 363.827C46.7316 365.671 43.9676 367.915 45.5756 371.816Z" fill="#F22D5C"/>
<path d="M45.5756 371.816C47.4006 376.254 52.0896 374.144 56.9296 370.878C58.6876 369.706 60.4636 368.366 62.1216 367.143C60.4806 365.251 59.2246 362.169 58.6216 360.545C56.0086 361.684 53.1286 362.672 50.7006 363.827C46.7316 365.671 43.9676 367.915 45.5756 371.816Z" fill="#943C94"/>
<path d="M45.5757 371.816C47.4007 376.254 52.0897 374.144 56.9297 370.878C52.0397 373.34 47.7026 373.943 46.4966 370.928C45.4746 368.383 47.1997 366.122 50.6997 363.828C46.7317 365.671 43.9677 367.915 45.5757 371.816Z" fill="#2E175A"/>
<path d="M51.4337 372.304C51.5307 372.304 51.6187 372.235 51.6387 372.137C52.1327 369.744 51.2927 367.264 49.4477 365.661C49.3607 365.586 49.2287 365.594 49.1527 365.682C49.0767 365.769 49.0857 365.901 49.1727 365.978C50.9037 367.479 51.6907 369.808 51.2277 372.052C51.2047 372.165 51.2777 372.276 51.3907 372.299C51.4057 372.303 51.4197 372.304 51.4337 372.304Z" fill="#D0D0FF"/>
<path d="M53.9996 367.655C54.0286 367.655 54.0596 367.648 54.0876 367.635C54.1926 367.586 54.2386 367.462 54.1886 367.357L52.8656 364.505C52.8166 364.4 52.6916 364.356 52.5876 364.404C52.4826 364.453 52.4376 364.577 52.4866 364.682L53.8096 367.534C53.8456 367.611 53.9216 367.655 53.9996 367.655Z" fill="#D0D0FF"/>
<path d="M55.9177 366.89C55.9467 366.89 55.9777 366.883 56.0057 366.87C56.1107 366.821 56.1557 366.697 56.1067 366.592L54.7847 363.74C54.7357 363.635 54.6107 363.593 54.5067 363.639C54.4017 363.688 54.3567 363.812 54.4057 363.917L55.7277 366.769C55.7637 366.846 55.8397 366.89 55.9177 366.89Z" fill="#D0D0FF"/>
<path d="M57.9966 365.993C58.0256 365.993 58.0566 365.986 58.0846 365.973C58.1896 365.924 58.2346 365.8 58.1856 365.695L56.8626 362.843C56.8136 362.739 56.6886 362.696 56.5846 362.742C56.4796 362.791 56.4336 362.915 56.4826 363.02L57.8056 365.872C57.8416 365.949 57.9186 365.993 57.9966 365.993Z" fill="#D0D0FF"/>
<path d="M39.8496 330.371H52.3566C52.4716 330.371 52.5666 330.278 52.5666 330.162V315.383C52.5666 315.267 52.4726 315.174 52.3566 315.174C52.2416 315.174 52.1476 315.267 52.1476 315.383V329.953H39.8496C39.7346 329.953 39.6406 330.046 39.6406 330.162C39.6396 330.278 39.7346 330.371 39.8496 330.371Z" fill="#2E175A"/>
<path d="M68.9247 329.969C69.0397 329.969 69.1337 329.876 69.1337 329.76V322.772C69.1337 322.656 69.0397 322.563 68.9247 322.563C68.8097 322.563 68.7157 322.656 68.7157 322.772V329.76C68.7147 329.875 68.8087 329.969 68.9247 329.969Z" fill="#2E175A"/>
<path d="M83.4056 358.937C83.4606 358.937 83.5146 358.916 83.5556 358.873L85.1596 357.231C85.2346 357.154 85.2396 357.033 85.1706 356.951L72.2236 341.438C72.1486 341.351 72.0156 341.34 71.9286 341.412C71.8396 341.485 71.8277 341.618 71.9017 341.706L84.7286 357.074L83.2576 358.582C83.1766 358.664 83.1786 358.796 83.2606 358.878C83.3006 358.917 83.3526 358.937 83.4056 358.937Z" fill="#F22D5C"/>
<path d="M74.0257 362.625C74.0847 362.625 74.1427 362.6 74.1847 362.551C74.2597 362.464 74.2497 362.332 74.1627 362.257L61.5517 351.407C61.5097 351.369 61.4547 351.355 61.3987 351.356C61.3427 351.361 61.2917 351.387 61.2557 351.43L52.1417 362.199C52.0667 362.288 52.0777 362.42 52.1667 362.495C52.2547 362.569 52.3867 362.56 52.4607 362.47L61.4387 351.861L73.8897 362.573C73.9287 362.608 73.9777 362.625 74.0257 362.625Z" fill="#F22D5C"/>
<path d="M102.851 315.383L97.2626 326.072H90.5566L96.1446 315.383H102.851Z" fill="#2E175A"/>
<path d="M70.1506 338.895C70.1636 338.895 70.1766 338.894 70.1896 338.892L80.5346 336.902C80.5586 336.9 86.9566 337.036 94.1926 333.206C94.2946 333.152 94.3336 333.026 94.2796 332.923C94.2246 332.823 94.0966 332.784 93.9966 332.837C86.8656 336.611 80.5706 336.489 80.5016 336.487L70.1116 338.48C69.9976 338.503 69.9236 338.612 69.9456 338.725C69.9646 338.824 70.0516 338.895 70.1506 338.895Z" fill="white"/>
<path d="M80.8667 367.622C80.9047 367.622 80.9417 367.612 80.9767 367.591C81.8007 367.084 85.2887 364.155 85.9877 363.063C86.0497 362.965 86.0207 362.835 85.9237 362.773C85.8277 362.714 85.6977 362.739 85.6347 362.837C84.9777 363.864 81.5417 366.752 80.7577 367.235C80.6597 367.295 80.6287 367.425 80.6887 367.523C80.7277 367.586 80.7967 367.622 80.8667 367.622Z" fill="#D0D0FF"/>
<path d="M61.6396 366.795C61.6876 366.795 61.7366 366.779 61.7766 366.744C61.8646 366.669 61.8736 366.536 61.7986 366.45C61.3296 365.902 59.2676 362.384 59.0406 361.097C59.0206 360.984 58.9206 360.911 58.7986 360.927C58.6836 360.947 58.6076 361.056 58.6286 361.169C58.8766 362.58 60.9686 366.123 61.4816 366.721C61.5216 366.77 61.5806 366.795 61.6396 366.795Z" fill="#D0D0FF"/>
<path d="M226.957 42.6782C226.872 42.6322 226.818 42.5432 226.818 42.4462V29.4792C226.818 27.0292 224.824 25.0352 222.374 25.0352H205.116C202.665 25.0352 200.671 27.0292 200.671 29.4792V42.0892C200.671 44.5392 202.665 46.5332 205.116 46.5332H234.116L226.957 42.6782Z" fill="white"/>
<path d="M200.143 42.0892V29.4792C200.143 26.7372 202.374 24.5072 205.116 24.5072H222.374C225.116 24.5072 227.346 26.7372 227.346 29.4792V42.2882L235.288 46.5652C235.395 46.6222 235.449 46.7442 235.419 46.8622C235.39 46.9792 235.284 47.0612 235.163 47.0612H205.116C202.374 47.0612 200.143 44.8312 200.143 42.0892ZM226.957 42.6782C226.872 42.6322 226.818 42.5432 226.818 42.4462V29.4792C226.818 27.0292 224.824 25.0352 222.374 25.0352H205.116C202.665 25.0352 200.671 27.0292 200.671 29.4792V42.0892C200.671 44.5392 202.665 46.5332 205.116 46.5332H234.116L226.957 42.6782Z" fill="#2E175A"/>
<path d="M213.772 29.7292C211.411 29.7292 209.489 31.6502 209.489 34.0122C209.489 34.4702 210.19 34.4772 210.19 34.0122C210.19 33.0252 210.592 32.1292 211.241 31.4802C212.641 30.0802 214.903 30.0782 216.305 31.4802C218.156 33.3312 217.444 36.4412 215.059 37.3572C213.612 37.9142 213.196 39.6562 213.525 39.9862C213.744 40.2052 214.123 40.0522 214.123 39.7392C214.123 39.3592 214.242 38.9952 214.451 38.6922C214.659 38.3892 214.956 38.1472 215.31 38.0112C219.733 36.3112 218.479 29.7292 213.772 29.7292Z" fill="#2E175A"/>
<path d="M213.353 41.6722C213.353 42.2292 214.191 42.2192 214.191 41.6722C214.192 41.1242 213.353 41.1152 213.353 41.6722Z" fill="#2E175A"/>
<path d="M248.786 391.842C252.484 383.887 260.46 378.799 269.233 378.799C278.006 378.799 285.982 383.887 289.68 391.842H248.786Z" fill="#943C94"/>
<path d="M266.517 382.819H276.124L292.603 350.903H282.997L266.517 382.819Z" fill="#943C94"/>
<path d="M245.573 366.861H301.478L317.957 334.945H262.052L245.573 366.861Z" fill="#2E175A"/>
<path d="M299.298 365.869C299.251 365.869 299.204 365.857 299.161 365.836C299.013 365.759 298.956 365.578 299.032 365.43L314.177 336.098C314.252 335.95 314.436 335.897 314.58 335.969C314.728 336.047 314.785 336.227 314.709 336.375L299.564 365.707C299.512 365.81 299.407 365.869 299.298 365.869Z" fill="white"/>
<path d="M274.6 338.816H297.022C298.62 338.816 299.243 340.123 298.407 341.721L297.088 344.24C296.252 345.838 294.261 347.145 292.663 347.145H270.007L265.804 350.073L267.336 347.145L267.819 346.221L270.174 341.721C271.011 340.123 273.002 338.816 274.6 338.816Z" fill="white"/>
<path d="M290.14 351.969H267.718C266.12 351.969 264.129 353.276 263.293 354.874L261.975 357.394C261.139 358.992 261.762 360.299 263.36 360.299H286.016L287.155 363.227L288.687 360.299L289.17 359.375L291.525 354.875C292.36 353.276 291.737 351.969 290.14 351.969Z" fill="white"/>
<path d="M321.758 142.861C316.897 142.861 312.943 138.907 312.943 134.046C312.943 129.185 316.897 125.231 321.758 125.231C326.618 125.231 330.573 129.185 330.573 134.046C330.573 138.907 326.618 142.861 321.758 142.861ZM321.758 125.993C317.317 125.993 313.704 129.606 313.704 134.047C313.704 138.487 317.317 142.1 321.758 142.1C326.198 142.1 329.812 138.487 329.812 134.047C329.812 129.606 326.198 125.993 321.758 125.993Z" fill="#D0D0FF"/>
<path d="M65.5936 121.857C60.7326 121.857 56.7776 117.903 56.7776 113.042C56.7776 108.182 60.7316 104.227 65.5936 104.227C70.4536 104.227 74.4086 108.181 74.4086 113.042C74.4076 117.902 70.4536 121.857 65.5936 121.857ZM65.5936 104.988C61.1526 104.988 57.5396 108.601 57.5396 113.042C57.5396 117.482 61.1526 121.096 65.5936 121.096C70.0336 121.096 73.6466 117.483 73.6466 113.042C73.6466 108.601 70.0336 104.988 65.5936 104.988Z" fill="#D0D0FF"/>
<path d="M337.447 149.468C335.615 149.468 334.125 147.978 334.125 146.146C334.125 144.314 335.615 142.824 337.447 142.824C339.279 142.824 340.769 144.314 340.769 146.146C340.769 147.978 339.278 149.468 337.447 149.468ZM337.447 143.417C335.942 143.417 334.717 144.641 334.717 146.147C334.717 147.652 335.941 148.877 337.447 148.877C338.952 148.877 340.177 147.653 340.177 146.147C340.176 144.641 338.952 143.417 337.447 143.417Z" fill="#D0D0FF"/>
<path d="M38.9436 217.744C37.1116 217.744 35.6216 216.254 35.6216 214.422C35.6216 212.591 37.1116 211.1 38.9436 211.1C40.7756 211.1 42.2656 212.59 42.2656 214.422C42.2656 216.253 40.7756 217.744 38.9436 217.744ZM38.9436 211.692C37.4386 211.692 36.2136 212.916 36.2136 214.422C36.2136 215.928 37.4376 217.152 38.9436 217.152C40.4486 217.152 41.6736 215.928 41.6736 214.422C41.6736 212.916 40.4486 211.692 38.9436 211.692Z" fill="#D0D0FF"/>
<path d="M151.729 45.5982C149.898 45.5982 148.407 44.1082 148.407 42.2762C148.407 40.4442 149.897 38.9542 151.729 38.9542C153.561 38.9542 155.051 40.4442 155.051 42.2762C155.051 44.1072 153.561 45.5982 151.729 45.5982ZM151.729 39.5462C150.224 39.5462 148.999 40.7702 148.999 42.2762C148.999 43.7812 150.223 45.0062 151.729 45.0062C153.234 45.0062 154.459 43.7822 154.459 42.2762C154.459 40.7702 153.235 39.5462 151.729 39.5462Z" fill="#D0D0FF"/>
<path d="M74.0646 91.8622C73.4406 87.5502 69.7306 84.2382 65.2456 84.2382C64.7936 84.2382 64.3536 84.2822 63.9196 84.3472C63.9266 84.1842 63.9446 84.0242 63.9446 83.8602C63.9446 77.5502 58.8286 72.4342 52.5186 72.4342C47.5036 72.4342 43.2536 75.6692 41.7156 80.1632C40.5946 77.4032 37.8916 75.4552 34.7296 75.4552C30.5646 75.4552 27.1886 78.8312 27.1886 82.9962C27.1886 83.9672 27.3786 84.8912 27.7126 85.7432C27.4796 85.7212 27.2446 85.7072 27.0056 85.7072C23.3146 85.7072 20.2446 88.3592 19.5936 91.8622H74.0646Z" fill="#D0D0FF"/>
<path d="M308.088 73.1942C308.673 70.5302 312.149 68.4832 316.35 68.4832C316.773 68.4832 317.186 68.5102 317.592 68.5512C317.586 68.4502 322.362 61.1902 328.274 61.1902C332.973 61.1902 335.374 62.6312 338.395 65.9662C339.445 64.2612 341.978 63.0572 344.94 63.0572C348.842 63.0572 351.828 68.8882 351.515 69.4142C351.733 69.4012 351.954 69.3922 352.177 69.3922C355.635 69.3922 358.511 71.0312 359.121 73.1952L308.088 73.1942Z" fill="#D0D0FF"/>
<path d="M280.603 66.4672C281.188 63.8032 284.664 61.7562 288.865 61.7562C289.288 61.7562 289.701 61.7832 290.107 61.8232C290.101 61.7222 294.877 54.4622 300.789 54.4622C305.488 54.4622 307.889 55.9032 310.911 59.2382C311.961 57.5332 314.494 56.3292 317.456 56.3292C321.358 56.3292 324.344 62.1602 324.031 62.6862C324.249 62.6732 324.47 62.6642 324.694 62.6642C328.152 62.6642 331.028 64.3032 331.638 66.4672H280.603Z" fill="#D0D0FF"/>
<path d="M307.973 150.875H279.064C272.579 150.875 267.272 156.181 267.272 162.667V179.23C267.272 185.715 272.578 191.021 279.064 191.021H308.922L319.764 202.908V191.021V187.27V162.667C319.764 156.181 314.458 150.875 307.973 150.875Z" fill="white"/>
<path d="M292.361 157.956C287.248 157.956 283.084 162.116 283.084 167.233C283.084 168.225 284.601 168.24 284.601 167.233C284.601 165.095 285.471 163.155 286.876 161.749C289.909 158.716 294.807 158.713 297.844 161.749C301.853 165.759 300.311 172.494 295.145 174.478C292.01 175.685 291.11 179.457 291.823 180.173C292.297 180.648 293.119 180.315 293.119 179.637C293.119 178.815 293.377 178.026 293.829 177.369C294.28 176.712 294.923 176.189 295.69 175.894C305.271 172.21 302.555 157.956 292.361 157.956Z" fill="#2E175A"/>
<path d="M291.454 183.821C291.454 185.026 293.27 185.006 293.27 183.821C293.27 182.636 291.454 182.616 291.454 183.821Z" fill="#2E175A"/>
<path d="M318.181 202.151L306.798 189.672H277.105C270.397 189.672 264.939 184.214 264.939 177.505V160.942C264.939 154.234 270.397 148.775 277.105 148.775H306.015C312.723 148.775 318.181 154.233 318.181 160.942V202.151ZM277.105 149.526C270.81 149.526 265.689 154.648 265.689 160.943V177.506C265.689 183.801 270.81 188.923 277.105 188.923H307.128L307.24 189.045L317.43 200.217V160.944C317.43 154.649 312.309 149.527 306.014 149.527L277.105 149.526Z" fill="#2E175A"/>
</svg>
