<svg width="1283" height="1990" viewBox="0 0 1283 1990" fill="none" xmlns="http://www.w3.org/2000/svg">
<g clip-path="url(#clip0_11_3)">
<path d="M1282.5 1289.16V1043.05H1091.75V831.751H1030.2C1078.56 796.584 1118.72 746.115 1146.65 685.389C1174.58 624.663 1189.31 555.809 1189.36 485.709C1189.36 272.897 1056.18 98.3494 888.844 86.1901C877.661 69.1175 871.031 31.8457 860.799 11.7457C847.4 -14.6821 807.163 11.7457 807.163 11.7457C767.58 53.1864 722.396 74.7753 692.016 85.4953H382.276C206.249 85.4953 63.0562 265.055 63.0562 485.758C63.0908 555.858 77.8 624.719 105.714 685.458C133.627 746.196 173.767 796.684 222.122 831.875H190.772V1043.05H0V1289.16H191.306V1535.38H0V1781.46H213.473V1989.49H1069.11V1781.34H1282.5V1535.38H1091.19V1289.16H1282.5ZM727.997 1535.38H852.684V1583.86C852.684 1626.21 839.268 1666.82 815.387 1696.76C791.507 1726.7 759.117 1743.52 725.345 1743.52H557.116C523.343 1743.52 490.954 1726.7 467.073 1696.76C443.192 1666.82 429.776 1626.21 429.776 1583.86V1535.38H554.464C572.116 1535.38 589.046 1526.58 601.528 1510.93C614.01 1495.28 621.023 1474.06 621.023 1451.92V1392.86C621.023 1379.24 618.883 1365.76 614.725 1353.17C610.567 1340.59 604.473 1329.16 596.791 1319.53C589.108 1309.9 579.988 1302.26 569.951 1297.05C559.914 1291.84 549.157 1289.16 538.294 1289.16H476.445C470.325 1289.16 464.265 1287.65 458.611 1284.71C452.957 1281.78 447.82 1277.47 443.494 1272.04C439.167 1266.62 435.736 1260.18 433.396 1253.09C431.056 1246 429.853 1238.4 429.855 1230.72C429.855 1190.18 442.702 1151.29 465.57 1122.62C488.437 1093.95 519.452 1077.84 551.792 1077.84H620.607V885.897H661.992V1077.84H730.807C763.147 1077.84 794.162 1093.95 817.029 1122.62C839.897 1151.29 852.744 1190.18 852.744 1230.72C852.746 1238.4 851.543 1246 849.203 1253.09C846.863 1260.18 843.432 1266.62 839.105 1272.04C834.779 1277.47 829.642 1281.78 823.988 1284.71C818.334 1287.65 812.274 1289.16 806.154 1289.16H744.167C733.303 1289.16 722.546 1291.84 712.509 1297.05C702.472 1302.26 693.352 1309.9 685.669 1319.53C677.987 1329.16 671.893 1340.59 667.735 1353.17C663.577 1365.76 661.438 1379.24 661.438 1392.86V1451.8C661.425 1462.77 663.136 1473.63 666.476 1483.77C669.815 1493.91 674.715 1503.13 680.897 1510.89C687.079 1518.65 694.421 1524.81 702.503 1529.01C710.585 1533.21 719.248 1535.38 727.997 1535.38ZM382.276 795.646C317.08 794.914 254.752 761.929 208.857 703.868C162.961 645.806 137.211 567.368 137.211 485.622C137.211 403.876 162.961 325.437 208.857 267.376C254.752 209.315 317.08 176.329 382.276 175.598H870.121C935.317 176.329 997.644 209.315 1043.54 267.376C1089.44 325.437 1115.19 403.876 1115.19 485.622C1115.19 567.368 1089.44 645.806 1043.54 703.868C997.644 761.929 935.317 794.914 870.121 795.646H382.276Z" fill="#9D5C9D"/>
<path d="M869.91 176H382.065C316.869 176.731 254.541 209.717 208.645 267.778C162.75 325.839 137 404.278 137 486.024C137 567.77 162.75 646.209 208.645 704.27C254.541 762.331 316.869 795.316 382.065 796.048H869.91C935.106 795.316 997.433 762.331 1043.33 704.27C1089.22 646.209 1114.97 567.77 1114.97 486.024C1114.97 404.278 1089.22 325.839 1043.33 267.778C997.433 209.717 935.106 176.731 869.91 176ZM476.055 630.334C453.496 630.334 431.443 621.947 412.685 606.232C393.928 590.517 379.309 568.18 370.676 542.048C362.044 515.915 359.787 487.16 364.189 459.418C368.592 431.677 379.457 406.195 395.41 386.196C411.364 366.197 431.689 352.579 453.816 347.064C475.942 341.549 498.877 344.384 519.718 355.212C540.559 366.04 558.371 384.373 570.902 407.894C583.433 431.415 590.119 459.066 590.115 487.351C590.12 506.142 587.172 524.75 581.438 542.111C575.705 559.472 567.299 575.246 556.701 588.532C546.102 601.817 533.52 612.354 519.672 619.54C505.824 626.725 490.983 630.419 475.996 630.409L476.055 630.334ZM776.196 630.334C753.637 630.334 731.584 621.947 712.826 606.232C694.069 590.517 679.449 568.18 670.817 542.048C662.185 515.915 659.927 487.16 664.33 459.418C668.732 431.677 679.597 406.195 695.551 386.196C711.504 366.197 731.83 352.579 753.956 347.064C776.083 341.549 799.017 344.384 819.858 355.212C840.7 366.04 858.512 384.373 871.043 407.894C883.573 431.415 890.259 459.066 890.256 487.351C890.261 506.142 887.312 524.75 881.579 542.111C875.845 559.472 867.439 575.246 856.841 588.532C846.243 601.817 833.66 612.354 819.813 619.54C805.965 626.725 791.124 630.419 776.137 630.409L776.196 630.334Z" fill="white"/>
<path d="M728.221 1536.48H852.908V1584.97C852.908 1627.31 839.492 1667.92 815.611 1697.86C791.731 1727.8 759.341 1744.62 725.569 1744.62H557.34C523.567 1744.62 491.178 1727.8 467.297 1697.86C443.416 1667.92 430 1627.31 430 1584.97V1536.48H554.687C572.34 1536.48 589.27 1527.69 601.752 1512.04C614.234 1496.39 621.247 1475.16 621.247 1453.03V1393.97C621.247 1380.35 619.107 1366.86 614.949 1354.28C610.791 1341.69 604.697 1330.26 597.015 1320.63C589.332 1311 580.212 1303.36 570.175 1298.15C560.138 1292.94 549.381 1290.26 538.518 1290.27H476.669C470.549 1290.27 464.489 1288.75 458.835 1285.82C453.181 1282.88 448.044 1278.57 443.718 1273.15C439.391 1267.72 435.96 1261.28 433.62 1254.19C431.28 1247.1 430.077 1239.5 430.079 1231.83C430.079 1191.28 442.926 1152.39 465.794 1123.72C488.661 1095.05 519.676 1078.94 552.016 1078.94H620.831V887H662.216V1078.94H731.031C763.371 1078.94 794.386 1095.05 817.253 1123.72C840.121 1152.39 852.968 1191.28 852.968 1231.83C852.97 1239.5 851.767 1247.1 849.427 1254.19C847.087 1261.28 843.655 1267.72 839.329 1273.15C835.002 1278.57 829.866 1282.88 824.212 1285.82C818.558 1288.75 812.498 1290.27 806.378 1290.27H744.391C733.527 1290.26 722.77 1292.94 712.733 1298.15C702.696 1303.36 693.576 1311 685.893 1320.63C678.211 1330.26 672.117 1341.69 667.959 1354.28C663.801 1366.86 661.661 1380.35 661.661 1393.97V1452.9C661.648 1463.87 663.36 1474.74 666.699 1484.88C670.039 1495.02 674.939 1504.23 681.121 1511.99C687.303 1519.75 694.645 1525.91 702.727 1530.11C710.809 1534.32 719.472 1536.48 728.221 1536.48Z" fill="white"/>
<path d="M476.059 345C453.501 345 431.448 353.387 412.691 369.101C393.934 384.815 379.315 407.15 370.682 433.281C362.049 459.412 359.791 488.166 364.192 515.907C368.593 543.648 379.456 569.13 395.407 589.13C411.359 609.13 431.682 622.75 453.808 628.268C475.933 633.786 498.866 630.954 519.708 620.13C540.55 609.306 558.363 590.976 570.896 567.459C583.429 543.941 590.119 516.292 590.119 488.008C590.119 450.08 578.102 413.705 556.712 386.886C535.321 360.067 506.31 345 476.059 345ZM475.703 560.889C464.217 560.894 452.987 556.627 443.434 548.629C433.882 540.631 426.436 529.26 422.039 515.956C417.641 502.651 416.489 488.01 418.729 473.884C420.969 459.759 426.5 446.784 434.623 436.6C442.745 426.416 453.093 419.482 464.36 416.673C475.626 413.865 487.303 415.309 497.914 420.822C508.526 426.336 517.595 435.672 523.974 447.649C530.353 459.625 533.756 473.705 533.752 488.107C533.731 507.393 527.606 525.88 516.722 539.507C505.838 553.135 491.085 560.79 475.703 560.79V560.889Z" fill="#40473F"/>
<path d="M776.059 344C753.501 344 731.448 352.387 712.691 368.101C693.934 383.815 679.315 406.15 670.682 432.281C662.049 458.412 659.791 487.166 664.192 514.907C668.593 542.648 679.456 568.13 695.407 588.13C711.359 608.13 731.682 621.75 753.808 627.268C775.933 632.786 798.866 629.954 819.708 619.13C840.55 608.306 858.363 589.976 870.896 566.459C883.429 542.941 890.119 515.292 890.119 487.008C890.119 449.08 878.102 412.705 856.712 385.886C835.321 359.067 806.31 344 776.059 344ZM776.059 559.889C764.573 559.894 753.343 555.627 743.791 547.629C734.238 539.631 726.792 528.26 722.395 514.956C717.997 501.651 716.846 487.01 719.086 472.884C721.326 458.759 726.857 445.784 734.979 435.6C743.101 425.416 753.45 418.482 764.716 415.673C775.982 412.865 787.659 414.309 798.271 419.822C808.882 425.336 817.951 434.672 824.33 446.649C830.71 458.625 834.112 472.705 834.108 487.107C834.087 506.393 827.962 524.88 817.078 538.507C806.194 552.135 791.441 559.79 776.059 559.79V559.889Z" fill="#40473F"/>
<path d="M534.098 488.807C534.094 503.2 530.686 517.27 524.305 529.235C517.924 541.201 508.857 550.526 498.25 556.031C487.642 561.536 475.971 562.973 464.712 560.162C453.453 557.351 443.111 550.417 434.995 540.238C426.879 530.058 421.352 517.089 419.114 502.972C416.876 488.854 418.027 474.221 422.421 460.924C426.815 447.626 434.255 436.26 443.801 428.264C453.347 420.268 464.569 416 476.049 416C483.674 416 491.224 417.883 498.268 421.543C505.312 425.202 511.712 430.565 517.103 437.326C522.493 444.087 526.769 452.113 529.685 460.947C532.601 469.78 534.101 479.247 534.098 488.807Z" fill="white"/>
<path d="M834.098 486.807C834.094 501.2 830.686 515.27 824.305 527.235C817.924 539.201 808.857 548.526 798.25 554.031C787.642 559.536 775.971 560.973 764.712 558.162C753.453 555.351 743.111 548.417 734.995 538.238C726.879 528.058 721.352 515.089 719.114 500.972C716.876 486.854 718.026 472.221 722.421 458.924C726.815 445.626 734.255 434.26 743.801 426.264C753.346 418.268 764.569 414 776.049 414C783.674 414 791.224 415.883 798.268 419.543C805.312 423.202 811.712 428.565 817.103 435.326C822.493 442.087 826.769 450.113 829.685 458.947C832.601 467.78 834.101 477.247 834.098 486.807Z" fill="white"/>
</g>
<defs>
<clipPath id="clip0_11_3">
<rect width="1282.5" height="1989.49" fill="white"/>
</clipPath>
</defs>
</svg>
