<svg id="Layer_1" data-name="Layer 1" xmlns="http://www.w3.org/2000/svg" viewBox="0 0 1920 1080"><defs><style>.cls-1{fill:#40473f;}.cls-2{fill:#9d5c9d;}.cls-3{fill:#fff;}</style></defs><path class="cls-1" d="M917.61,289.87a57.63,57.63,0,1,0,57.63,57.63A57.63,57.63,0,0,0,917.61,289.87Zm-.18,87a29.34,29.34,0,1,1,29.33-29.33A29.33,29.33,0,0,1,917.43,376.83Z"/><path class="cls-1" d="M1069.26,289.87a57.63,57.63,0,1,0,57.63,57.63A57.63,57.63,0,0,0,1069.26,289.87Zm0,87a29.34,29.34,0,1,1,29.33-29.33A29.33,29.33,0,0,1,1069.26,376.83Z"/><path class="cls-2" d="M1325,670.78V571.6h-96.38V486.45h-31.1A161.38,161.38,0,0,0,1277.94,347c0-85.76-67.29-156.1-151.84-161-5.65-6.88-9-21.9-14.17-30-6.77-10.65-27.1,0-27.1,0-20,16.7-42.83,25.4-58.18,29.72H870.15c-88.94,0-161.29,72.36-161.29,161.3a161.39,161.39,0,0,0,80.37,139.48H773.39V571.6H677v99.18h96.66V770H677v99.17H784.86V953h432.32V869.12H1325V770h-96.66V670.78ZM1044.83,770h63v19.54a64.34,64.34,0,0,1-64.34,64.34h-85a64.34,64.34,0,0,1-64.34-64.34V770h63a33.63,33.63,0,0,0,33.63-33.63V712.57a41.79,41.79,0,0,0-41.8-41.79H917.73a23.54,23.54,0,0,1-23.54-23.55,61.61,61.61,0,0,1,61.61-61.61h34.77V508.27h20.91v77.35h34.77a61.61,61.61,0,0,1,61.61,61.61,23.54,23.54,0,0,1-23.54,23.55H1053a41.79,41.79,0,0,0-41.8,41.79v23.75A33.63,33.63,0,0,0,1044.83,770ZM870.15,471.9a124.94,124.94,0,0,1,0-249.87h246.49a124.94,124.94,0,0,1,0,249.87Z"/><path class="cls-3" d="M1044.83,770h63v19.54a64.34,64.34,0,0,1-64.34,64.34h-85a64.34,64.34,0,0,1-64.34-64.34V770h63a33.63,33.63,0,0,0,33.63-33.63V712.57a41.79,41.79,0,0,0-41.8-41.79H917.73a23.54,23.54,0,0,1-23.54-23.55,61.61,61.61,0,0,1,61.61-61.61h34.77V508.27h20.91v77.35h34.77a61.61,61.61,0,0,1,61.61,61.61,23.54,23.54,0,0,1-23.54,23.55H1053a41.79,41.79,0,0,0-41.8,41.79v23.75A33.63,33.63,0,0,0,1044.83,770Z"/><path class="cls-3" d="M1116.64,222H870.15a124.94,124.94,0,0,0,0,249.87h246.49a124.94,124.94,0,0,0,0-249.87Zm-199,183.09a57.63,57.63,0,1,1,57.63-57.62A57.63,57.63,0,0,1,917.61,405.12Zm151.65,0a57.63,57.63,0,1,1,57.63-57.62A57.63,57.63,0,0,1,1069.26,405.12Z"/><path class="cls-3" d="M1098.59,347.5a29.33,29.33,0,1,1-29.33-29.34A29.33,29.33,0,0,1,1098.59,347.5Z"/><path class="cls-3" d="M946.76,347.5a29.33,29.33,0,1,1-29.33-29.34A29.33,29.33,0,0,1,946.76,347.5Z"/></svg>
